G04 #@! TF.GenerationSoftware,KiCad,Pcbnew,5.1.4+dfsg1-1*
G04 #@! TF.CreationDate,2020-12-01T08:27:42+00:00*
G04 #@! TF.ProjectId,panel,70616e65-6c2e-46b6-9963-61645f706362,rev?*
G04 #@! TF.SameCoordinates,Original*
G04 #@! TF.FileFunction,Legend,Top*
G04 #@! TF.FilePolarity,Positive*
%FSLAX46Y46*%
G04 Gerber Fmt 4.6, Leading zero omitted, Abs format (unit mm)*
G04 Created by KiCad (PCBNEW 5.1.4+dfsg1-1) date 2020-12-01 08:27:42*
%MOMM*%
%LPD*%
G04 APERTURE LIST*
%ADD10C,0.153000*%
%ADD11C,0.120000*%
G04 APERTURE END LIST*
D10*
X69360947Y-60870952D02*
X69970470Y-60870952D01*
X69665709Y-61175714D02*
X69665709Y-60566190D01*
X69750791Y-63760171D02*
X69750791Y-63150648D01*
X64764814Y-61239229D02*
X64726719Y-61201133D01*
X64688624Y-61086848D01*
X64688624Y-61010657D01*
X64726719Y-60896371D01*
X64802909Y-60820181D01*
X64879100Y-60782086D01*
X65031481Y-60743990D01*
X65145767Y-60743990D01*
X65298148Y-60782086D01*
X65374338Y-60820181D01*
X65450529Y-60896371D01*
X65488624Y-61010657D01*
X65488624Y-61086848D01*
X65450529Y-61201133D01*
X65412433Y-61239229D01*
X63654844Y-64500646D02*
X64454844Y-64500646D01*
X64454844Y-64691122D01*
X64416749Y-64805408D01*
X64340558Y-64881598D01*
X64264368Y-64919693D01*
X64111987Y-64957789D01*
X63997701Y-64957789D01*
X63845320Y-64919693D01*
X63769129Y-64881598D01*
X63692939Y-64805408D01*
X63654844Y-64691122D01*
X63654844Y-64500646D01*
X64548924Y-66789124D02*
X64548924Y-66217695D01*
X64548924Y-66503410D02*
X65348924Y-66503410D01*
X65234638Y-66408171D01*
X65158448Y-66312933D01*
X65120352Y-66217695D01*
X69847273Y-66213878D02*
X69885369Y-66251973D01*
X69923464Y-66328164D01*
X69923464Y-66518640D01*
X69885369Y-66594830D01*
X69847273Y-66632926D01*
X69771083Y-66671021D01*
X69694892Y-66671021D01*
X69580607Y-66632926D01*
X69123464Y-66175783D01*
X69123464Y-66671021D01*
X57200939Y-60870952D02*
X57810462Y-60870952D01*
X57505701Y-61175714D02*
X57505701Y-60566190D01*
X57590783Y-63760171D02*
X57590783Y-63150648D01*
X52604806Y-61239229D02*
X52566711Y-61201133D01*
X52528616Y-61086848D01*
X52528616Y-61010657D01*
X52566711Y-60896371D01*
X52642901Y-60820181D01*
X52719092Y-60782086D01*
X52871473Y-60743990D01*
X52985759Y-60743990D01*
X53138140Y-60782086D01*
X53214330Y-60820181D01*
X53290521Y-60896371D01*
X53328616Y-61010657D01*
X53328616Y-61086848D01*
X53290521Y-61201133D01*
X53252425Y-61239229D01*
X51494836Y-64500646D02*
X52294836Y-64500646D01*
X52294836Y-64691122D01*
X52256741Y-64805408D01*
X52180550Y-64881598D01*
X52104360Y-64919693D01*
X51951979Y-64957789D01*
X51837693Y-64957789D01*
X51685312Y-64919693D01*
X51609121Y-64881598D01*
X51532931Y-64805408D01*
X51494836Y-64691122D01*
X51494836Y-64500646D01*
X52388916Y-66789124D02*
X52388916Y-66217695D01*
X52388916Y-66503410D02*
X53188916Y-66503410D01*
X53074630Y-66408171D01*
X52998440Y-66312933D01*
X52960344Y-66217695D01*
X57687265Y-66213878D02*
X57725361Y-66251973D01*
X57763456Y-66328164D01*
X57763456Y-66518640D01*
X57725361Y-66594830D01*
X57687265Y-66632926D01*
X57611075Y-66671021D01*
X57534884Y-66671021D01*
X57420599Y-66632926D01*
X56963456Y-66175783D01*
X56963456Y-66671021D01*
X69360947Y-51250943D02*
X69970470Y-51250943D01*
X69665709Y-51555705D02*
X69665709Y-50946181D01*
X69750791Y-54140162D02*
X69750791Y-53530639D01*
X64764814Y-51619220D02*
X64726719Y-51581124D01*
X64688624Y-51466839D01*
X64688624Y-51390648D01*
X64726719Y-51276362D01*
X64802909Y-51200172D01*
X64879100Y-51162077D01*
X65031481Y-51123981D01*
X65145767Y-51123981D01*
X65298148Y-51162077D01*
X65374338Y-51200172D01*
X65450529Y-51276362D01*
X65488624Y-51390648D01*
X65488624Y-51466839D01*
X65450529Y-51581124D01*
X65412433Y-51619220D01*
X63654844Y-54880637D02*
X64454844Y-54880637D01*
X64454844Y-55071113D01*
X64416749Y-55185399D01*
X64340558Y-55261589D01*
X64264368Y-55299684D01*
X64111987Y-55337780D01*
X63997701Y-55337780D01*
X63845320Y-55299684D01*
X63769129Y-55261589D01*
X63692939Y-55185399D01*
X63654844Y-55071113D01*
X63654844Y-54880637D01*
X64548924Y-57169115D02*
X64548924Y-56597686D01*
X64548924Y-56883401D02*
X65348924Y-56883401D01*
X65234638Y-56788162D01*
X65158448Y-56692924D01*
X65120352Y-56597686D01*
X69847273Y-56593869D02*
X69885369Y-56631964D01*
X69923464Y-56708155D01*
X69923464Y-56898631D01*
X69885369Y-56974821D01*
X69847273Y-57012917D01*
X69771083Y-57051012D01*
X69694892Y-57051012D01*
X69580607Y-57012917D01*
X69123464Y-56555774D01*
X69123464Y-57051012D01*
X57200939Y-51250943D02*
X57810462Y-51250943D01*
X57505701Y-51555705D02*
X57505701Y-50946181D01*
X57590783Y-54140162D02*
X57590783Y-53530639D01*
X52604806Y-51619220D02*
X52566711Y-51581124D01*
X52528616Y-51466839D01*
X52528616Y-51390648D01*
X52566711Y-51276362D01*
X52642901Y-51200172D01*
X52719092Y-51162077D01*
X52871473Y-51123981D01*
X52985759Y-51123981D01*
X53138140Y-51162077D01*
X53214330Y-51200172D01*
X53290521Y-51276362D01*
X53328616Y-51390648D01*
X53328616Y-51466839D01*
X53290521Y-51581124D01*
X53252425Y-51619220D01*
X51494836Y-54880637D02*
X52294836Y-54880637D01*
X52294836Y-55071113D01*
X52256741Y-55185399D01*
X52180550Y-55261589D01*
X52104360Y-55299684D01*
X51951979Y-55337780D01*
X51837693Y-55337780D01*
X51685312Y-55299684D01*
X51609121Y-55261589D01*
X51532931Y-55185399D01*
X51494836Y-55071113D01*
X51494836Y-54880637D01*
X52388916Y-57169115D02*
X52388916Y-56597686D01*
X52388916Y-56883401D02*
X53188916Y-56883401D01*
X53074630Y-56788162D01*
X52998440Y-56692924D01*
X52960344Y-56597686D01*
X57687265Y-56593869D02*
X57725361Y-56631964D01*
X57763456Y-56708155D01*
X57763456Y-56898631D01*
X57725361Y-56974821D01*
X57687265Y-57012917D01*
X57611075Y-57051012D01*
X57534884Y-57051012D01*
X57420599Y-57012917D01*
X56963456Y-56555774D01*
X56963456Y-57051012D01*
D11*
G04 #@! TO.C,U1*
X67840009Y-62330010D02*
X68340009Y-62330010D01*
X68340009Y-62330010D02*
X68340009Y-62830010D01*
X68340009Y-62830010D02*
X68340009Y-62830010D01*
X68340009Y-64030010D02*
X68340009Y-64530010D01*
X68340009Y-64530010D02*
X67840009Y-64530010D01*
X67840009Y-64530010D02*
X67840009Y-64530010D01*
X66640009Y-64530010D02*
X66140009Y-64530010D01*
X66140009Y-64530010D02*
X66140009Y-64030010D01*
X66140009Y-64030010D02*
X66140009Y-64030010D01*
X66640009Y-62330010D02*
X66140009Y-62330010D01*
X66140009Y-62330010D02*
X66140009Y-62330010D01*
X55680001Y-62330010D02*
X56180001Y-62330010D01*
X56180001Y-62330010D02*
X56180001Y-62830010D01*
X56180001Y-62830010D02*
X56180001Y-62830010D01*
X56180001Y-64030010D02*
X56180001Y-64530010D01*
X56180001Y-64530010D02*
X55680001Y-64530010D01*
X55680001Y-64530010D02*
X55680001Y-64530010D01*
X54480001Y-64530010D02*
X53980001Y-64530010D01*
X53980001Y-64530010D02*
X53980001Y-64030010D01*
X53980001Y-64030010D02*
X53980001Y-64030010D01*
X54480001Y-62330010D02*
X53980001Y-62330010D01*
X53980001Y-62330010D02*
X53980001Y-62330010D01*
X67840009Y-52710001D02*
X68340009Y-52710001D01*
X68340009Y-52710001D02*
X68340009Y-53210001D01*
X68340009Y-53210001D02*
X68340009Y-53210001D01*
X68340009Y-54410001D02*
X68340009Y-54910001D01*
X68340009Y-54910001D02*
X67840009Y-54910001D01*
X67840009Y-54910001D02*
X67840009Y-54910001D01*
X66640009Y-54910001D02*
X66140009Y-54910001D01*
X66140009Y-54910001D02*
X66140009Y-54410001D01*
X66140009Y-54410001D02*
X66140009Y-54410001D01*
X66640009Y-52710001D02*
X66140009Y-52710001D01*
X66140009Y-52710001D02*
X66140009Y-52710001D01*
X55680001Y-52710001D02*
X56180001Y-52710001D01*
X56180001Y-52710001D02*
X56180001Y-53210001D01*
X56180001Y-53210001D02*
X56180001Y-53210001D01*
X56180001Y-54410001D02*
X56180001Y-54910001D01*
X56180001Y-54910001D02*
X55680001Y-54910001D01*
X55680001Y-54910001D02*
X55680001Y-54910001D01*
X54480001Y-54910001D02*
X53980001Y-54910001D01*
X53980001Y-54910001D02*
X53980001Y-54410001D01*
X53980001Y-54410001D02*
X53980001Y-54410001D01*
X54480001Y-52710001D02*
X53980001Y-52710001D01*
X53980001Y-52710001D02*
X53980001Y-52710001D01*
G04 #@! TD*
M02*
