G04 #@! TF.GenerationSoftware,KiCad,Pcbnew,5.1.4+dfsg1-1*
G04 #@! TF.CreationDate,2020-12-01T08:27:42+00:00*
G04 #@! TF.ProjectId,panel,70616e65-6c2e-46b6-9963-61645f706362,rev?*
G04 #@! TF.SameCoordinates,Original*
G04 #@! TF.FileFunction,Copper,L2,Bot*
G04 #@! TF.FilePolarity,Positive*
%FSLAX46Y46*%
G04 Gerber Fmt 4.6, Leading zero omitted, Abs format (unit mm)*
G04 Created by KiCad (PCBNEW 5.1.4+dfsg1-1) date 2020-12-01 08:27:42*
%MOMM*%
%LPD*%
G04 APERTURE LIST*
G04 #@! TA.AperFunction,ComponentPad*
%ADD10R,1.700000X1.700000*%
G04 #@! TD*
G04 #@! TA.AperFunction,ComponentPad*
%ADD11O,1.700000X1.700000*%
G04 #@! TD*
G04 #@! TA.AperFunction,ViaPad*
%ADD12C,0.600000*%
G04 #@! TD*
G04 #@! TA.AperFunction,Conductor*
%ADD13C,0.250000*%
G04 #@! TD*
G04 #@! TA.AperFunction,Conductor*
%ADD14C,0.254000*%
G04 #@! TD*
G04 APERTURE END LIST*
D10*
G04 #@! TO.P,J2,1*
G04 #@! TO.N,Board_4-+3V3*
X71050009Y-60890010D03*
D11*
G04 #@! TO.P,J2,2*
G04 #@! TO.N,Board_4-GND*
X71050009Y-63430010D03*
G04 #@! TO.P,J2,3*
G04 #@! TO.N,Board_4-INT_2*
X71050009Y-65970010D03*
G04 #@! TD*
D10*
G04 #@! TO.P,J1,1*
G04 #@! TO.N,Board_4-I2C_CLK*
X63430009Y-60890010D03*
D11*
G04 #@! TO.P,J1,2*
G04 #@! TO.N,Board_4-I2C_DATA*
X63430009Y-63430010D03*
G04 #@! TO.P,J1,3*
G04 #@! TO.N,Board_4-INT_1*
X63430009Y-65970010D03*
G04 #@! TD*
D10*
G04 #@! TO.P,J2,1*
G04 #@! TO.N,Board_3-+3V3*
X58890001Y-60890010D03*
D11*
G04 #@! TO.P,J2,2*
G04 #@! TO.N,Board_3-GND*
X58890001Y-63430010D03*
G04 #@! TO.P,J2,3*
G04 #@! TO.N,Board_3-INT_2*
X58890001Y-65970010D03*
G04 #@! TD*
D10*
G04 #@! TO.P,J1,1*
G04 #@! TO.N,Board_3-I2C_CLK*
X51270001Y-60890010D03*
D11*
G04 #@! TO.P,J1,2*
G04 #@! TO.N,Board_3-I2C_DATA*
X51270001Y-63430010D03*
G04 #@! TO.P,J1,3*
G04 #@! TO.N,Board_3-INT_1*
X51270001Y-65970010D03*
G04 #@! TD*
D10*
G04 #@! TO.P,J2,1*
G04 #@! TO.N,Board_2-+3V3*
X71050009Y-51270001D03*
D11*
G04 #@! TO.P,J2,2*
G04 #@! TO.N,Board_2-GND*
X71050009Y-53810001D03*
G04 #@! TO.P,J2,3*
G04 #@! TO.N,Board_2-INT_2*
X71050009Y-56350001D03*
G04 #@! TD*
D10*
G04 #@! TO.P,J1,1*
G04 #@! TO.N,Board_2-I2C_CLK*
X63430009Y-51270001D03*
D11*
G04 #@! TO.P,J1,2*
G04 #@! TO.N,Board_2-I2C_DATA*
X63430009Y-53810001D03*
G04 #@! TO.P,J1,3*
G04 #@! TO.N,Board_2-INT_1*
X63430009Y-56350001D03*
G04 #@! TD*
D10*
G04 #@! TO.P,J2,1*
G04 #@! TO.N,Board_1-+3V3*
X58890001Y-51270001D03*
D11*
G04 #@! TO.P,J2,2*
G04 #@! TO.N,Board_1-GND*
X58890001Y-53810001D03*
G04 #@! TO.P,J2,3*
G04 #@! TO.N,Board_1-INT_2*
X58890001Y-56350001D03*
G04 #@! TD*
D10*
G04 #@! TO.P,J1,1*
G04 #@! TO.N,Board_1-I2C_CLK*
X51270001Y-51270001D03*
D11*
G04 #@! TO.P,J1,2*
G04 #@! TO.N,Board_1-I2C_DATA*
X51270001Y-53810001D03*
G04 #@! TO.P,J1,3*
G04 #@! TO.N,Board_1-INT_1*
X51270001Y-56350001D03*
G04 #@! TD*
D12*
G04 #@! TO.N,Board_1-+3V3*
X53090001Y-56309999D03*
X55990001Y-56384991D03*
G04 #@! TO.N,Board_1-GND*
X54090001Y-52310001D03*
X56890001Y-52910001D03*
X57590001Y-55610001D03*
X54090001Y-56309993D03*
G04 #@! TO.N,Board_2-+3V3*
X65250009Y-56309999D03*
X68150009Y-56384991D03*
G04 #@! TO.N,Board_2-GND*
X66250009Y-52310001D03*
X69050009Y-52910001D03*
X69750009Y-55610001D03*
X66250009Y-56309993D03*
G04 #@! TO.N,Board_3-+3V3*
X53090001Y-65930008D03*
X55990001Y-66005000D03*
G04 #@! TO.N,Board_3-GND*
X54090001Y-61930010D03*
X56890001Y-62530010D03*
X57590001Y-65230010D03*
X54090001Y-65930002D03*
G04 #@! TO.N,Board_4-+3V3*
X65250009Y-65930008D03*
X68150009Y-66005000D03*
G04 #@! TO.N,Board_4-GND*
X66250009Y-61930010D03*
X69050009Y-62530010D03*
X69750009Y-65230010D03*
X66250009Y-65930002D03*
G04 #@! TD*
D13*
G04 #@! TO.N,Board_1-+3V3*
X55364991Y-57010001D02*
X55690002Y-56684990D01*
X55690002Y-56684990D02*
X55990001Y-56384991D01*
X53790003Y-57010001D02*
X55364991Y-57010001D01*
X53090001Y-56309999D02*
X53790003Y-57010001D01*
G04 #@! TO.N,Board_2-+3V3*
X67524999Y-57010001D02*
X67850010Y-56684990D01*
X67850010Y-56684990D02*
X68150009Y-56384991D01*
X65950011Y-57010001D02*
X67524999Y-57010001D01*
X65250009Y-56309999D02*
X65950011Y-57010001D01*
G04 #@! TO.N,Board_3-+3V3*
X55364991Y-66630010D02*
X55690002Y-66304999D01*
X55690002Y-66304999D02*
X55990001Y-66005000D01*
X53790003Y-66630010D02*
X55364991Y-66630010D01*
X53090001Y-65930008D02*
X53790003Y-66630010D01*
G04 #@! TO.N,Board_4-+3V3*
X67524999Y-66630010D02*
X67850010Y-66304999D01*
X67850010Y-66304999D02*
X68150009Y-66005000D01*
X65950011Y-66630010D02*
X67524999Y-66630010D01*
X65250009Y-65930008D02*
X65950011Y-66630010D01*
G04 #@! TD*
D14*
G04 #@! TO.N,Board_1-GND*
G36*
X57610935Y-52120001D02*
G01*
X57619179Y-52203708D01*
X57643596Y-52284197D01*
X57683246Y-52358377D01*
X57736606Y-52423396D01*
X57801625Y-52476756D01*
X57875805Y-52516406D01*
X57956294Y-52540823D01*
X58040001Y-52549067D01*
X59708001Y-52549067D01*
X59708002Y-55362051D01*
X59704041Y-55358090D01*
X59494887Y-55218338D01*
X59262488Y-55122075D01*
X59015775Y-55073001D01*
X58764227Y-55073001D01*
X58517514Y-55122075D01*
X58285115Y-55218338D01*
X58075961Y-55358090D01*
X57898090Y-55535961D01*
X57758338Y-55745115D01*
X57662075Y-55977514D01*
X57613001Y-56224227D01*
X57613001Y-56475775D01*
X57662075Y-56722488D01*
X57758338Y-56954887D01*
X57898090Y-57164041D01*
X57902050Y-57168001D01*
X55987635Y-57168001D01*
X56043645Y-57111991D01*
X56061604Y-57111991D01*
X56202059Y-57084053D01*
X56334365Y-57029250D01*
X56453437Y-56949689D01*
X56554699Y-56848427D01*
X56634260Y-56729355D01*
X56689063Y-56597049D01*
X56717001Y-56456594D01*
X56717001Y-56313388D01*
X56689063Y-56172933D01*
X56634260Y-56040627D01*
X56554699Y-55921555D01*
X56453437Y-55820293D01*
X56334365Y-55740732D01*
X56202059Y-55685929D01*
X56061604Y-55657991D01*
X55918398Y-55657991D01*
X55777943Y-55685929D01*
X55645637Y-55740732D01*
X55526565Y-55820293D01*
X55425303Y-55921555D01*
X55345742Y-56040627D01*
X55290939Y-56172933D01*
X55263001Y-56313388D01*
X55263001Y-56331347D01*
X55136347Y-56458001D01*
X54018649Y-56458001D01*
X53817001Y-56256354D01*
X53817001Y-56238396D01*
X53789063Y-56097941D01*
X53734260Y-55965635D01*
X53654699Y-55846563D01*
X53553437Y-55745301D01*
X53434365Y-55665740D01*
X53302059Y-55610937D01*
X53161604Y-55582999D01*
X53018398Y-55582999D01*
X52877943Y-55610937D01*
X52745637Y-55665740D01*
X52626565Y-55745301D01*
X52525303Y-55846563D01*
X52474919Y-55921968D01*
X52401664Y-55745115D01*
X52261912Y-55535961D01*
X52084041Y-55358090D01*
X51874887Y-55218338D01*
X51642488Y-55122075D01*
X51430967Y-55080001D01*
X51642488Y-55037927D01*
X51874887Y-54941664D01*
X52084041Y-54801912D01*
X52261912Y-54624041D01*
X52401664Y-54414887D01*
X52497927Y-54182488D01*
X52547001Y-53935775D01*
X52547001Y-53684227D01*
X52497927Y-53437514D01*
X52401664Y-53205115D01*
X52261912Y-52995961D01*
X52084041Y-52818090D01*
X51874887Y-52678338D01*
X51642488Y-52582075D01*
X51476545Y-52549067D01*
X52120001Y-52549067D01*
X52203708Y-52540823D01*
X52284197Y-52516406D01*
X52358377Y-52476756D01*
X52423396Y-52423396D01*
X52476756Y-52358377D01*
X52516406Y-52284197D01*
X52540823Y-52203708D01*
X52549067Y-52120001D01*
X52549067Y-50452001D01*
X57610935Y-50452001D01*
X57610935Y-52120001D01*
X57610935Y-52120001D01*
G37*
X57610935Y-52120001D02*
X57619179Y-52203708D01*
X57643596Y-52284197D01*
X57683246Y-52358377D01*
X57736606Y-52423396D01*
X57801625Y-52476756D01*
X57875805Y-52516406D01*
X57956294Y-52540823D01*
X58040001Y-52549067D01*
X59708001Y-52549067D01*
X59708002Y-55362051D01*
X59704041Y-55358090D01*
X59494887Y-55218338D01*
X59262488Y-55122075D01*
X59015775Y-55073001D01*
X58764227Y-55073001D01*
X58517514Y-55122075D01*
X58285115Y-55218338D01*
X58075961Y-55358090D01*
X57898090Y-55535961D01*
X57758338Y-55745115D01*
X57662075Y-55977514D01*
X57613001Y-56224227D01*
X57613001Y-56475775D01*
X57662075Y-56722488D01*
X57758338Y-56954887D01*
X57898090Y-57164041D01*
X57902050Y-57168001D01*
X55987635Y-57168001D01*
X56043645Y-57111991D01*
X56061604Y-57111991D01*
X56202059Y-57084053D01*
X56334365Y-57029250D01*
X56453437Y-56949689D01*
X56554699Y-56848427D01*
X56634260Y-56729355D01*
X56689063Y-56597049D01*
X56717001Y-56456594D01*
X56717001Y-56313388D01*
X56689063Y-56172933D01*
X56634260Y-56040627D01*
X56554699Y-55921555D01*
X56453437Y-55820293D01*
X56334365Y-55740732D01*
X56202059Y-55685929D01*
X56061604Y-55657991D01*
X55918398Y-55657991D01*
X55777943Y-55685929D01*
X55645637Y-55740732D01*
X55526565Y-55820293D01*
X55425303Y-55921555D01*
X55345742Y-56040627D01*
X55290939Y-56172933D01*
X55263001Y-56313388D01*
X55263001Y-56331347D01*
X55136347Y-56458001D01*
X54018649Y-56458001D01*
X53817001Y-56256354D01*
X53817001Y-56238396D01*
X53789063Y-56097941D01*
X53734260Y-55965635D01*
X53654699Y-55846563D01*
X53553437Y-55745301D01*
X53434365Y-55665740D01*
X53302059Y-55610937D01*
X53161604Y-55582999D01*
X53018398Y-55582999D01*
X52877943Y-55610937D01*
X52745637Y-55665740D01*
X52626565Y-55745301D01*
X52525303Y-55846563D01*
X52474919Y-55921968D01*
X52401664Y-55745115D01*
X52261912Y-55535961D01*
X52084041Y-55358090D01*
X51874887Y-55218338D01*
X51642488Y-55122075D01*
X51430967Y-55080001D01*
X51642488Y-55037927D01*
X51874887Y-54941664D01*
X52084041Y-54801912D01*
X52261912Y-54624041D01*
X52401664Y-54414887D01*
X52497927Y-54182488D01*
X52547001Y-53935775D01*
X52547001Y-53684227D01*
X52497927Y-53437514D01*
X52401664Y-53205115D01*
X52261912Y-52995961D01*
X52084041Y-52818090D01*
X51874887Y-52678338D01*
X51642488Y-52582075D01*
X51476545Y-52549067D01*
X52120001Y-52549067D01*
X52203708Y-52540823D01*
X52284197Y-52516406D01*
X52358377Y-52476756D01*
X52423396Y-52423396D01*
X52476756Y-52358377D01*
X52516406Y-52284197D01*
X52540823Y-52203708D01*
X52549067Y-52120001D01*
X52549067Y-50452001D01*
X57610935Y-50452001D01*
X57610935Y-52120001D01*
G04 #@! TO.N,Board_2-GND*
G36*
X69770943Y-52120001D02*
G01*
X69779187Y-52203708D01*
X69803604Y-52284197D01*
X69843254Y-52358377D01*
X69896614Y-52423396D01*
X69961633Y-52476756D01*
X70035813Y-52516406D01*
X70116302Y-52540823D01*
X70200009Y-52549067D01*
X71868009Y-52549067D01*
X71868010Y-55362051D01*
X71864049Y-55358090D01*
X71654895Y-55218338D01*
X71422496Y-55122075D01*
X71175783Y-55073001D01*
X70924235Y-55073001D01*
X70677522Y-55122075D01*
X70445123Y-55218338D01*
X70235969Y-55358090D01*
X70058098Y-55535961D01*
X69918346Y-55745115D01*
X69822083Y-55977514D01*
X69773009Y-56224227D01*
X69773009Y-56475775D01*
X69822083Y-56722488D01*
X69918346Y-56954887D01*
X70058098Y-57164041D01*
X70062058Y-57168001D01*
X68147643Y-57168001D01*
X68203653Y-57111991D01*
X68221612Y-57111991D01*
X68362067Y-57084053D01*
X68494373Y-57029250D01*
X68613445Y-56949689D01*
X68714707Y-56848427D01*
X68794268Y-56729355D01*
X68849071Y-56597049D01*
X68877009Y-56456594D01*
X68877009Y-56313388D01*
X68849071Y-56172933D01*
X68794268Y-56040627D01*
X68714707Y-55921555D01*
X68613445Y-55820293D01*
X68494373Y-55740732D01*
X68362067Y-55685929D01*
X68221612Y-55657991D01*
X68078406Y-55657991D01*
X67937951Y-55685929D01*
X67805645Y-55740732D01*
X67686573Y-55820293D01*
X67585311Y-55921555D01*
X67505750Y-56040627D01*
X67450947Y-56172933D01*
X67423009Y-56313388D01*
X67423009Y-56331347D01*
X67296355Y-56458001D01*
X66178657Y-56458001D01*
X65977009Y-56256354D01*
X65977009Y-56238396D01*
X65949071Y-56097941D01*
X65894268Y-55965635D01*
X65814707Y-55846563D01*
X65713445Y-55745301D01*
X65594373Y-55665740D01*
X65462067Y-55610937D01*
X65321612Y-55582999D01*
X65178406Y-55582999D01*
X65037951Y-55610937D01*
X64905645Y-55665740D01*
X64786573Y-55745301D01*
X64685311Y-55846563D01*
X64634927Y-55921968D01*
X64561672Y-55745115D01*
X64421920Y-55535961D01*
X64244049Y-55358090D01*
X64034895Y-55218338D01*
X63802496Y-55122075D01*
X63590975Y-55080001D01*
X63802496Y-55037927D01*
X64034895Y-54941664D01*
X64244049Y-54801912D01*
X64421920Y-54624041D01*
X64561672Y-54414887D01*
X64657935Y-54182488D01*
X64707009Y-53935775D01*
X64707009Y-53684227D01*
X64657935Y-53437514D01*
X64561672Y-53205115D01*
X64421920Y-52995961D01*
X64244049Y-52818090D01*
X64034895Y-52678338D01*
X63802496Y-52582075D01*
X63636553Y-52549067D01*
X64280009Y-52549067D01*
X64363716Y-52540823D01*
X64444205Y-52516406D01*
X64518385Y-52476756D01*
X64583404Y-52423396D01*
X64636764Y-52358377D01*
X64676414Y-52284197D01*
X64700831Y-52203708D01*
X64709075Y-52120001D01*
X64709075Y-50452001D01*
X69770943Y-50452001D01*
X69770943Y-52120001D01*
X69770943Y-52120001D01*
G37*
X69770943Y-52120001D02*
X69779187Y-52203708D01*
X69803604Y-52284197D01*
X69843254Y-52358377D01*
X69896614Y-52423396D01*
X69961633Y-52476756D01*
X70035813Y-52516406D01*
X70116302Y-52540823D01*
X70200009Y-52549067D01*
X71868009Y-52549067D01*
X71868010Y-55362051D01*
X71864049Y-55358090D01*
X71654895Y-55218338D01*
X71422496Y-55122075D01*
X71175783Y-55073001D01*
X70924235Y-55073001D01*
X70677522Y-55122075D01*
X70445123Y-55218338D01*
X70235969Y-55358090D01*
X70058098Y-55535961D01*
X69918346Y-55745115D01*
X69822083Y-55977514D01*
X69773009Y-56224227D01*
X69773009Y-56475775D01*
X69822083Y-56722488D01*
X69918346Y-56954887D01*
X70058098Y-57164041D01*
X70062058Y-57168001D01*
X68147643Y-57168001D01*
X68203653Y-57111991D01*
X68221612Y-57111991D01*
X68362067Y-57084053D01*
X68494373Y-57029250D01*
X68613445Y-56949689D01*
X68714707Y-56848427D01*
X68794268Y-56729355D01*
X68849071Y-56597049D01*
X68877009Y-56456594D01*
X68877009Y-56313388D01*
X68849071Y-56172933D01*
X68794268Y-56040627D01*
X68714707Y-55921555D01*
X68613445Y-55820293D01*
X68494373Y-55740732D01*
X68362067Y-55685929D01*
X68221612Y-55657991D01*
X68078406Y-55657991D01*
X67937951Y-55685929D01*
X67805645Y-55740732D01*
X67686573Y-55820293D01*
X67585311Y-55921555D01*
X67505750Y-56040627D01*
X67450947Y-56172933D01*
X67423009Y-56313388D01*
X67423009Y-56331347D01*
X67296355Y-56458001D01*
X66178657Y-56458001D01*
X65977009Y-56256354D01*
X65977009Y-56238396D01*
X65949071Y-56097941D01*
X65894268Y-55965635D01*
X65814707Y-55846563D01*
X65713445Y-55745301D01*
X65594373Y-55665740D01*
X65462067Y-55610937D01*
X65321612Y-55582999D01*
X65178406Y-55582999D01*
X65037951Y-55610937D01*
X64905645Y-55665740D01*
X64786573Y-55745301D01*
X64685311Y-55846563D01*
X64634927Y-55921968D01*
X64561672Y-55745115D01*
X64421920Y-55535961D01*
X64244049Y-55358090D01*
X64034895Y-55218338D01*
X63802496Y-55122075D01*
X63590975Y-55080001D01*
X63802496Y-55037927D01*
X64034895Y-54941664D01*
X64244049Y-54801912D01*
X64421920Y-54624041D01*
X64561672Y-54414887D01*
X64657935Y-54182488D01*
X64707009Y-53935775D01*
X64707009Y-53684227D01*
X64657935Y-53437514D01*
X64561672Y-53205115D01*
X64421920Y-52995961D01*
X64244049Y-52818090D01*
X64034895Y-52678338D01*
X63802496Y-52582075D01*
X63636553Y-52549067D01*
X64280009Y-52549067D01*
X64363716Y-52540823D01*
X64444205Y-52516406D01*
X64518385Y-52476756D01*
X64583404Y-52423396D01*
X64636764Y-52358377D01*
X64676414Y-52284197D01*
X64700831Y-52203708D01*
X64709075Y-52120001D01*
X64709075Y-50452001D01*
X69770943Y-50452001D01*
X69770943Y-52120001D01*
G04 #@! TO.N,Board_3-GND*
G36*
X57610935Y-61740010D02*
G01*
X57619179Y-61823717D01*
X57643596Y-61904206D01*
X57683246Y-61978386D01*
X57736606Y-62043405D01*
X57801625Y-62096765D01*
X57875805Y-62136415D01*
X57956294Y-62160832D01*
X58040001Y-62169076D01*
X59708001Y-62169076D01*
X59708002Y-64982060D01*
X59704041Y-64978099D01*
X59494887Y-64838347D01*
X59262488Y-64742084D01*
X59015775Y-64693010D01*
X58764227Y-64693010D01*
X58517514Y-64742084D01*
X58285115Y-64838347D01*
X58075961Y-64978099D01*
X57898090Y-65155970D01*
X57758338Y-65365124D01*
X57662075Y-65597523D01*
X57613001Y-65844236D01*
X57613001Y-66095784D01*
X57662075Y-66342497D01*
X57758338Y-66574896D01*
X57898090Y-66784050D01*
X57902050Y-66788010D01*
X55987635Y-66788010D01*
X56043645Y-66732000D01*
X56061604Y-66732000D01*
X56202059Y-66704062D01*
X56334365Y-66649259D01*
X56453437Y-66569698D01*
X56554699Y-66468436D01*
X56634260Y-66349364D01*
X56689063Y-66217058D01*
X56717001Y-66076603D01*
X56717001Y-65933397D01*
X56689063Y-65792942D01*
X56634260Y-65660636D01*
X56554699Y-65541564D01*
X56453437Y-65440302D01*
X56334365Y-65360741D01*
X56202059Y-65305938D01*
X56061604Y-65278000D01*
X55918398Y-65278000D01*
X55777943Y-65305938D01*
X55645637Y-65360741D01*
X55526565Y-65440302D01*
X55425303Y-65541564D01*
X55345742Y-65660636D01*
X55290939Y-65792942D01*
X55263001Y-65933397D01*
X55263001Y-65951356D01*
X55136347Y-66078010D01*
X54018649Y-66078010D01*
X53817001Y-65876363D01*
X53817001Y-65858405D01*
X53789063Y-65717950D01*
X53734260Y-65585644D01*
X53654699Y-65466572D01*
X53553437Y-65365310D01*
X53434365Y-65285749D01*
X53302059Y-65230946D01*
X53161604Y-65203008D01*
X53018398Y-65203008D01*
X52877943Y-65230946D01*
X52745637Y-65285749D01*
X52626565Y-65365310D01*
X52525303Y-65466572D01*
X52474919Y-65541977D01*
X52401664Y-65365124D01*
X52261912Y-65155970D01*
X52084041Y-64978099D01*
X51874887Y-64838347D01*
X51642488Y-64742084D01*
X51430967Y-64700010D01*
X51642488Y-64657936D01*
X51874887Y-64561673D01*
X52084041Y-64421921D01*
X52261912Y-64244050D01*
X52401664Y-64034896D01*
X52497927Y-63802497D01*
X52547001Y-63555784D01*
X52547001Y-63304236D01*
X52497927Y-63057523D01*
X52401664Y-62825124D01*
X52261912Y-62615970D01*
X52084041Y-62438099D01*
X51874887Y-62298347D01*
X51642488Y-62202084D01*
X51476545Y-62169076D01*
X52120001Y-62169076D01*
X52203708Y-62160832D01*
X52284197Y-62136415D01*
X52358377Y-62096765D01*
X52423396Y-62043405D01*
X52476756Y-61978386D01*
X52516406Y-61904206D01*
X52540823Y-61823717D01*
X52549067Y-61740010D01*
X52549067Y-60072010D01*
X57610935Y-60072010D01*
X57610935Y-61740010D01*
X57610935Y-61740010D01*
G37*
X57610935Y-61740010D02*
X57619179Y-61823717D01*
X57643596Y-61904206D01*
X57683246Y-61978386D01*
X57736606Y-62043405D01*
X57801625Y-62096765D01*
X57875805Y-62136415D01*
X57956294Y-62160832D01*
X58040001Y-62169076D01*
X59708001Y-62169076D01*
X59708002Y-64982060D01*
X59704041Y-64978099D01*
X59494887Y-64838347D01*
X59262488Y-64742084D01*
X59015775Y-64693010D01*
X58764227Y-64693010D01*
X58517514Y-64742084D01*
X58285115Y-64838347D01*
X58075961Y-64978099D01*
X57898090Y-65155970D01*
X57758338Y-65365124D01*
X57662075Y-65597523D01*
X57613001Y-65844236D01*
X57613001Y-66095784D01*
X57662075Y-66342497D01*
X57758338Y-66574896D01*
X57898090Y-66784050D01*
X57902050Y-66788010D01*
X55987635Y-66788010D01*
X56043645Y-66732000D01*
X56061604Y-66732000D01*
X56202059Y-66704062D01*
X56334365Y-66649259D01*
X56453437Y-66569698D01*
X56554699Y-66468436D01*
X56634260Y-66349364D01*
X56689063Y-66217058D01*
X56717001Y-66076603D01*
X56717001Y-65933397D01*
X56689063Y-65792942D01*
X56634260Y-65660636D01*
X56554699Y-65541564D01*
X56453437Y-65440302D01*
X56334365Y-65360741D01*
X56202059Y-65305938D01*
X56061604Y-65278000D01*
X55918398Y-65278000D01*
X55777943Y-65305938D01*
X55645637Y-65360741D01*
X55526565Y-65440302D01*
X55425303Y-65541564D01*
X55345742Y-65660636D01*
X55290939Y-65792942D01*
X55263001Y-65933397D01*
X55263001Y-65951356D01*
X55136347Y-66078010D01*
X54018649Y-66078010D01*
X53817001Y-65876363D01*
X53817001Y-65858405D01*
X53789063Y-65717950D01*
X53734260Y-65585644D01*
X53654699Y-65466572D01*
X53553437Y-65365310D01*
X53434365Y-65285749D01*
X53302059Y-65230946D01*
X53161604Y-65203008D01*
X53018398Y-65203008D01*
X52877943Y-65230946D01*
X52745637Y-65285749D01*
X52626565Y-65365310D01*
X52525303Y-65466572D01*
X52474919Y-65541977D01*
X52401664Y-65365124D01*
X52261912Y-65155970D01*
X52084041Y-64978099D01*
X51874887Y-64838347D01*
X51642488Y-64742084D01*
X51430967Y-64700010D01*
X51642488Y-64657936D01*
X51874887Y-64561673D01*
X52084041Y-64421921D01*
X52261912Y-64244050D01*
X52401664Y-64034896D01*
X52497927Y-63802497D01*
X52547001Y-63555784D01*
X52547001Y-63304236D01*
X52497927Y-63057523D01*
X52401664Y-62825124D01*
X52261912Y-62615970D01*
X52084041Y-62438099D01*
X51874887Y-62298347D01*
X51642488Y-62202084D01*
X51476545Y-62169076D01*
X52120001Y-62169076D01*
X52203708Y-62160832D01*
X52284197Y-62136415D01*
X52358377Y-62096765D01*
X52423396Y-62043405D01*
X52476756Y-61978386D01*
X52516406Y-61904206D01*
X52540823Y-61823717D01*
X52549067Y-61740010D01*
X52549067Y-60072010D01*
X57610935Y-60072010D01*
X57610935Y-61740010D01*
G04 #@! TO.N,Board_4-GND*
G36*
X69770943Y-61740010D02*
G01*
X69779187Y-61823717D01*
X69803604Y-61904206D01*
X69843254Y-61978386D01*
X69896614Y-62043405D01*
X69961633Y-62096765D01*
X70035813Y-62136415D01*
X70116302Y-62160832D01*
X70200009Y-62169076D01*
X71868009Y-62169076D01*
X71868010Y-64982060D01*
X71864049Y-64978099D01*
X71654895Y-64838347D01*
X71422496Y-64742084D01*
X71175783Y-64693010D01*
X70924235Y-64693010D01*
X70677522Y-64742084D01*
X70445123Y-64838347D01*
X70235969Y-64978099D01*
X70058098Y-65155970D01*
X69918346Y-65365124D01*
X69822083Y-65597523D01*
X69773009Y-65844236D01*
X69773009Y-66095784D01*
X69822083Y-66342497D01*
X69918346Y-66574896D01*
X70058098Y-66784050D01*
X70062058Y-66788010D01*
X68147643Y-66788010D01*
X68203653Y-66732000D01*
X68221612Y-66732000D01*
X68362067Y-66704062D01*
X68494373Y-66649259D01*
X68613445Y-66569698D01*
X68714707Y-66468436D01*
X68794268Y-66349364D01*
X68849071Y-66217058D01*
X68877009Y-66076603D01*
X68877009Y-65933397D01*
X68849071Y-65792942D01*
X68794268Y-65660636D01*
X68714707Y-65541564D01*
X68613445Y-65440302D01*
X68494373Y-65360741D01*
X68362067Y-65305938D01*
X68221612Y-65278000D01*
X68078406Y-65278000D01*
X67937951Y-65305938D01*
X67805645Y-65360741D01*
X67686573Y-65440302D01*
X67585311Y-65541564D01*
X67505750Y-65660636D01*
X67450947Y-65792942D01*
X67423009Y-65933397D01*
X67423009Y-65951356D01*
X67296355Y-66078010D01*
X66178657Y-66078010D01*
X65977009Y-65876363D01*
X65977009Y-65858405D01*
X65949071Y-65717950D01*
X65894268Y-65585644D01*
X65814707Y-65466572D01*
X65713445Y-65365310D01*
X65594373Y-65285749D01*
X65462067Y-65230946D01*
X65321612Y-65203008D01*
X65178406Y-65203008D01*
X65037951Y-65230946D01*
X64905645Y-65285749D01*
X64786573Y-65365310D01*
X64685311Y-65466572D01*
X64634927Y-65541977D01*
X64561672Y-65365124D01*
X64421920Y-65155970D01*
X64244049Y-64978099D01*
X64034895Y-64838347D01*
X63802496Y-64742084D01*
X63590975Y-64700010D01*
X63802496Y-64657936D01*
X64034895Y-64561673D01*
X64244049Y-64421921D01*
X64421920Y-64244050D01*
X64561672Y-64034896D01*
X64657935Y-63802497D01*
X64707009Y-63555784D01*
X64707009Y-63304236D01*
X64657935Y-63057523D01*
X64561672Y-62825124D01*
X64421920Y-62615970D01*
X64244049Y-62438099D01*
X64034895Y-62298347D01*
X63802496Y-62202084D01*
X63636553Y-62169076D01*
X64280009Y-62169076D01*
X64363716Y-62160832D01*
X64444205Y-62136415D01*
X64518385Y-62096765D01*
X64583404Y-62043405D01*
X64636764Y-61978386D01*
X64676414Y-61904206D01*
X64700831Y-61823717D01*
X64709075Y-61740010D01*
X64709075Y-60072010D01*
X69770943Y-60072010D01*
X69770943Y-61740010D01*
X69770943Y-61740010D01*
G37*
X69770943Y-61740010D02*
X69779187Y-61823717D01*
X69803604Y-61904206D01*
X69843254Y-61978386D01*
X69896614Y-62043405D01*
X69961633Y-62096765D01*
X70035813Y-62136415D01*
X70116302Y-62160832D01*
X70200009Y-62169076D01*
X71868009Y-62169076D01*
X71868010Y-64982060D01*
X71864049Y-64978099D01*
X71654895Y-64838347D01*
X71422496Y-64742084D01*
X71175783Y-64693010D01*
X70924235Y-64693010D01*
X70677522Y-64742084D01*
X70445123Y-64838347D01*
X70235969Y-64978099D01*
X70058098Y-65155970D01*
X69918346Y-65365124D01*
X69822083Y-65597523D01*
X69773009Y-65844236D01*
X69773009Y-66095784D01*
X69822083Y-66342497D01*
X69918346Y-66574896D01*
X70058098Y-66784050D01*
X70062058Y-66788010D01*
X68147643Y-66788010D01*
X68203653Y-66732000D01*
X68221612Y-66732000D01*
X68362067Y-66704062D01*
X68494373Y-66649259D01*
X68613445Y-66569698D01*
X68714707Y-66468436D01*
X68794268Y-66349364D01*
X68849071Y-66217058D01*
X68877009Y-66076603D01*
X68877009Y-65933397D01*
X68849071Y-65792942D01*
X68794268Y-65660636D01*
X68714707Y-65541564D01*
X68613445Y-65440302D01*
X68494373Y-65360741D01*
X68362067Y-65305938D01*
X68221612Y-65278000D01*
X68078406Y-65278000D01*
X67937951Y-65305938D01*
X67805645Y-65360741D01*
X67686573Y-65440302D01*
X67585311Y-65541564D01*
X67505750Y-65660636D01*
X67450947Y-65792942D01*
X67423009Y-65933397D01*
X67423009Y-65951356D01*
X67296355Y-66078010D01*
X66178657Y-66078010D01*
X65977009Y-65876363D01*
X65977009Y-65858405D01*
X65949071Y-65717950D01*
X65894268Y-65585644D01*
X65814707Y-65466572D01*
X65713445Y-65365310D01*
X65594373Y-65285749D01*
X65462067Y-65230946D01*
X65321612Y-65203008D01*
X65178406Y-65203008D01*
X65037951Y-65230946D01*
X64905645Y-65285749D01*
X64786573Y-65365310D01*
X64685311Y-65466572D01*
X64634927Y-65541977D01*
X64561672Y-65365124D01*
X64421920Y-65155970D01*
X64244049Y-64978099D01*
X64034895Y-64838347D01*
X63802496Y-64742084D01*
X63590975Y-64700010D01*
X63802496Y-64657936D01*
X64034895Y-64561673D01*
X64244049Y-64421921D01*
X64421920Y-64244050D01*
X64561672Y-64034896D01*
X64657935Y-63802497D01*
X64707009Y-63555784D01*
X64707009Y-63304236D01*
X64657935Y-63057523D01*
X64561672Y-62825124D01*
X64421920Y-62615970D01*
X64244049Y-62438099D01*
X64034895Y-62298347D01*
X63802496Y-62202084D01*
X63636553Y-62169076D01*
X64280009Y-62169076D01*
X64363716Y-62160832D01*
X64444205Y-62136415D01*
X64518385Y-62096765D01*
X64583404Y-62043405D01*
X64636764Y-61978386D01*
X64676414Y-61904206D01*
X64700831Y-61823717D01*
X64709075Y-61740010D01*
X64709075Y-60072010D01*
X69770943Y-60072010D01*
X69770943Y-61740010D01*
G04 #@! TD*
M02*
