G04 #@! TF.GenerationSoftware,KiCad,Pcbnew,5.1.4+dfsg1-1*
G04 #@! TF.CreationDate,2020-12-01T08:27:42+00:00*
G04 #@! TF.ProjectId,panel,70616e65-6c2e-46b6-9963-61645f706362,rev?*
G04 #@! TF.SameCoordinates,Original*
G04 #@! TF.FileFunction,Legend,Bot*
G04 #@! TF.FilePolarity,Positive*
%FSLAX46Y46*%
G04 Gerber Fmt 4.6, Leading zero omitted, Abs format (unit mm)*
G04 Created by KiCad (PCBNEW 5.1.4+dfsg1-1) date 2020-12-01 08:27:42*
%MOMM*%
%LPD*%
G04 APERTURE LIST*
%ADD10C,0.153000*%
G04 APERTURE END LIST*
D10*
X67808604Y-65169822D02*
X68227651Y-65117441D01*
X68303842Y-65146012D01*
X68341937Y-65217441D01*
X68341937Y-65369822D01*
X68303842Y-65450774D01*
X67846699Y-65165060D02*
X67808604Y-65246012D01*
X67808604Y-65436488D01*
X67846699Y-65507917D01*
X67922889Y-65536488D01*
X67999080Y-65526965D01*
X68075270Y-65479346D01*
X68113366Y-65398393D01*
X68113366Y-65207917D01*
X68151461Y-65126965D01*
X67846699Y-64441250D02*
X67808604Y-64522203D01*
X67808604Y-64674584D01*
X67846699Y-64746012D01*
X67884794Y-64779346D01*
X67960985Y-64807917D01*
X68189556Y-64779346D01*
X68265747Y-64731726D01*
X68303842Y-64688869D01*
X68341937Y-64607917D01*
X68341937Y-64455536D01*
X68303842Y-64384107D01*
X67846699Y-63755536D02*
X67808604Y-63836488D01*
X67808604Y-63988869D01*
X67846699Y-64060298D01*
X67884794Y-64093631D01*
X67960985Y-64122203D01*
X68189556Y-64093631D01*
X68265747Y-64046012D01*
X68303842Y-64003155D01*
X68341937Y-63922203D01*
X68341937Y-63769822D01*
X68303842Y-63698393D01*
X67846699Y-63107917D02*
X67808604Y-63188869D01*
X67808604Y-63341250D01*
X67846699Y-63412679D01*
X67922889Y-63441250D01*
X68227651Y-63403155D01*
X68303842Y-63355536D01*
X68341937Y-63274584D01*
X68341937Y-63122203D01*
X68303842Y-63050774D01*
X68227651Y-63022203D01*
X68151461Y-63031726D01*
X68075270Y-63422203D01*
X67808604Y-62617441D02*
X67846699Y-62688869D01*
X67922889Y-62717441D01*
X68608604Y-62631726D01*
X67846699Y-62003155D02*
X67808604Y-62084107D01*
X67808604Y-62236488D01*
X67846699Y-62307917D01*
X67922889Y-62336488D01*
X68227651Y-62298393D01*
X68303842Y-62250774D01*
X68341937Y-62169822D01*
X68341937Y-62017441D01*
X68303842Y-61946012D01*
X68227651Y-61917441D01*
X68151461Y-61926965D01*
X68075270Y-62317441D01*
X67808604Y-61626965D02*
X68341937Y-61560298D01*
X68189556Y-61579346D02*
X68265747Y-61531726D01*
X68303842Y-61488869D01*
X68341937Y-61407917D01*
X68341937Y-61331726D01*
X66455604Y-64179346D02*
X66874651Y-64126965D01*
X66950842Y-64155536D01*
X66988937Y-64226965D01*
X66988937Y-64379346D01*
X66950842Y-64460298D01*
X66493699Y-64174584D02*
X66455604Y-64255536D01*
X66455604Y-64446012D01*
X66493699Y-64517441D01*
X66569889Y-64546012D01*
X66646080Y-64536488D01*
X66722270Y-64488869D01*
X66760366Y-64407917D01*
X66760366Y-64217441D01*
X66798461Y-64136488D01*
X66988937Y-63807917D02*
X66455604Y-63722203D01*
X66836556Y-63522203D01*
X66455604Y-63417441D01*
X66988937Y-63198393D01*
X66988937Y-62969822D02*
X66455604Y-62884107D01*
X66836556Y-62684107D01*
X66455604Y-62579346D01*
X66988937Y-62360298D01*
X55648596Y-65169822D02*
X56067643Y-65117441D01*
X56143834Y-65146012D01*
X56181929Y-65217441D01*
X56181929Y-65369822D01*
X56143834Y-65450774D01*
X55686691Y-65165060D02*
X55648596Y-65246012D01*
X55648596Y-65436488D01*
X55686691Y-65507917D01*
X55762881Y-65536488D01*
X55839072Y-65526965D01*
X55915262Y-65479346D01*
X55953358Y-65398393D01*
X55953358Y-65207917D01*
X55991453Y-65126965D01*
X55686691Y-64441250D02*
X55648596Y-64522203D01*
X55648596Y-64674584D01*
X55686691Y-64746012D01*
X55724786Y-64779346D01*
X55800977Y-64807917D01*
X56029548Y-64779346D01*
X56105739Y-64731726D01*
X56143834Y-64688869D01*
X56181929Y-64607917D01*
X56181929Y-64455536D01*
X56143834Y-64384107D01*
X55686691Y-63755536D02*
X55648596Y-63836488D01*
X55648596Y-63988869D01*
X55686691Y-64060298D01*
X55724786Y-64093631D01*
X55800977Y-64122203D01*
X56029548Y-64093631D01*
X56105739Y-64046012D01*
X56143834Y-64003155D01*
X56181929Y-63922203D01*
X56181929Y-63769822D01*
X56143834Y-63698393D01*
X55686691Y-63107917D02*
X55648596Y-63188869D01*
X55648596Y-63341250D01*
X55686691Y-63412679D01*
X55762881Y-63441250D01*
X56067643Y-63403155D01*
X56143834Y-63355536D01*
X56181929Y-63274584D01*
X56181929Y-63122203D01*
X56143834Y-63050774D01*
X56067643Y-63022203D01*
X55991453Y-63031726D01*
X55915262Y-63422203D01*
X55648596Y-62617441D02*
X55686691Y-62688869D01*
X55762881Y-62717441D01*
X56448596Y-62631726D01*
X55686691Y-62003155D02*
X55648596Y-62084107D01*
X55648596Y-62236488D01*
X55686691Y-62307917D01*
X55762881Y-62336488D01*
X56067643Y-62298393D01*
X56143834Y-62250774D01*
X56181929Y-62169822D01*
X56181929Y-62017441D01*
X56143834Y-61946012D01*
X56067643Y-61917441D01*
X55991453Y-61926965D01*
X55915262Y-62317441D01*
X55648596Y-61626965D02*
X56181929Y-61560298D01*
X56029548Y-61579346D02*
X56105739Y-61531726D01*
X56143834Y-61488869D01*
X56181929Y-61407917D01*
X56181929Y-61331726D01*
X54295596Y-64179346D02*
X54714643Y-64126965D01*
X54790834Y-64155536D01*
X54828929Y-64226965D01*
X54828929Y-64379346D01*
X54790834Y-64460298D01*
X54333691Y-64174584D02*
X54295596Y-64255536D01*
X54295596Y-64446012D01*
X54333691Y-64517441D01*
X54409881Y-64546012D01*
X54486072Y-64536488D01*
X54562262Y-64488869D01*
X54600358Y-64407917D01*
X54600358Y-64217441D01*
X54638453Y-64136488D01*
X54828929Y-63807917D02*
X54295596Y-63722203D01*
X54676548Y-63522203D01*
X54295596Y-63417441D01*
X54828929Y-63198393D01*
X54828929Y-62969822D02*
X54295596Y-62884107D01*
X54676548Y-62684107D01*
X54295596Y-62579346D01*
X54828929Y-62360298D01*
X67808604Y-55549813D02*
X68227651Y-55497432D01*
X68303842Y-55526003D01*
X68341937Y-55597432D01*
X68341937Y-55749813D01*
X68303842Y-55830765D01*
X67846699Y-55545051D02*
X67808604Y-55626003D01*
X67808604Y-55816479D01*
X67846699Y-55887908D01*
X67922889Y-55916479D01*
X67999080Y-55906956D01*
X68075270Y-55859337D01*
X68113366Y-55778384D01*
X68113366Y-55587908D01*
X68151461Y-55506956D01*
X67846699Y-54821241D02*
X67808604Y-54902194D01*
X67808604Y-55054575D01*
X67846699Y-55126003D01*
X67884794Y-55159337D01*
X67960985Y-55187908D01*
X68189556Y-55159337D01*
X68265747Y-55111717D01*
X68303842Y-55068860D01*
X68341937Y-54987908D01*
X68341937Y-54835527D01*
X68303842Y-54764098D01*
X67846699Y-54135527D02*
X67808604Y-54216479D01*
X67808604Y-54368860D01*
X67846699Y-54440289D01*
X67884794Y-54473622D01*
X67960985Y-54502194D01*
X68189556Y-54473622D01*
X68265747Y-54426003D01*
X68303842Y-54383146D01*
X68341937Y-54302194D01*
X68341937Y-54149813D01*
X68303842Y-54078384D01*
X67846699Y-53487908D02*
X67808604Y-53568860D01*
X67808604Y-53721241D01*
X67846699Y-53792670D01*
X67922889Y-53821241D01*
X68227651Y-53783146D01*
X68303842Y-53735527D01*
X68341937Y-53654575D01*
X68341937Y-53502194D01*
X68303842Y-53430765D01*
X68227651Y-53402194D01*
X68151461Y-53411717D01*
X68075270Y-53802194D01*
X67808604Y-52997432D02*
X67846699Y-53068860D01*
X67922889Y-53097432D01*
X68608604Y-53011717D01*
X67846699Y-52383146D02*
X67808604Y-52464098D01*
X67808604Y-52616479D01*
X67846699Y-52687908D01*
X67922889Y-52716479D01*
X68227651Y-52678384D01*
X68303842Y-52630765D01*
X68341937Y-52549813D01*
X68341937Y-52397432D01*
X68303842Y-52326003D01*
X68227651Y-52297432D01*
X68151461Y-52306956D01*
X68075270Y-52697432D01*
X67808604Y-52006956D02*
X68341937Y-51940289D01*
X68189556Y-51959337D02*
X68265747Y-51911717D01*
X68303842Y-51868860D01*
X68341937Y-51787908D01*
X68341937Y-51711717D01*
X66455604Y-54559337D02*
X66874651Y-54506956D01*
X66950842Y-54535527D01*
X66988937Y-54606956D01*
X66988937Y-54759337D01*
X66950842Y-54840289D01*
X66493699Y-54554575D02*
X66455604Y-54635527D01*
X66455604Y-54826003D01*
X66493699Y-54897432D01*
X66569889Y-54926003D01*
X66646080Y-54916479D01*
X66722270Y-54868860D01*
X66760366Y-54787908D01*
X66760366Y-54597432D01*
X66798461Y-54516479D01*
X66988937Y-54187908D02*
X66455604Y-54102194D01*
X66836556Y-53902194D01*
X66455604Y-53797432D01*
X66988937Y-53578384D01*
X66988937Y-53349813D02*
X66455604Y-53264098D01*
X66836556Y-53064098D01*
X66455604Y-52959337D01*
X66988937Y-52740289D01*
X55648596Y-55549813D02*
X56067643Y-55497432D01*
X56143834Y-55526003D01*
X56181929Y-55597432D01*
X56181929Y-55749813D01*
X56143834Y-55830765D01*
X55686691Y-55545051D02*
X55648596Y-55626003D01*
X55648596Y-55816479D01*
X55686691Y-55887908D01*
X55762881Y-55916479D01*
X55839072Y-55906956D01*
X55915262Y-55859337D01*
X55953358Y-55778384D01*
X55953358Y-55587908D01*
X55991453Y-55506956D01*
X55686691Y-54821241D02*
X55648596Y-54902194D01*
X55648596Y-55054575D01*
X55686691Y-55126003D01*
X55724786Y-55159337D01*
X55800977Y-55187908D01*
X56029548Y-55159337D01*
X56105739Y-55111717D01*
X56143834Y-55068860D01*
X56181929Y-54987908D01*
X56181929Y-54835527D01*
X56143834Y-54764098D01*
X55686691Y-54135527D02*
X55648596Y-54216479D01*
X55648596Y-54368860D01*
X55686691Y-54440289D01*
X55724786Y-54473622D01*
X55800977Y-54502194D01*
X56029548Y-54473622D01*
X56105739Y-54426003D01*
X56143834Y-54383146D01*
X56181929Y-54302194D01*
X56181929Y-54149813D01*
X56143834Y-54078384D01*
X55686691Y-53487908D02*
X55648596Y-53568860D01*
X55648596Y-53721241D01*
X55686691Y-53792670D01*
X55762881Y-53821241D01*
X56067643Y-53783146D01*
X56143834Y-53735527D01*
X56181929Y-53654575D01*
X56181929Y-53502194D01*
X56143834Y-53430765D01*
X56067643Y-53402194D01*
X55991453Y-53411717D01*
X55915262Y-53802194D01*
X55648596Y-52997432D02*
X55686691Y-53068860D01*
X55762881Y-53097432D01*
X56448596Y-53011717D01*
X55686691Y-52383146D02*
X55648596Y-52464098D01*
X55648596Y-52616479D01*
X55686691Y-52687908D01*
X55762881Y-52716479D01*
X56067643Y-52678384D01*
X56143834Y-52630765D01*
X56181929Y-52549813D01*
X56181929Y-52397432D01*
X56143834Y-52326003D01*
X56067643Y-52297432D01*
X55991453Y-52306956D01*
X55915262Y-52697432D01*
X55648596Y-52006956D02*
X56181929Y-51940289D01*
X56029548Y-51959337D02*
X56105739Y-51911717D01*
X56143834Y-51868860D01*
X56181929Y-51787908D01*
X56181929Y-51711717D01*
X54295596Y-54559337D02*
X54714643Y-54506956D01*
X54790834Y-54535527D01*
X54828929Y-54606956D01*
X54828929Y-54759337D01*
X54790834Y-54840289D01*
X54333691Y-54554575D02*
X54295596Y-54635527D01*
X54295596Y-54826003D01*
X54333691Y-54897432D01*
X54409881Y-54926003D01*
X54486072Y-54916479D01*
X54562262Y-54868860D01*
X54600358Y-54787908D01*
X54600358Y-54597432D01*
X54638453Y-54516479D01*
X54828929Y-54187908D02*
X54295596Y-54102194D01*
X54676548Y-53902194D01*
X54295596Y-53797432D01*
X54828929Y-53578384D01*
X54828929Y-53349813D02*
X54295596Y-53264098D01*
X54676548Y-53064098D01*
X54295596Y-52959337D01*
X54828929Y-52740289D01*
M02*
