G04 #@! TF.GenerationSoftware,KiCad,Pcbnew,5.1.4+dfsg1-1*
G04 #@! TF.CreationDate,2020-12-01T08:27:43+00:00*
G04 #@! TF.ProjectId,panel,70616e65-6c2e-46b6-9963-61645f706362,rev?*
G04 #@! TF.SameCoordinates,Original*
G04 #@! TF.FileFunction,Profile,NP*
%FSLAX46Y46*%
G04 Gerber Fmt 4.6, Leading zero omitted, Abs format (unit mm)*
G04 Created by KiCad (PCBNEW 5.1.4+dfsg1-1) date 2020-12-01 08:27:43*
%MOMM*%
%LPD*%
G04 APERTURE LIST*
%ADD10C,0.100000*%
G04 APERTURE END LIST*
D10*
X49000200Y-48010000D02*
X51588800Y-48010000D01*
X48903000Y-48014800D02*
X49000200Y-48010000D01*
X48806900Y-48029000D02*
X48903000Y-48014800D01*
X48712600Y-48052600D02*
X48806900Y-48029000D01*
X48621100Y-48085400D02*
X48712600Y-48052600D01*
X48533300Y-48126900D02*
X48621100Y-48085400D01*
X48450000Y-48176900D02*
X48533300Y-48126900D01*
X48372000Y-48234700D02*
X48450000Y-48176900D01*
X48300000Y-48300000D02*
X48372000Y-48234700D01*
X48234700Y-48372000D02*
X48300000Y-48300000D01*
X48176900Y-48450000D02*
X48234700Y-48372000D01*
X48126900Y-48533300D02*
X48176900Y-48450000D01*
X48085400Y-48621100D02*
X48126900Y-48533300D01*
X48052600Y-48712600D02*
X48085400Y-48621100D01*
X48029000Y-48806900D02*
X48052600Y-48712600D01*
X48014800Y-48903000D02*
X48029000Y-48806900D01*
X48010000Y-49000200D02*
X48014800Y-48903000D01*
X48010000Y-68239800D02*
X48010000Y-49000200D01*
X48014800Y-68337100D02*
X48010000Y-68239800D01*
X48029000Y-68433200D02*
X48014800Y-68337100D01*
X48052600Y-68527400D02*
X48029000Y-68433200D01*
X48085400Y-68618900D02*
X48052600Y-68527400D01*
X48126900Y-68706700D02*
X48085400Y-68618900D01*
X48176900Y-68790000D02*
X48126900Y-68706700D01*
X48234700Y-68868100D02*
X48176900Y-68790000D01*
X48300000Y-68940000D02*
X48234700Y-68868100D01*
X48372000Y-69005300D02*
X48300000Y-68940000D01*
X48450000Y-69063200D02*
X48372000Y-69005300D01*
X48533300Y-69113100D02*
X48450000Y-69063200D01*
X48621100Y-69154600D02*
X48533300Y-69113100D01*
X48712600Y-69187400D02*
X48621100Y-69154600D01*
X48806900Y-69211000D02*
X48712600Y-69187400D01*
X48903000Y-69225200D02*
X48806900Y-69211000D01*
X49000200Y-69230000D02*
X48903000Y-69225200D01*
X51588800Y-69230000D02*
X49000200Y-69230000D01*
X51686000Y-69225200D02*
X51588800Y-69230000D01*
X51782100Y-69211000D02*
X51686000Y-69225200D01*
X51876400Y-69187400D02*
X51782100Y-69211000D01*
X51967900Y-69154600D02*
X51876400Y-69187400D01*
X52055700Y-69113100D02*
X51967900Y-69154600D01*
X52139000Y-69063200D02*
X52055700Y-69113100D01*
X52217000Y-69005300D02*
X52139000Y-69063200D01*
X52289000Y-68940000D02*
X52217000Y-69005300D01*
X52354300Y-68868100D02*
X52289000Y-68940000D01*
X52412100Y-68790000D02*
X52354300Y-68868100D01*
X52462100Y-68706700D02*
X52412100Y-68790000D01*
X52503600Y-68618900D02*
X52462100Y-68706700D01*
X52536400Y-68527400D02*
X52503600Y-68618900D01*
X52560000Y-68433200D02*
X52536400Y-68527400D01*
X52574200Y-68337100D02*
X52560000Y-68433200D01*
X52579000Y-68231300D02*
X52574200Y-68337100D01*
X52574200Y-68134000D02*
X52579000Y-68231300D01*
X52560000Y-68037900D02*
X52574200Y-68134000D01*
X52536400Y-67943600D02*
X52560000Y-68037900D01*
X52503600Y-67852200D02*
X52536400Y-67943600D01*
X52462100Y-67764300D02*
X52503600Y-67852200D01*
X52412100Y-67681000D02*
X52462100Y-67764300D01*
X52354300Y-67603000D02*
X52412100Y-67681000D01*
X52289000Y-67531000D02*
X52354300Y-67603000D01*
X52217000Y-67465700D02*
X52289000Y-67531000D01*
X52139000Y-67407900D02*
X52217000Y-67465700D01*
X52055700Y-67357900D02*
X52139000Y-67407900D01*
X51967900Y-67316400D02*
X52055700Y-67357900D01*
X51876400Y-67283600D02*
X51967900Y-67316400D01*
X51782100Y-67260000D02*
X51876400Y-67283600D01*
X51686000Y-67245800D02*
X51782100Y-67260000D01*
X51588800Y-67241000D02*
X51686000Y-67245800D01*
X50508100Y-67240900D02*
X51588800Y-67241000D01*
X50455100Y-67237900D02*
X50508100Y-67240900D01*
X50415200Y-67231900D02*
X50455100Y-67237900D01*
X50351000Y-67215800D02*
X50415200Y-67231900D01*
X50289300Y-67191000D02*
X50351000Y-67215800D01*
X50253400Y-67172400D02*
X50289300Y-67191000D01*
X50209200Y-67143700D02*
X50253400Y-67172400D01*
X50158100Y-67101000D02*
X50209200Y-67143700D01*
X50129800Y-67072200D02*
X50158100Y-67101000D01*
X50096600Y-67031200D02*
X50129800Y-67072200D01*
X50061200Y-66974800D02*
X50096600Y-67031200D01*
X50043200Y-66938600D02*
X50061200Y-66974800D01*
X50024300Y-66889400D02*
X50043200Y-66938600D01*
X50008100Y-66824900D02*
X50024300Y-66889400D01*
X50002100Y-66784900D02*
X50008100Y-66824900D01*
X49999300Y-66738600D02*
X50002100Y-66784900D01*
X49999000Y-60134600D02*
X49999300Y-66738600D01*
X50001100Y-60087700D02*
X49999000Y-60134600D01*
X50003800Y-60061800D02*
X50001100Y-60087700D01*
X50010500Y-60022000D02*
X50003800Y-60061800D01*
X50024200Y-59971100D02*
X50010500Y-60022000D01*
X50043400Y-59920900D02*
X50024200Y-59971100D01*
X50074400Y-59862500D02*
X50043400Y-59920900D01*
X50096400Y-59829200D02*
X50074400Y-59862500D01*
X50121500Y-59797700D02*
X50096400Y-59829200D01*
X50167500Y-59750200D02*
X50121500Y-59797700D01*
X50209300Y-59716300D02*
X50167500Y-59750200D01*
X50265200Y-59681200D02*
X50209300Y-59716300D01*
X50300900Y-59663400D02*
X50265200Y-59681200D01*
X50338400Y-59648600D02*
X50300900Y-59663400D01*
X50402000Y-59630500D02*
X50338400Y-59648600D01*
X50455100Y-59622100D02*
X50402000Y-59630500D01*
X50514400Y-59619000D02*
X50455100Y-59622100D01*
X51588800Y-59619000D02*
X50514400Y-59619000D01*
X51686000Y-59614200D02*
X51588800Y-59619000D01*
X51782100Y-59600000D02*
X51686000Y-59614200D01*
X51876400Y-59576400D02*
X51782100Y-59600000D01*
X51967900Y-59543600D02*
X51876400Y-59576400D01*
X52055700Y-59502100D02*
X51967900Y-59543600D01*
X52139000Y-59452100D02*
X52055700Y-59502100D01*
X52217000Y-59394300D02*
X52139000Y-59452100D01*
X52289000Y-59329000D02*
X52217000Y-59394300D01*
X52354300Y-59257000D02*
X52289000Y-59329000D01*
X52412100Y-59179000D02*
X52354300Y-59257000D01*
X52462100Y-59095700D02*
X52412100Y-59179000D01*
X52503600Y-59007900D02*
X52462100Y-59095700D01*
X52536400Y-58916400D02*
X52503600Y-59007900D01*
X52560000Y-58822100D02*
X52536400Y-58916400D01*
X52574200Y-58726000D02*
X52560000Y-58822100D01*
X52579000Y-58628800D02*
X52574200Y-58726000D01*
X52574200Y-58514000D02*
X52579000Y-58628800D01*
X52560000Y-58417900D02*
X52574200Y-58514000D01*
X52536400Y-58323600D02*
X52560000Y-58417900D01*
X52503600Y-58232100D02*
X52536400Y-58323600D01*
X52462100Y-58144300D02*
X52503600Y-58232100D01*
X52412100Y-58061000D02*
X52462100Y-58144300D01*
X52354300Y-57983000D02*
X52412100Y-58061000D01*
X52289000Y-57911000D02*
X52354300Y-57983000D01*
X52217000Y-57845700D02*
X52289000Y-57911000D01*
X52139000Y-57787900D02*
X52217000Y-57845700D01*
X52055700Y-57737900D02*
X52139000Y-57787900D01*
X51967900Y-57696400D02*
X52055700Y-57737900D01*
X51876400Y-57663600D02*
X51967900Y-57696400D01*
X51782100Y-57640000D02*
X51876400Y-57663600D01*
X51686000Y-57625800D02*
X51782100Y-57640000D01*
X51588800Y-57621000D02*
X51686000Y-57625800D01*
X50508100Y-57620900D02*
X51588800Y-57621000D01*
X50441800Y-57616200D02*
X50508100Y-57620900D01*
X50402000Y-57609500D02*
X50441800Y-57616200D01*
X50363200Y-57599400D02*
X50402000Y-57609500D01*
X50338400Y-57591400D02*
X50363200Y-57599400D01*
X50289500Y-57571100D02*
X50338400Y-57591400D01*
X50253900Y-57552600D02*
X50289500Y-57571100D01*
X50219900Y-57531000D02*
X50253900Y-57552600D01*
X50167800Y-57490200D02*
X50219900Y-57531000D01*
X50121500Y-57442400D02*
X50167800Y-57490200D01*
X50096600Y-57411200D02*
X50121500Y-57442400D01*
X50074400Y-57377500D02*
X50096600Y-57411200D01*
X50043200Y-57318600D02*
X50074400Y-57377500D01*
X50024300Y-57269400D02*
X50043200Y-57318600D01*
X50013500Y-57230500D02*
X50024300Y-57269400D01*
X50002100Y-57164900D02*
X50013500Y-57230500D01*
X49999000Y-57105500D02*
X50002100Y-57164900D01*
X49999000Y-50514600D02*
X49999000Y-57105500D01*
X50001100Y-50467700D02*
X49999000Y-50514600D01*
X50003800Y-50441800D02*
X50001100Y-50467700D01*
X50010500Y-50402000D02*
X50003800Y-50441800D01*
X50024200Y-50351000D02*
X50010500Y-50402000D01*
X50043400Y-50300900D02*
X50024200Y-50351000D01*
X50074400Y-50242500D02*
X50043400Y-50300900D01*
X50096400Y-50209200D02*
X50074400Y-50242500D01*
X50121500Y-50177600D02*
X50096400Y-50209200D01*
X50167500Y-50130200D02*
X50121500Y-50177600D01*
X50209300Y-50096300D02*
X50167500Y-50130200D01*
X50265200Y-50061200D02*
X50209300Y-50096300D01*
X50300900Y-50043400D02*
X50265200Y-50061200D01*
X50338400Y-50028600D02*
X50300900Y-50043400D01*
X50402000Y-50010500D02*
X50338400Y-50028600D01*
X50455100Y-50002100D02*
X50402000Y-50010500D01*
X50514400Y-49999000D02*
X50455100Y-50002100D01*
X51588800Y-49999000D02*
X50514400Y-49999000D01*
X51686000Y-49994200D02*
X51588800Y-49999000D01*
X51782100Y-49980000D02*
X51686000Y-49994200D01*
X51876400Y-49956400D02*
X51782100Y-49980000D01*
X51967900Y-49923600D02*
X51876400Y-49956400D01*
X52055700Y-49882100D02*
X51967900Y-49923600D01*
X52139000Y-49832100D02*
X52055700Y-49882100D01*
X52217000Y-49774300D02*
X52139000Y-49832100D01*
X52289000Y-49709000D02*
X52217000Y-49774300D01*
X52354300Y-49637000D02*
X52289000Y-49709000D01*
X52412100Y-49559000D02*
X52354300Y-49637000D01*
X52462100Y-49475700D02*
X52412100Y-49559000D01*
X52503600Y-49387900D02*
X52462100Y-49475700D01*
X52536400Y-49296400D02*
X52503600Y-49387900D01*
X52560000Y-49202100D02*
X52536400Y-49296400D01*
X52574200Y-49106000D02*
X52560000Y-49202100D01*
X52579000Y-49008800D02*
X52574200Y-49106000D01*
X52574200Y-48903000D02*
X52579000Y-49008800D01*
X52560000Y-48806900D02*
X52574200Y-48903000D01*
X52536400Y-48712600D02*
X52560000Y-48806900D01*
X52503600Y-48621100D02*
X52536400Y-48712600D01*
X52462100Y-48533300D02*
X52503600Y-48621100D01*
X52412100Y-48450000D02*
X52462100Y-48533300D01*
X52354300Y-48372000D02*
X52412100Y-48450000D01*
X52289000Y-48300000D02*
X52354300Y-48372000D01*
X52217000Y-48234700D02*
X52289000Y-48300000D01*
X52139000Y-48176900D02*
X52217000Y-48234700D01*
X52055700Y-48126900D02*
X52139000Y-48176900D01*
X51967900Y-48085400D02*
X52055700Y-48126900D01*
X51876400Y-48052600D02*
X51967900Y-48085400D01*
X51782100Y-48029000D02*
X51876400Y-48052600D01*
X51686000Y-48014800D02*
X51782100Y-48029000D01*
X51588800Y-48010000D02*
X51686000Y-48014800D01*
X63748800Y-69230000D02*
X58571200Y-69230000D01*
X63846000Y-69225200D02*
X63748800Y-69230000D01*
X63942100Y-69211000D02*
X63846000Y-69225200D01*
X64036400Y-69187400D02*
X63942100Y-69211000D01*
X64127900Y-69154600D02*
X64036400Y-69187400D01*
X64215700Y-69113100D02*
X64127900Y-69154600D01*
X64299000Y-69063200D02*
X64215700Y-69113100D01*
X64377100Y-69005300D02*
X64299000Y-69063200D01*
X64449000Y-68940000D02*
X64377100Y-69005300D01*
X64514300Y-68868100D02*
X64449000Y-68940000D01*
X64572200Y-68790000D02*
X64514300Y-68868100D01*
X64622100Y-68706700D02*
X64572200Y-68790000D01*
X64663600Y-68618900D02*
X64622100Y-68706700D01*
X64696400Y-68527400D02*
X64663600Y-68618900D01*
X64720000Y-68433200D02*
X64696400Y-68527400D01*
X64734200Y-68337100D02*
X64720000Y-68433200D01*
X64739000Y-68231300D02*
X64734200Y-68337100D01*
X64734200Y-68134000D02*
X64739000Y-68231300D01*
X64720000Y-68037900D02*
X64734200Y-68134000D01*
X64696400Y-67943600D02*
X64720000Y-68037900D01*
X64663600Y-67852200D02*
X64696400Y-67943600D01*
X64622100Y-67764300D02*
X64663600Y-67852200D01*
X64572200Y-67681000D02*
X64622100Y-67764300D01*
X64514300Y-67603000D02*
X64572200Y-67681000D01*
X64449000Y-67531000D02*
X64514300Y-67603000D01*
X64377100Y-67465700D02*
X64449000Y-67531000D01*
X64299000Y-67407900D02*
X64377100Y-67465700D01*
X64215700Y-67357900D02*
X64299000Y-67407900D01*
X64127900Y-67316400D02*
X64215700Y-67357900D01*
X64036400Y-67283600D02*
X64127900Y-67316400D01*
X63942100Y-67260000D02*
X64036400Y-67283600D01*
X63846000Y-67245800D02*
X63942100Y-67260000D01*
X63748800Y-67241000D02*
X63846000Y-67245800D01*
X62668100Y-67240900D02*
X63748800Y-67241000D01*
X62615100Y-67237900D02*
X62668100Y-67240900D01*
X62575200Y-67231900D02*
X62615100Y-67237900D01*
X62511100Y-67215800D02*
X62575200Y-67231900D01*
X62449300Y-67191000D02*
X62511100Y-67215800D01*
X62413400Y-67172400D02*
X62449300Y-67191000D01*
X62369200Y-67143700D02*
X62413400Y-67172400D01*
X62318100Y-67101000D02*
X62369200Y-67143700D01*
X62289800Y-67072200D02*
X62318100Y-67101000D01*
X62256600Y-67031200D02*
X62289800Y-67072200D01*
X62221200Y-66974800D02*
X62256600Y-67031200D01*
X62203200Y-66938600D02*
X62221200Y-66974800D01*
X62184300Y-66889400D02*
X62203200Y-66938600D01*
X62168100Y-66824900D02*
X62184300Y-66889400D01*
X62162100Y-66784900D02*
X62168100Y-66824900D01*
X62159100Y-66732100D02*
X62162100Y-66784900D01*
X62159000Y-60134600D02*
X62159100Y-66732100D01*
X62161100Y-60087700D02*
X62159000Y-60134600D01*
X62163900Y-60061800D02*
X62161100Y-60087700D01*
X62170500Y-60022000D02*
X62163900Y-60061800D01*
X62184200Y-59971100D02*
X62170500Y-60022000D01*
X62203400Y-59920900D02*
X62184200Y-59971100D01*
X62234400Y-59862500D02*
X62203400Y-59920900D01*
X62256400Y-59829200D02*
X62234400Y-59862500D01*
X62281500Y-59797700D02*
X62256400Y-59829200D01*
X62327500Y-59750200D02*
X62281500Y-59797700D01*
X62369300Y-59716300D02*
X62327500Y-59750200D01*
X62425200Y-59681200D02*
X62369300Y-59716300D01*
X62460900Y-59663400D02*
X62425200Y-59681200D01*
X62498400Y-59648600D02*
X62460900Y-59663400D01*
X62562000Y-59630500D02*
X62498400Y-59648600D01*
X62615100Y-59622100D02*
X62562000Y-59630500D01*
X62674400Y-59619000D02*
X62615100Y-59622100D01*
X63748800Y-59619000D02*
X62674400Y-59619000D01*
X63846000Y-59614200D02*
X63748800Y-59619000D01*
X63942100Y-59600000D02*
X63846000Y-59614200D01*
X64036400Y-59576400D02*
X63942100Y-59600000D01*
X64127900Y-59543600D02*
X64036400Y-59576400D01*
X64215700Y-59502100D02*
X64127900Y-59543600D01*
X64299000Y-59452100D02*
X64215700Y-59502100D01*
X64377100Y-59394300D02*
X64299000Y-59452100D01*
X64449000Y-59329000D02*
X64377100Y-59394300D01*
X64514300Y-59257000D02*
X64449000Y-59329000D01*
X64572200Y-59179000D02*
X64514300Y-59257000D01*
X64622100Y-59095700D02*
X64572200Y-59179000D01*
X64663600Y-59007900D02*
X64622100Y-59095700D01*
X64696400Y-58916400D02*
X64663600Y-59007900D01*
X64720000Y-58822100D02*
X64696400Y-58916400D01*
X64734200Y-58726000D02*
X64720000Y-58822100D01*
X64739000Y-58628800D02*
X64734200Y-58726000D01*
X64734200Y-58514000D02*
X64739000Y-58628800D01*
X64720000Y-58417900D02*
X64734200Y-58514000D01*
X64696400Y-58323600D02*
X64720000Y-58417900D01*
X64663600Y-58232100D02*
X64696400Y-58323600D01*
X64622100Y-58144300D02*
X64663600Y-58232100D01*
X64572200Y-58061000D02*
X64622100Y-58144300D01*
X64514300Y-57983000D02*
X64572200Y-58061000D01*
X64449000Y-57911000D02*
X64514300Y-57983000D01*
X64377100Y-57845700D02*
X64449000Y-57911000D01*
X64299000Y-57787900D02*
X64377100Y-57845700D01*
X64215700Y-57737900D02*
X64299000Y-57787900D01*
X64127900Y-57696400D02*
X64215700Y-57737900D01*
X64036400Y-57663600D02*
X64127900Y-57696400D01*
X63942100Y-57640000D02*
X64036400Y-57663600D01*
X63846000Y-57625800D02*
X63942100Y-57640000D01*
X63748800Y-57621000D02*
X63846000Y-57625800D01*
X62668100Y-57620900D02*
X63748800Y-57621000D01*
X62615100Y-57617900D02*
X62668100Y-57620900D01*
X62575200Y-57611900D02*
X62615100Y-57617900D01*
X62511100Y-57595800D02*
X62575200Y-57611900D01*
X62449300Y-57571000D02*
X62511100Y-57595800D01*
X62413400Y-57552400D02*
X62449300Y-57571000D01*
X62369200Y-57523600D02*
X62413400Y-57552400D01*
X62318100Y-57481000D02*
X62369200Y-57523600D01*
X62290200Y-57452500D02*
X62318100Y-57481000D01*
X62264500Y-57421400D02*
X62290200Y-57452500D01*
X62227600Y-57366500D02*
X62264500Y-57421400D01*
X62198300Y-57306800D02*
X62227600Y-57366500D01*
X62184200Y-57268900D02*
X62198300Y-57306800D01*
X62173500Y-57230300D02*
X62184200Y-57268900D01*
X62163900Y-57178200D02*
X62173500Y-57230300D01*
X62161100Y-57152100D02*
X62163900Y-57178200D01*
X62159000Y-57105400D02*
X62161100Y-57152100D01*
X62159000Y-50514600D02*
X62159000Y-57105400D01*
X62162100Y-50455100D02*
X62159000Y-50514600D01*
X62170400Y-50402500D02*
X62162100Y-50455100D01*
X62184300Y-50350500D02*
X62170400Y-50402500D01*
X62209000Y-50289300D02*
X62184300Y-50350500D01*
X62227400Y-50253900D02*
X62209000Y-50289300D01*
X62249000Y-50219900D02*
X62227400Y-50253900D01*
X62289800Y-50167800D02*
X62249000Y-50219900D01*
X62327900Y-50129800D02*
X62289800Y-50167800D01*
X62379800Y-50089100D02*
X62327900Y-50129800D01*
X62413500Y-50067600D02*
X62379800Y-50089100D01*
X62449200Y-50049000D02*
X62413500Y-50067600D01*
X62510600Y-50024300D02*
X62449200Y-50049000D01*
X62575200Y-50008100D02*
X62510600Y-50024300D01*
X62615100Y-50002100D02*
X62575200Y-50008100D01*
X62667900Y-49999100D02*
X62615100Y-50002100D01*
X63748800Y-49999000D02*
X62667900Y-49999100D01*
X63846000Y-49994200D02*
X63748800Y-49999000D01*
X63942100Y-49980000D02*
X63846000Y-49994200D01*
X64036400Y-49956400D02*
X63942100Y-49980000D01*
X64127900Y-49923600D02*
X64036400Y-49956400D01*
X64215700Y-49882100D02*
X64127900Y-49923600D01*
X64299000Y-49832100D02*
X64215700Y-49882100D01*
X64377100Y-49774300D02*
X64299000Y-49832100D01*
X64449000Y-49709000D02*
X64377100Y-49774300D01*
X64514300Y-49637000D02*
X64449000Y-49709000D01*
X64572200Y-49559000D02*
X64514300Y-49637000D01*
X64622100Y-49475700D02*
X64572200Y-49559000D01*
X64663600Y-49387900D02*
X64622100Y-49475700D01*
X64696400Y-49296400D02*
X64663600Y-49387900D01*
X64720000Y-49202100D02*
X64696400Y-49296400D01*
X64734200Y-49106000D02*
X64720000Y-49202100D01*
X64739000Y-49000200D02*
X64734200Y-49106000D01*
X64734200Y-48903000D02*
X64739000Y-49000200D01*
X64720000Y-48806900D02*
X64734200Y-48903000D01*
X64696400Y-48712600D02*
X64720000Y-48806900D01*
X64663600Y-48621100D02*
X64696400Y-48712600D01*
X64622100Y-48533300D02*
X64663600Y-48621100D01*
X64572200Y-48450000D02*
X64622100Y-48533300D01*
X64514300Y-48372000D02*
X64572200Y-48450000D01*
X64449000Y-48300000D02*
X64514300Y-48372000D01*
X64377100Y-48234700D02*
X64449000Y-48300000D01*
X64299000Y-48176900D02*
X64377100Y-48234700D01*
X64215700Y-48126900D02*
X64299000Y-48176900D01*
X64127900Y-48085400D02*
X64215700Y-48126900D01*
X64036400Y-48052600D02*
X64127900Y-48085400D01*
X63942100Y-48029000D02*
X64036400Y-48052600D01*
X63846000Y-48014800D02*
X63942100Y-48029000D01*
X63748800Y-48010000D02*
X63846000Y-48014800D01*
X58571200Y-48010000D02*
X63748800Y-48010000D01*
X58474000Y-48014800D02*
X58571200Y-48010000D01*
X58377900Y-48029000D02*
X58474000Y-48014800D01*
X58283600Y-48052600D02*
X58377900Y-48029000D01*
X58192200Y-48085400D02*
X58283600Y-48052600D01*
X58104300Y-48126900D02*
X58192200Y-48085400D01*
X58021000Y-48176900D02*
X58104300Y-48126900D01*
X57943000Y-48234700D02*
X58021000Y-48176900D01*
X57871000Y-48300000D02*
X57943000Y-48234700D01*
X57805700Y-48372000D02*
X57871000Y-48300000D01*
X57747900Y-48450000D02*
X57805700Y-48372000D01*
X57697900Y-48533300D02*
X57747900Y-48450000D01*
X57656400Y-48621100D02*
X57697900Y-48533300D01*
X57623600Y-48712600D02*
X57656400Y-48621100D01*
X57600000Y-48806900D02*
X57623600Y-48712600D01*
X57585800Y-48903000D02*
X57600000Y-48806900D01*
X57581000Y-49000200D02*
X57585800Y-48903000D01*
X57585800Y-49106000D02*
X57581000Y-49000200D01*
X57600000Y-49202100D02*
X57585800Y-49106000D01*
X57623600Y-49296400D02*
X57600000Y-49202100D01*
X57656400Y-49387900D02*
X57623600Y-49296400D01*
X57697900Y-49475700D02*
X57656400Y-49387900D01*
X57747900Y-49559000D02*
X57697900Y-49475700D01*
X57805700Y-49637000D02*
X57747900Y-49559000D01*
X57871000Y-49709000D02*
X57805700Y-49637000D01*
X57943000Y-49774300D02*
X57871000Y-49709000D01*
X58021000Y-49832100D02*
X57943000Y-49774300D01*
X58104300Y-49882100D02*
X58021000Y-49832100D01*
X58192200Y-49923600D02*
X58104300Y-49882100D01*
X58283600Y-49956400D02*
X58192200Y-49923600D01*
X58377900Y-49980000D02*
X58283600Y-49956400D01*
X58474000Y-49994200D02*
X58377900Y-49980000D01*
X58571200Y-49999000D02*
X58474000Y-49994200D01*
X59651900Y-49999100D02*
X58571200Y-49999000D01*
X59704900Y-50002100D02*
X59651900Y-49999100D01*
X59744800Y-50008100D02*
X59704900Y-50002100D01*
X59809000Y-50024200D02*
X59744800Y-50008100D01*
X59870700Y-50049000D02*
X59809000Y-50024200D01*
X59906600Y-50067600D02*
X59870700Y-50049000D01*
X59950800Y-50096400D02*
X59906600Y-50067600D01*
X60001900Y-50139000D02*
X59950800Y-50096400D01*
X60030200Y-50167900D02*
X60001900Y-50139000D01*
X60063400Y-50208800D02*
X60030200Y-50167900D01*
X60098800Y-50265200D02*
X60063400Y-50208800D01*
X60116800Y-50301400D02*
X60098800Y-50265200D01*
X60135700Y-50350600D02*
X60116800Y-50301400D01*
X60151900Y-50415200D02*
X60135700Y-50350600D01*
X60157900Y-50455100D02*
X60151900Y-50415200D01*
X60160700Y-50501400D02*
X60157900Y-50455100D01*
X60161000Y-57105400D02*
X60160700Y-50501400D01*
X60158900Y-57152300D02*
X60161000Y-57105400D01*
X60156200Y-57178200D02*
X60158900Y-57152300D01*
X60149500Y-57218000D02*
X60156200Y-57178200D01*
X60135800Y-57269000D02*
X60149500Y-57218000D01*
X60116600Y-57319200D02*
X60135800Y-57269000D01*
X60085700Y-57377500D02*
X60116600Y-57319200D01*
X60063600Y-57410800D02*
X60085700Y-57377500D01*
X60038600Y-57442400D02*
X60063600Y-57410800D01*
X59992500Y-57489800D02*
X60038600Y-57442400D01*
X59950700Y-57523700D02*
X59992500Y-57489800D01*
X59894800Y-57558800D02*
X59950700Y-57523700D01*
X59859100Y-57576600D02*
X59894800Y-57558800D01*
X59821600Y-57591400D02*
X59859100Y-57576600D01*
X59758000Y-57609500D02*
X59821600Y-57591400D01*
X59704900Y-57617900D02*
X59758000Y-57609500D01*
X59645600Y-57621000D02*
X59704900Y-57617900D01*
X58571200Y-57621000D02*
X59645600Y-57621000D01*
X58474000Y-57625800D02*
X58571200Y-57621000D01*
X58377900Y-57640000D02*
X58474000Y-57625800D01*
X58283600Y-57663600D02*
X58377900Y-57640000D01*
X58192200Y-57696400D02*
X58283600Y-57663600D01*
X58104300Y-57737900D02*
X58192200Y-57696400D01*
X58021000Y-57787900D02*
X58104300Y-57737900D01*
X57943000Y-57845700D02*
X58021000Y-57787900D01*
X57871000Y-57911000D02*
X57943000Y-57845700D01*
X57805700Y-57983000D02*
X57871000Y-57911000D01*
X57747900Y-58061000D02*
X57805700Y-57983000D01*
X57697900Y-58144300D02*
X57747900Y-58061000D01*
X57656400Y-58232100D02*
X57697900Y-58144300D01*
X57623600Y-58323600D02*
X57656400Y-58232100D01*
X57600000Y-58417900D02*
X57623600Y-58323600D01*
X57585800Y-58514000D02*
X57600000Y-58417900D01*
X57581000Y-58611200D02*
X57585800Y-58514000D01*
X57585800Y-58726000D02*
X57581000Y-58611200D01*
X57600000Y-58822100D02*
X57585800Y-58726000D01*
X57623600Y-58916400D02*
X57600000Y-58822100D01*
X57656400Y-59007900D02*
X57623600Y-58916400D01*
X57697900Y-59095700D02*
X57656400Y-59007900D01*
X57747900Y-59179000D02*
X57697900Y-59095700D01*
X57805700Y-59257100D02*
X57747900Y-59179000D01*
X57871000Y-59329000D02*
X57805700Y-59257100D01*
X57943000Y-59394300D02*
X57871000Y-59329000D01*
X58021000Y-59452200D02*
X57943000Y-59394300D01*
X58104300Y-59502100D02*
X58021000Y-59452200D01*
X58192200Y-59543600D02*
X58104300Y-59502100D01*
X58283600Y-59576400D02*
X58192200Y-59543600D01*
X58377900Y-59600000D02*
X58283600Y-59576400D01*
X58474000Y-59614200D02*
X58377900Y-59600000D01*
X58571200Y-59619000D02*
X58474000Y-59614200D01*
X59651900Y-59619100D02*
X58571200Y-59619000D01*
X59718200Y-59623900D02*
X59651900Y-59619100D01*
X59758000Y-59630500D02*
X59718200Y-59623900D01*
X59796800Y-59640600D02*
X59758000Y-59630500D01*
X59821600Y-59648600D02*
X59796800Y-59640600D01*
X59870500Y-59668900D02*
X59821600Y-59648600D01*
X59906100Y-59687400D02*
X59870500Y-59668900D01*
X59940100Y-59709000D02*
X59906100Y-59687400D01*
X59992200Y-59749800D02*
X59940100Y-59709000D01*
X60038500Y-59797600D02*
X59992200Y-59749800D01*
X60063400Y-59828800D02*
X60038500Y-59797600D01*
X60085600Y-59862500D02*
X60063400Y-59828800D01*
X60116800Y-59921400D02*
X60085600Y-59862500D01*
X60135700Y-59970600D02*
X60116800Y-59921400D01*
X60146500Y-60009500D02*
X60135700Y-59970600D01*
X60157900Y-60075100D02*
X60146500Y-60009500D01*
X60161000Y-60134500D02*
X60157900Y-60075100D01*
X60161000Y-66725500D02*
X60161000Y-60134500D01*
X60158900Y-66772300D02*
X60161000Y-66725500D01*
X60156200Y-66798200D02*
X60158900Y-66772300D01*
X60149500Y-66838000D02*
X60156200Y-66798200D01*
X60135800Y-66889000D02*
X60149500Y-66838000D01*
X60116600Y-66939200D02*
X60135800Y-66889000D01*
X60085700Y-66997500D02*
X60116600Y-66939200D01*
X60063600Y-67030800D02*
X60085700Y-66997500D01*
X60038600Y-67062400D02*
X60063600Y-67030800D01*
X59992500Y-67109900D02*
X60038600Y-67062400D01*
X59950700Y-67143700D02*
X59992500Y-67109900D01*
X59894800Y-67178800D02*
X59950700Y-67143700D01*
X59859100Y-67196600D02*
X59894800Y-67178800D01*
X59821600Y-67211400D02*
X59859100Y-67196600D01*
X59758000Y-67229500D02*
X59821600Y-67211400D01*
X59704900Y-67237900D02*
X59758000Y-67229500D01*
X59645600Y-67241000D02*
X59704900Y-67237900D01*
X58571200Y-67241000D02*
X59645600Y-67241000D01*
X58474000Y-67245800D02*
X58571200Y-67241000D01*
X58377900Y-67260000D02*
X58474000Y-67245800D01*
X58283600Y-67283600D02*
X58377900Y-67260000D01*
X58192200Y-67316400D02*
X58283600Y-67283600D01*
X58104300Y-67357900D02*
X58192200Y-67316400D01*
X58021000Y-67407900D02*
X58104300Y-67357900D01*
X57943000Y-67465700D02*
X58021000Y-67407900D01*
X57871000Y-67531000D02*
X57943000Y-67465700D01*
X57805700Y-67603000D02*
X57871000Y-67531000D01*
X57747900Y-67681000D02*
X57805700Y-67603000D01*
X57697900Y-67764300D02*
X57747900Y-67681000D01*
X57656400Y-67852100D02*
X57697900Y-67764300D01*
X57623600Y-67943600D02*
X57656400Y-67852100D01*
X57600000Y-68037900D02*
X57623600Y-67943600D01*
X57585800Y-68134000D02*
X57600000Y-68037900D01*
X57581000Y-68239800D02*
X57585800Y-68134000D01*
X57585800Y-68337100D02*
X57581000Y-68239800D01*
X57600000Y-68433200D02*
X57585800Y-68337100D01*
X57623600Y-68527400D02*
X57600000Y-68433200D01*
X57656400Y-68618900D02*
X57623600Y-68527400D01*
X57697900Y-68706700D02*
X57656400Y-68618900D01*
X57747900Y-68790000D02*
X57697900Y-68706700D01*
X57805700Y-68868100D02*
X57747900Y-68790000D01*
X57871000Y-68940000D02*
X57805700Y-68868100D01*
X57943000Y-69005300D02*
X57871000Y-68940000D01*
X58021000Y-69063200D02*
X57943000Y-69005300D01*
X58104300Y-69113100D02*
X58021000Y-69063200D01*
X58192200Y-69154600D02*
X58104300Y-69113100D01*
X58283600Y-69187400D02*
X58192200Y-69154600D01*
X58377900Y-69211000D02*
X58283600Y-69187400D01*
X58474000Y-69225200D02*
X58377900Y-69211000D01*
X58571200Y-69230000D02*
X58474000Y-69225200D01*
X73319800Y-69230000D02*
X70731300Y-69230000D01*
X73417100Y-69225200D02*
X73319800Y-69230000D01*
X73513200Y-69211000D02*
X73417100Y-69225200D01*
X73607400Y-69187400D02*
X73513200Y-69211000D01*
X73698900Y-69154600D02*
X73607400Y-69187400D01*
X73786700Y-69113100D02*
X73698900Y-69154600D01*
X73870000Y-69063200D02*
X73786700Y-69113100D01*
X73948100Y-69005300D02*
X73870000Y-69063200D01*
X74020000Y-68940000D02*
X73948100Y-69005300D01*
X74085300Y-68868100D02*
X74020000Y-68940000D01*
X74143200Y-68790000D02*
X74085300Y-68868100D01*
X74193100Y-68706700D02*
X74143200Y-68790000D01*
X74234600Y-68618900D02*
X74193100Y-68706700D01*
X74267400Y-68527400D02*
X74234600Y-68618900D01*
X74291000Y-68433200D02*
X74267400Y-68527400D01*
X74305200Y-68337100D02*
X74291000Y-68433200D01*
X74310000Y-68239800D02*
X74305200Y-68337100D01*
X74310000Y-49000200D02*
X74310000Y-68239800D01*
X74305200Y-48903000D02*
X74310000Y-49000200D01*
X74291000Y-48806900D02*
X74305200Y-48903000D01*
X74267400Y-48712600D02*
X74291000Y-48806900D01*
X74234600Y-48621100D02*
X74267400Y-48712600D01*
X74193100Y-48533300D02*
X74234600Y-48621100D01*
X74143200Y-48450000D02*
X74193100Y-48533300D01*
X74085300Y-48372000D02*
X74143200Y-48450000D01*
X74020000Y-48300000D02*
X74085300Y-48372000D01*
X73948100Y-48234700D02*
X74020000Y-48300000D01*
X73870000Y-48176900D02*
X73948100Y-48234700D01*
X73786700Y-48126900D02*
X73870000Y-48176900D01*
X73698900Y-48085400D02*
X73786700Y-48126900D01*
X73607400Y-48052600D02*
X73698900Y-48085400D01*
X73513200Y-48029000D02*
X73607400Y-48052600D01*
X73417100Y-48014800D02*
X73513200Y-48029000D01*
X73319800Y-48010000D02*
X73417100Y-48014800D01*
X70731300Y-48010000D02*
X73319800Y-48010000D01*
X70634000Y-48014800D02*
X70731300Y-48010000D01*
X70537900Y-48029000D02*
X70634000Y-48014800D01*
X70443600Y-48052600D02*
X70537900Y-48029000D01*
X70352200Y-48085400D02*
X70443600Y-48052600D01*
X70264300Y-48126900D02*
X70352200Y-48085400D01*
X70181000Y-48176900D02*
X70264300Y-48126900D01*
X70103000Y-48234700D02*
X70181000Y-48176900D01*
X70031000Y-48300000D02*
X70103000Y-48234700D01*
X69965700Y-48372000D02*
X70031000Y-48300000D01*
X69907900Y-48450000D02*
X69965700Y-48372000D01*
X69857900Y-48533300D02*
X69907900Y-48450000D01*
X69816400Y-48621100D02*
X69857900Y-48533300D01*
X69783700Y-48712600D02*
X69816400Y-48621100D01*
X69760000Y-48806900D02*
X69783700Y-48712600D01*
X69745800Y-48903000D02*
X69760000Y-48806900D01*
X69741000Y-49000200D02*
X69745800Y-48903000D01*
X69745800Y-49106000D02*
X69741000Y-49000200D01*
X69760000Y-49202100D02*
X69745800Y-49106000D01*
X69783700Y-49296400D02*
X69760000Y-49202100D01*
X69816400Y-49387900D02*
X69783700Y-49296400D01*
X69857900Y-49475700D02*
X69816400Y-49387900D01*
X69907900Y-49559000D02*
X69857900Y-49475700D01*
X69965700Y-49637000D02*
X69907900Y-49559000D01*
X70031000Y-49709000D02*
X69965700Y-49637000D01*
X70103000Y-49774300D02*
X70031000Y-49709000D01*
X70181000Y-49832100D02*
X70103000Y-49774300D01*
X70264300Y-49882100D02*
X70181000Y-49832100D01*
X70352200Y-49923600D02*
X70264300Y-49882100D01*
X70443600Y-49956400D02*
X70352200Y-49923600D01*
X70537900Y-49980000D02*
X70443600Y-49956400D01*
X70634000Y-49994200D02*
X70537900Y-49980000D01*
X70731300Y-49999000D02*
X70634000Y-49994200D01*
X71811900Y-49999100D02*
X70731300Y-49999000D01*
X71864900Y-50002100D02*
X71811900Y-49999100D01*
X71904800Y-50008100D02*
X71864900Y-50002100D01*
X71969000Y-50024200D02*
X71904800Y-50008100D01*
X72030700Y-50049000D02*
X71969000Y-50024200D01*
X72066600Y-50067600D02*
X72030700Y-50049000D01*
X72110800Y-50096400D02*
X72066600Y-50067600D01*
X72161900Y-50139000D02*
X72110800Y-50096400D01*
X72190200Y-50167900D02*
X72161900Y-50139000D01*
X72223400Y-50208800D02*
X72190200Y-50167900D01*
X72258800Y-50265200D02*
X72223400Y-50208800D01*
X72276800Y-50301400D02*
X72258800Y-50265200D01*
X72295700Y-50350600D02*
X72276800Y-50301400D01*
X72311900Y-50415200D02*
X72295700Y-50350600D01*
X72317900Y-50455100D02*
X72311900Y-50415200D01*
X72320700Y-50501400D02*
X72317900Y-50455100D01*
X72321000Y-57105400D02*
X72320700Y-50501400D01*
X72318900Y-57152300D02*
X72321000Y-57105400D01*
X72316200Y-57178200D02*
X72318900Y-57152300D01*
X72309500Y-57218000D02*
X72316200Y-57178200D01*
X72295800Y-57269000D02*
X72309500Y-57218000D01*
X72276600Y-57319200D02*
X72295800Y-57269000D01*
X72245700Y-57377500D02*
X72276600Y-57319200D01*
X72223700Y-57410800D02*
X72245700Y-57377500D01*
X72198600Y-57442400D02*
X72223700Y-57410800D01*
X72152500Y-57489800D02*
X72198600Y-57442400D01*
X72110800Y-57523700D02*
X72152500Y-57489800D01*
X72054800Y-57558800D02*
X72110800Y-57523700D01*
X72019100Y-57576600D02*
X72054800Y-57558800D01*
X71981600Y-57591400D02*
X72019100Y-57576600D01*
X71918000Y-57609500D02*
X71981600Y-57591400D01*
X71864900Y-57617900D02*
X71918000Y-57609500D01*
X71805600Y-57621000D02*
X71864900Y-57617900D01*
X70731300Y-57621000D02*
X71805600Y-57621000D01*
X70634000Y-57625800D02*
X70731300Y-57621000D01*
X70537900Y-57640000D02*
X70634000Y-57625800D01*
X70443600Y-57663600D02*
X70537900Y-57640000D01*
X70352200Y-57696400D02*
X70443600Y-57663600D01*
X70264300Y-57737900D02*
X70352200Y-57696400D01*
X70181000Y-57787900D02*
X70264300Y-57737900D01*
X70103000Y-57845700D02*
X70181000Y-57787900D01*
X70031000Y-57911000D02*
X70103000Y-57845700D01*
X69965700Y-57983000D02*
X70031000Y-57911000D01*
X69907900Y-58061000D02*
X69965700Y-57983000D01*
X69857900Y-58144300D02*
X69907900Y-58061000D01*
X69816400Y-58232100D02*
X69857900Y-58144300D01*
X69783700Y-58323600D02*
X69816400Y-58232100D01*
X69760000Y-58417900D02*
X69783700Y-58323600D01*
X69745800Y-58514000D02*
X69760000Y-58417900D01*
X69741000Y-58611200D02*
X69745800Y-58514000D01*
X69745800Y-58726000D02*
X69741000Y-58611200D01*
X69760000Y-58822100D02*
X69745800Y-58726000D01*
X69783700Y-58916400D02*
X69760000Y-58822100D01*
X69816400Y-59007900D02*
X69783700Y-58916400D01*
X69857900Y-59095700D02*
X69816400Y-59007900D01*
X69907900Y-59179000D02*
X69857900Y-59095700D01*
X69965700Y-59257100D02*
X69907900Y-59179000D01*
X70031000Y-59329000D02*
X69965700Y-59257100D01*
X70103000Y-59394300D02*
X70031000Y-59329000D01*
X70181000Y-59452200D02*
X70103000Y-59394300D01*
X70264300Y-59502100D02*
X70181000Y-59452200D01*
X70352200Y-59543600D02*
X70264300Y-59502100D01*
X70443600Y-59576400D02*
X70352200Y-59543600D01*
X70537900Y-59600000D02*
X70443600Y-59576400D01*
X70634000Y-59614200D02*
X70537900Y-59600000D01*
X70731300Y-59619000D02*
X70634000Y-59614200D01*
X71811900Y-59619100D02*
X70731300Y-59619000D01*
X71878200Y-59623900D02*
X71811900Y-59619100D01*
X71918000Y-59630500D02*
X71878200Y-59623900D01*
X71956800Y-59640600D02*
X71918000Y-59630500D01*
X71981600Y-59648600D02*
X71956800Y-59640600D01*
X72030500Y-59668900D02*
X71981600Y-59648600D01*
X72066100Y-59687400D02*
X72030500Y-59668900D01*
X72100100Y-59709000D02*
X72066100Y-59687400D01*
X72152200Y-59749800D02*
X72100100Y-59709000D01*
X72198500Y-59797600D02*
X72152200Y-59749800D01*
X72223400Y-59828800D02*
X72198500Y-59797600D01*
X72245600Y-59862500D02*
X72223400Y-59828800D01*
X72276800Y-59921400D02*
X72245600Y-59862500D01*
X72295700Y-59970600D02*
X72276800Y-59921400D01*
X72306500Y-60009500D02*
X72295700Y-59970600D01*
X72317900Y-60075100D02*
X72306500Y-60009500D01*
X72321000Y-60134500D02*
X72317900Y-60075100D01*
X72321000Y-66725500D02*
X72321000Y-60134500D01*
X72318900Y-66772300D02*
X72321000Y-66725500D01*
X72316200Y-66798200D02*
X72318900Y-66772300D01*
X72309500Y-66838000D02*
X72316200Y-66798200D01*
X72295800Y-66889000D02*
X72309500Y-66838000D01*
X72276600Y-66939200D02*
X72295800Y-66889000D01*
X72245700Y-66997500D02*
X72276600Y-66939200D01*
X72223700Y-67030800D02*
X72245700Y-66997500D01*
X72198600Y-67062400D02*
X72223700Y-67030800D01*
X72152500Y-67109900D02*
X72198600Y-67062400D01*
X72110800Y-67143700D02*
X72152500Y-67109900D01*
X72054800Y-67178800D02*
X72110800Y-67143700D01*
X72019100Y-67196600D02*
X72054800Y-67178800D01*
X71981600Y-67211400D02*
X72019100Y-67196600D01*
X71918000Y-67229500D02*
X71981600Y-67211400D01*
X71864900Y-67237900D02*
X71918000Y-67229500D01*
X71805600Y-67241000D02*
X71864900Y-67237900D01*
X70731300Y-67241000D02*
X71805600Y-67241000D01*
X70634000Y-67245800D02*
X70731300Y-67241000D01*
X70537900Y-67260000D02*
X70634000Y-67245800D01*
X70443600Y-67283600D02*
X70537900Y-67260000D01*
X70352200Y-67316400D02*
X70443600Y-67283600D01*
X70264300Y-67357900D02*
X70352200Y-67316400D01*
X70181000Y-67407900D02*
X70264300Y-67357900D01*
X70103000Y-67465700D02*
X70181000Y-67407900D01*
X70031000Y-67531000D02*
X70103000Y-67465700D01*
X69965700Y-67603000D02*
X70031000Y-67531000D01*
X69907900Y-67681000D02*
X69965700Y-67603000D01*
X69857900Y-67764300D02*
X69907900Y-67681000D01*
X69816400Y-67852100D02*
X69857900Y-67764300D01*
X69783700Y-67943600D02*
X69816400Y-67852100D01*
X69760000Y-68037900D02*
X69783700Y-67943600D01*
X69745800Y-68134000D02*
X69760000Y-68037900D01*
X69741000Y-68239800D02*
X69745800Y-68134000D01*
X69745800Y-68337100D02*
X69741000Y-68239800D01*
X69760000Y-68433200D02*
X69745800Y-68337100D01*
X69783700Y-68527400D02*
X69760000Y-68433200D01*
X69816400Y-68618900D02*
X69783700Y-68527400D01*
X69857900Y-68706700D02*
X69816400Y-68618900D01*
X69907900Y-68790000D02*
X69857900Y-68706700D01*
X69965700Y-68868100D02*
X69907900Y-68790000D01*
X70031000Y-68940000D02*
X69965700Y-68868100D01*
X70103000Y-69005300D02*
X70031000Y-68940000D01*
X70181000Y-69063200D02*
X70103000Y-69005300D01*
X70264300Y-69113100D02*
X70181000Y-69063200D01*
X70352200Y-69154600D02*
X70264300Y-69113100D01*
X70443600Y-69187400D02*
X70352200Y-69154600D01*
X70537900Y-69211000D02*
X70443600Y-69187400D01*
X70634000Y-69225200D02*
X70537900Y-69211000D01*
X70731300Y-69230000D02*
X70634000Y-69225200D01*
X46160800Y-43629200D02*
X46160000Y-43644100D01*
X46164000Y-43623300D02*
X46160800Y-43629200D01*
X46169200Y-43620800D02*
X46164000Y-43623300D01*
X46184600Y-43620000D02*
X46169200Y-43620800D01*
X76135500Y-43620000D02*
X46184600Y-43620000D01*
X76150800Y-43620800D02*
X76135500Y-43620000D01*
X76156000Y-43623300D02*
X76150800Y-43620800D01*
X76159200Y-43629200D02*
X76156000Y-43623300D01*
X76160000Y-43644600D02*
X76159200Y-43629200D01*
X76160000Y-73595500D02*
X76160000Y-43644600D01*
X76159200Y-73610800D02*
X76160000Y-73595500D01*
X76156700Y-73616000D02*
X76159200Y-73610800D01*
X76150800Y-73619200D02*
X76156700Y-73616000D01*
X76135500Y-73620000D02*
X76150800Y-73619200D01*
X46184600Y-73620000D02*
X76135500Y-73620000D01*
X46169200Y-73619200D02*
X46184600Y-73620000D01*
X46164000Y-73616700D02*
X46169200Y-73619200D01*
X46160800Y-73610800D02*
X46164000Y-73616700D01*
X46160000Y-73595500D02*
X46160800Y-73610800D01*
X46160000Y-43644100D02*
X46160000Y-73595500D01*
M02*
