G04 #@! TF.GenerationSoftware,KiCad,Pcbnew,5.1.4+dfsg1-1*
G04 #@! TF.CreationDate,2020-12-01T08:27:42+00:00*
G04 #@! TF.ProjectId,panel,70616e65-6c2e-46b6-9963-61645f706362,rev?*
G04 #@! TF.SameCoordinates,Original*
G04 #@! TF.FileFunction,Soldermask,Bot*
G04 #@! TF.FilePolarity,Negative*
%FSLAX46Y46*%
G04 Gerber Fmt 4.6, Leading zero omitted, Abs format (unit mm)*
G04 Created by KiCad (PCBNEW 5.1.4+dfsg1-1) date 2020-12-01 08:27:42*
%MOMM*%
%LPD*%
G04 APERTURE LIST*
%ADD10C,0.350000*%
G04 APERTURE END LIST*
D10*
G36*
X64827809Y-66951574D02*
G01*
X64882587Y-66974264D01*
X64882589Y-66974265D01*
X64931888Y-67007205D01*
X64973814Y-67049131D01*
X65006753Y-67098429D01*
X65006755Y-67098432D01*
X65029445Y-67153210D01*
X65034081Y-67176517D01*
X65041194Y-67199966D01*
X65052745Y-67221577D01*
X65068290Y-67240519D01*
X65068884Y-67241007D01*
X65068292Y-67241493D01*
X65052747Y-67260434D01*
X65041195Y-67282045D01*
X65034082Y-67305493D01*
X65029445Y-67328805D01*
X65006756Y-67383579D01*
X65006754Y-67383584D01*
X64973814Y-67432883D01*
X64931888Y-67474809D01*
X64882589Y-67507749D01*
X64882588Y-67507750D01*
X64882587Y-67507750D01*
X64827809Y-67530440D01*
X64769659Y-67542007D01*
X64710365Y-67542007D01*
X64652215Y-67530440D01*
X64597437Y-67507750D01*
X64597436Y-67507750D01*
X64597435Y-67507749D01*
X64548136Y-67474809D01*
X64506210Y-67432883D01*
X64473270Y-67383584D01*
X64473268Y-67383579D01*
X64450579Y-67328804D01*
X64439012Y-67270654D01*
X64439012Y-67211360D01*
X64450579Y-67153210D01*
X64473269Y-67098432D01*
X64473271Y-67098429D01*
X64506210Y-67049131D01*
X64548136Y-67007205D01*
X64597435Y-66974265D01*
X64597437Y-66974264D01*
X64652215Y-66951574D01*
X64710365Y-66940007D01*
X64769659Y-66940007D01*
X64827809Y-66951574D01*
X64827809Y-66951574D01*
G37*
G36*
X52667801Y-66951574D02*
G01*
X52722579Y-66974264D01*
X52722581Y-66974265D01*
X52771880Y-67007205D01*
X52813806Y-67049131D01*
X52846745Y-67098429D01*
X52846747Y-67098432D01*
X52869437Y-67153210D01*
X52874073Y-67176517D01*
X52881186Y-67199966D01*
X52892737Y-67221577D01*
X52908282Y-67240519D01*
X52908876Y-67241007D01*
X52908284Y-67241493D01*
X52892739Y-67260434D01*
X52881187Y-67282045D01*
X52874074Y-67305493D01*
X52869437Y-67328805D01*
X52846748Y-67383579D01*
X52846746Y-67383584D01*
X52813806Y-67432883D01*
X52771880Y-67474809D01*
X52722581Y-67507749D01*
X52722580Y-67507750D01*
X52722579Y-67507750D01*
X52667801Y-67530440D01*
X52609651Y-67542007D01*
X52550357Y-67542007D01*
X52492207Y-67530440D01*
X52437429Y-67507750D01*
X52437428Y-67507750D01*
X52437427Y-67507749D01*
X52388128Y-67474809D01*
X52346202Y-67432883D01*
X52313262Y-67383584D01*
X52313260Y-67383579D01*
X52290571Y-67328804D01*
X52279004Y-67270654D01*
X52279004Y-67211360D01*
X52290571Y-67153210D01*
X52313261Y-67098432D01*
X52313263Y-67098429D01*
X52346202Y-67049131D01*
X52388128Y-67007205D01*
X52437427Y-66974265D01*
X52437429Y-66974264D01*
X52492207Y-66951574D01*
X52550357Y-66940007D01*
X52609651Y-66940007D01*
X52667801Y-66951574D01*
X52667801Y-66951574D01*
G37*
G36*
X53501134Y-66951573D02*
G01*
X53555912Y-66974263D01*
X53555914Y-66974264D01*
X53605213Y-67007204D01*
X53647139Y-67049130D01*
X53680078Y-67098428D01*
X53680080Y-67098431D01*
X53702770Y-67153209D01*
X53707406Y-67176516D01*
X53714519Y-67199965D01*
X53726070Y-67221576D01*
X53741615Y-67240518D01*
X53742209Y-67241006D01*
X53741617Y-67241492D01*
X53726072Y-67260433D01*
X53714520Y-67282044D01*
X53707407Y-67305492D01*
X53702770Y-67328804D01*
X53680081Y-67383578D01*
X53680079Y-67383583D01*
X53647139Y-67432882D01*
X53605213Y-67474808D01*
X53555914Y-67507748D01*
X53555913Y-67507749D01*
X53555912Y-67507749D01*
X53501134Y-67530439D01*
X53442984Y-67542006D01*
X53383690Y-67542006D01*
X53325540Y-67530439D01*
X53270762Y-67507749D01*
X53270761Y-67507749D01*
X53270760Y-67507748D01*
X53221461Y-67474808D01*
X53179535Y-67432882D01*
X53146595Y-67383583D01*
X53146593Y-67383578D01*
X53123904Y-67328803D01*
X53119268Y-67305496D01*
X53112155Y-67282047D01*
X53100604Y-67260436D01*
X53085059Y-67241494D01*
X53084465Y-67241006D01*
X53085057Y-67240520D01*
X53100602Y-67221579D01*
X53112154Y-67199968D01*
X53119267Y-67176520D01*
X53123904Y-67153208D01*
X53146594Y-67098431D01*
X53146596Y-67098428D01*
X53179535Y-67049130D01*
X53221461Y-67007204D01*
X53270760Y-66974264D01*
X53270762Y-66974263D01*
X53325540Y-66951573D01*
X53383690Y-66940006D01*
X53442984Y-66940006D01*
X53501134Y-66951573D01*
X53501134Y-66951573D01*
G37*
G36*
X65661142Y-66951573D02*
G01*
X65715920Y-66974263D01*
X65715922Y-66974264D01*
X65765221Y-67007204D01*
X65807147Y-67049130D01*
X65840086Y-67098428D01*
X65840088Y-67098431D01*
X65862778Y-67153209D01*
X65867414Y-67176516D01*
X65874527Y-67199965D01*
X65886078Y-67221576D01*
X65901623Y-67240518D01*
X65902217Y-67241006D01*
X65901625Y-67241492D01*
X65886080Y-67260433D01*
X65874528Y-67282044D01*
X65867415Y-67305492D01*
X65862778Y-67328804D01*
X65840089Y-67383578D01*
X65840087Y-67383583D01*
X65807147Y-67432882D01*
X65765221Y-67474808D01*
X65715922Y-67507748D01*
X65715921Y-67507749D01*
X65715920Y-67507749D01*
X65661142Y-67530439D01*
X65602992Y-67542006D01*
X65543698Y-67542006D01*
X65485548Y-67530439D01*
X65430770Y-67507749D01*
X65430769Y-67507749D01*
X65430768Y-67507748D01*
X65381469Y-67474808D01*
X65339543Y-67432882D01*
X65306603Y-67383583D01*
X65306601Y-67383578D01*
X65283912Y-67328803D01*
X65279276Y-67305496D01*
X65272163Y-67282047D01*
X65260612Y-67260436D01*
X65245067Y-67241494D01*
X65244473Y-67241006D01*
X65245065Y-67240520D01*
X65260610Y-67221579D01*
X65272162Y-67199968D01*
X65279275Y-67176520D01*
X65283912Y-67153208D01*
X65306602Y-67098431D01*
X65306604Y-67098428D01*
X65339543Y-67049130D01*
X65381469Y-67007204D01*
X65430768Y-66974264D01*
X65430770Y-66974263D01*
X65485548Y-66951573D01*
X65543698Y-66940006D01*
X65602992Y-66940006D01*
X65661142Y-66951573D01*
X65661142Y-66951573D01*
G37*
G36*
X66494475Y-66951572D02*
G01*
X66549253Y-66974262D01*
X66549255Y-66974263D01*
X66598554Y-67007203D01*
X66640480Y-67049129D01*
X66673419Y-67098427D01*
X66673421Y-67098430D01*
X66696111Y-67153208D01*
X66700748Y-67176519D01*
X66707861Y-67199968D01*
X66719412Y-67221579D01*
X66734958Y-67240521D01*
X66735547Y-67241005D01*
X66734957Y-67241489D01*
X66719412Y-67260431D01*
X66707861Y-67282041D01*
X66700748Y-67305490D01*
X66696111Y-67328802D01*
X66673422Y-67383577D01*
X66673420Y-67383582D01*
X66640480Y-67432881D01*
X66598554Y-67474807D01*
X66549255Y-67507747D01*
X66549254Y-67507748D01*
X66549253Y-67507748D01*
X66494475Y-67530438D01*
X66436325Y-67542005D01*
X66377031Y-67542005D01*
X66318881Y-67530438D01*
X66264103Y-67507748D01*
X66264102Y-67507748D01*
X66264101Y-67507747D01*
X66214802Y-67474807D01*
X66172876Y-67432881D01*
X66139936Y-67383582D01*
X66139934Y-67383577D01*
X66117245Y-67328802D01*
X66112609Y-67305495D01*
X66105496Y-67282046D01*
X66093945Y-67260435D01*
X66078400Y-67241493D01*
X66077806Y-67241005D01*
X66078398Y-67240519D01*
X66093943Y-67221578D01*
X66105495Y-67199967D01*
X66112608Y-67176519D01*
X66117245Y-67153207D01*
X66139935Y-67098430D01*
X66139937Y-67098427D01*
X66172876Y-67049129D01*
X66214802Y-67007203D01*
X66264101Y-66974263D01*
X66264103Y-66974262D01*
X66318881Y-66951572D01*
X66377031Y-66940005D01*
X66436325Y-66940005D01*
X66494475Y-66951572D01*
X66494475Y-66951572D01*
G37*
G36*
X54334467Y-66951572D02*
G01*
X54389245Y-66974262D01*
X54389247Y-66974263D01*
X54438546Y-67007203D01*
X54480472Y-67049129D01*
X54513411Y-67098427D01*
X54513413Y-67098430D01*
X54536103Y-67153208D01*
X54540740Y-67176519D01*
X54547853Y-67199968D01*
X54559404Y-67221579D01*
X54574950Y-67240521D01*
X54575539Y-67241005D01*
X54574949Y-67241489D01*
X54559404Y-67260431D01*
X54547853Y-67282041D01*
X54540740Y-67305490D01*
X54536103Y-67328802D01*
X54513414Y-67383577D01*
X54513412Y-67383582D01*
X54480472Y-67432881D01*
X54438546Y-67474807D01*
X54389247Y-67507747D01*
X54389246Y-67507748D01*
X54389245Y-67507748D01*
X54334467Y-67530438D01*
X54276317Y-67542005D01*
X54217023Y-67542005D01*
X54158873Y-67530438D01*
X54104095Y-67507748D01*
X54104094Y-67507748D01*
X54104093Y-67507747D01*
X54054794Y-67474807D01*
X54012868Y-67432881D01*
X53979928Y-67383582D01*
X53979926Y-67383577D01*
X53957237Y-67328802D01*
X53952601Y-67305495D01*
X53945488Y-67282046D01*
X53933937Y-67260435D01*
X53918392Y-67241493D01*
X53917798Y-67241005D01*
X53918390Y-67240519D01*
X53933935Y-67221578D01*
X53945487Y-67199967D01*
X53952600Y-67176519D01*
X53957237Y-67153207D01*
X53979927Y-67098430D01*
X53979929Y-67098427D01*
X54012868Y-67049129D01*
X54054794Y-67007203D01*
X54104093Y-66974263D01*
X54104095Y-66974262D01*
X54158873Y-66951572D01*
X54217023Y-66940005D01*
X54276317Y-66940005D01*
X54334467Y-66951572D01*
X54334467Y-66951572D01*
G37*
G36*
X56001134Y-66951571D02*
G01*
X56055912Y-66974261D01*
X56055914Y-66974262D01*
X56105213Y-67007202D01*
X56147139Y-67049128D01*
X56180078Y-67098426D01*
X56180080Y-67098429D01*
X56202770Y-67153207D01*
X56207406Y-67176514D01*
X56214519Y-67199963D01*
X56226070Y-67221574D01*
X56241615Y-67240516D01*
X56242209Y-67241004D01*
X56241617Y-67241490D01*
X56226072Y-67260431D01*
X56214520Y-67282042D01*
X56207407Y-67305490D01*
X56202770Y-67328802D01*
X56180081Y-67383577D01*
X56180079Y-67383581D01*
X56147139Y-67432880D01*
X56105213Y-67474806D01*
X56055914Y-67507746D01*
X56055913Y-67507747D01*
X56055912Y-67507747D01*
X56001134Y-67530437D01*
X55942984Y-67542004D01*
X55883690Y-67542004D01*
X55825540Y-67530437D01*
X55770762Y-67507747D01*
X55770761Y-67507747D01*
X55770760Y-67507746D01*
X55721461Y-67474806D01*
X55679535Y-67432880D01*
X55646595Y-67383581D01*
X55646593Y-67383577D01*
X55623905Y-67328805D01*
X55619269Y-67305495D01*
X55619267Y-67305488D01*
X55612156Y-67282045D01*
X55600605Y-67260434D01*
X55585060Y-67241492D01*
X55584465Y-67241004D01*
X55585060Y-67240516D01*
X55600605Y-67221574D01*
X55612156Y-67199964D01*
X55619268Y-67176516D01*
X55623904Y-67153209D01*
X55623905Y-67153203D01*
X55646594Y-67098429D01*
X55646596Y-67098426D01*
X55679535Y-67049128D01*
X55721461Y-67007202D01*
X55770760Y-66974262D01*
X55770762Y-66974261D01*
X55825540Y-66951571D01*
X55883690Y-66940004D01*
X55942984Y-66940004D01*
X56001134Y-66951571D01*
X56001134Y-66951571D01*
G37*
G36*
X55167801Y-66951571D02*
G01*
X55222579Y-66974261D01*
X55222581Y-66974262D01*
X55271880Y-67007202D01*
X55313806Y-67049128D01*
X55346745Y-67098426D01*
X55346747Y-67098429D01*
X55369437Y-67153206D01*
X55374074Y-67176518D01*
X55381188Y-67199967D01*
X55392739Y-67221577D01*
X55408285Y-67240519D01*
X55408876Y-67241004D01*
X55408285Y-67241489D01*
X55392739Y-67260431D01*
X55381188Y-67282041D01*
X55374074Y-67305490D01*
X55369437Y-67328802D01*
X55346748Y-67383577D01*
X55346746Y-67383581D01*
X55313806Y-67432880D01*
X55271880Y-67474806D01*
X55222581Y-67507746D01*
X55222580Y-67507747D01*
X55222579Y-67507747D01*
X55167801Y-67530437D01*
X55109651Y-67542004D01*
X55050357Y-67542004D01*
X54992207Y-67530437D01*
X54937429Y-67507747D01*
X54937428Y-67507747D01*
X54937427Y-67507746D01*
X54888128Y-67474806D01*
X54846202Y-67432880D01*
X54813262Y-67383581D01*
X54790573Y-67328805D01*
X54790571Y-67328801D01*
X54785934Y-67305490D01*
X54778821Y-67282041D01*
X54767270Y-67260430D01*
X54751724Y-67241488D01*
X54751135Y-67241004D01*
X54751725Y-67240520D01*
X54767270Y-67221578D01*
X54778821Y-67199968D01*
X54785934Y-67176519D01*
X54790571Y-67153207D01*
X54813261Y-67098429D01*
X54813263Y-67098426D01*
X54846202Y-67049128D01*
X54888128Y-67007202D01*
X54937427Y-66974262D01*
X54937429Y-66974261D01*
X54992207Y-66951571D01*
X55050357Y-66940004D01*
X55109651Y-66940004D01*
X55167801Y-66951571D01*
X55167801Y-66951571D01*
G37*
G36*
X68161142Y-66951571D02*
G01*
X68215920Y-66974261D01*
X68215922Y-66974262D01*
X68265221Y-67007202D01*
X68307147Y-67049128D01*
X68340086Y-67098426D01*
X68340088Y-67098429D01*
X68362778Y-67153207D01*
X68367414Y-67176514D01*
X68374527Y-67199963D01*
X68386078Y-67221574D01*
X68401623Y-67240516D01*
X68402217Y-67241004D01*
X68401625Y-67241490D01*
X68386080Y-67260431D01*
X68374528Y-67282042D01*
X68367415Y-67305490D01*
X68362778Y-67328802D01*
X68340089Y-67383577D01*
X68340087Y-67383581D01*
X68307147Y-67432880D01*
X68265221Y-67474806D01*
X68215922Y-67507746D01*
X68215921Y-67507747D01*
X68215920Y-67507747D01*
X68161142Y-67530437D01*
X68102992Y-67542004D01*
X68043698Y-67542004D01*
X67985548Y-67530437D01*
X67930770Y-67507747D01*
X67930769Y-67507747D01*
X67930768Y-67507746D01*
X67881469Y-67474806D01*
X67839543Y-67432880D01*
X67806603Y-67383581D01*
X67806601Y-67383577D01*
X67783913Y-67328805D01*
X67779277Y-67305495D01*
X67779275Y-67305488D01*
X67772164Y-67282045D01*
X67760613Y-67260434D01*
X67745068Y-67241492D01*
X67744473Y-67241004D01*
X67745068Y-67240516D01*
X67760613Y-67221574D01*
X67772164Y-67199964D01*
X67779276Y-67176516D01*
X67783912Y-67153209D01*
X67783913Y-67153203D01*
X67806602Y-67098429D01*
X67806604Y-67098426D01*
X67839543Y-67049128D01*
X67881469Y-67007202D01*
X67930768Y-66974262D01*
X67930770Y-66974261D01*
X67985548Y-66951571D01*
X68043698Y-66940004D01*
X68102992Y-66940004D01*
X68161142Y-66951571D01*
X68161142Y-66951571D01*
G37*
G36*
X67327809Y-66951571D02*
G01*
X67382587Y-66974261D01*
X67382589Y-66974262D01*
X67431888Y-67007202D01*
X67473814Y-67049128D01*
X67506753Y-67098426D01*
X67506755Y-67098429D01*
X67529445Y-67153206D01*
X67534082Y-67176518D01*
X67541196Y-67199967D01*
X67552747Y-67221577D01*
X67568293Y-67240519D01*
X67568884Y-67241004D01*
X67568293Y-67241489D01*
X67552747Y-67260431D01*
X67541196Y-67282041D01*
X67534082Y-67305490D01*
X67529445Y-67328802D01*
X67506756Y-67383577D01*
X67506754Y-67383581D01*
X67473814Y-67432880D01*
X67431888Y-67474806D01*
X67382589Y-67507746D01*
X67382588Y-67507747D01*
X67382587Y-67507747D01*
X67327809Y-67530437D01*
X67269659Y-67542004D01*
X67210365Y-67542004D01*
X67152215Y-67530437D01*
X67097437Y-67507747D01*
X67097436Y-67507747D01*
X67097435Y-67507746D01*
X67048136Y-67474806D01*
X67006210Y-67432880D01*
X66973270Y-67383581D01*
X66950581Y-67328805D01*
X66950579Y-67328801D01*
X66945942Y-67305490D01*
X66938829Y-67282041D01*
X66927278Y-67260430D01*
X66911732Y-67241488D01*
X66911143Y-67241004D01*
X66911733Y-67240520D01*
X66927278Y-67221578D01*
X66938829Y-67199968D01*
X66945942Y-67176519D01*
X66950579Y-67153207D01*
X66973269Y-67098429D01*
X66973271Y-67098426D01*
X67006210Y-67049128D01*
X67048136Y-67007202D01*
X67097435Y-66974262D01*
X67097437Y-66974261D01*
X67152215Y-66951571D01*
X67210365Y-66940004D01*
X67269659Y-66940004D01*
X67327809Y-66951571D01*
X67327809Y-66951571D01*
G37*
G36*
X56834467Y-66951570D02*
G01*
X56889245Y-66974260D01*
X56889247Y-66974261D01*
X56938546Y-67007201D01*
X56980472Y-67049127D01*
X56980475Y-67049132D01*
X57013413Y-67098428D01*
X57036103Y-67153206D01*
X57040740Y-67176517D01*
X57047853Y-67199966D01*
X57059404Y-67221577D01*
X57074950Y-67240519D01*
X57075539Y-67241003D01*
X57074949Y-67241487D01*
X57059404Y-67260429D01*
X57047853Y-67282039D01*
X57040740Y-67305488D01*
X57036103Y-67328800D01*
X57013413Y-67383577D01*
X57013412Y-67383580D01*
X56980472Y-67432879D01*
X56938546Y-67474805D01*
X56889247Y-67507745D01*
X56889246Y-67507746D01*
X56889245Y-67507746D01*
X56834467Y-67530436D01*
X56776317Y-67542003D01*
X56717023Y-67542003D01*
X56658873Y-67530436D01*
X56604095Y-67507746D01*
X56604094Y-67507746D01*
X56604093Y-67507745D01*
X56554794Y-67474805D01*
X56512868Y-67432879D01*
X56479928Y-67383580D01*
X56479927Y-67383577D01*
X56457237Y-67328800D01*
X56452601Y-67305493D01*
X56445488Y-67282044D01*
X56433937Y-67260433D01*
X56418392Y-67241491D01*
X56417798Y-67241003D01*
X56418390Y-67240517D01*
X56433935Y-67221576D01*
X56445487Y-67199965D01*
X56452600Y-67176517D01*
X56457237Y-67153205D01*
X56479927Y-67098428D01*
X56512865Y-67049132D01*
X56512868Y-67049127D01*
X56554794Y-67007201D01*
X56604093Y-66974261D01*
X56604095Y-66974260D01*
X56658873Y-66951570D01*
X56717023Y-66940003D01*
X56776317Y-66940003D01*
X56834467Y-66951570D01*
X56834467Y-66951570D01*
G37*
G36*
X68994475Y-66951570D02*
G01*
X69049253Y-66974260D01*
X69049255Y-66974261D01*
X69098554Y-67007201D01*
X69140480Y-67049127D01*
X69140483Y-67049132D01*
X69173421Y-67098428D01*
X69196111Y-67153206D01*
X69200748Y-67176517D01*
X69207861Y-67199966D01*
X69219412Y-67221577D01*
X69234958Y-67240519D01*
X69235547Y-67241003D01*
X69234957Y-67241487D01*
X69219412Y-67260429D01*
X69207861Y-67282039D01*
X69200748Y-67305488D01*
X69196111Y-67328800D01*
X69173421Y-67383577D01*
X69173420Y-67383580D01*
X69140480Y-67432879D01*
X69098554Y-67474805D01*
X69049255Y-67507745D01*
X69049254Y-67507746D01*
X69049253Y-67507746D01*
X68994475Y-67530436D01*
X68936325Y-67542003D01*
X68877031Y-67542003D01*
X68818881Y-67530436D01*
X68764103Y-67507746D01*
X68764102Y-67507746D01*
X68764101Y-67507745D01*
X68714802Y-67474805D01*
X68672876Y-67432879D01*
X68639936Y-67383580D01*
X68639935Y-67383577D01*
X68617245Y-67328800D01*
X68612609Y-67305493D01*
X68605496Y-67282044D01*
X68593945Y-67260433D01*
X68578400Y-67241491D01*
X68577806Y-67241003D01*
X68578398Y-67240517D01*
X68593943Y-67221576D01*
X68605495Y-67199965D01*
X68612608Y-67176517D01*
X68617245Y-67153205D01*
X68639935Y-67098428D01*
X68672873Y-67049132D01*
X68672876Y-67049127D01*
X68714802Y-67007201D01*
X68764101Y-66974261D01*
X68764103Y-66974260D01*
X68818881Y-66951570D01*
X68877031Y-66940003D01*
X68936325Y-66940003D01*
X68994475Y-66951570D01*
X68994475Y-66951570D01*
G37*
G36*
X69827809Y-66951569D02*
G01*
X69882587Y-66974259D01*
X69882589Y-66974260D01*
X69931888Y-67007200D01*
X69973814Y-67049126D01*
X70006754Y-67098425D01*
X70006755Y-67098427D01*
X70029445Y-67153205D01*
X70041012Y-67211355D01*
X70041012Y-67270649D01*
X70029445Y-67328799D01*
X70006755Y-67383577D01*
X70006754Y-67383579D01*
X69973814Y-67432878D01*
X69931888Y-67474804D01*
X69882589Y-67507744D01*
X69882588Y-67507745D01*
X69882587Y-67507745D01*
X69827809Y-67530435D01*
X69769659Y-67542002D01*
X69710365Y-67542002D01*
X69652215Y-67530435D01*
X69597437Y-67507745D01*
X69597436Y-67507745D01*
X69597435Y-67507744D01*
X69548136Y-67474804D01*
X69506210Y-67432878D01*
X69473270Y-67383579D01*
X69473269Y-67383577D01*
X69450579Y-67328799D01*
X69445942Y-67305488D01*
X69438829Y-67282039D01*
X69427278Y-67260428D01*
X69411732Y-67241486D01*
X69411143Y-67241002D01*
X69411733Y-67240518D01*
X69427278Y-67221576D01*
X69438829Y-67199966D01*
X69445942Y-67176517D01*
X69450579Y-67153205D01*
X69473269Y-67098427D01*
X69473270Y-67098425D01*
X69506210Y-67049126D01*
X69548136Y-67007200D01*
X69597435Y-66974260D01*
X69597437Y-66974259D01*
X69652215Y-66951569D01*
X69710365Y-66940002D01*
X69769659Y-66940002D01*
X69827809Y-66951569D01*
X69827809Y-66951569D01*
G37*
G36*
X57667801Y-66951569D02*
G01*
X57722579Y-66974259D01*
X57722581Y-66974260D01*
X57771880Y-67007200D01*
X57813806Y-67049126D01*
X57846746Y-67098425D01*
X57846747Y-67098427D01*
X57869437Y-67153205D01*
X57881004Y-67211355D01*
X57881004Y-67270649D01*
X57869437Y-67328799D01*
X57846747Y-67383577D01*
X57846746Y-67383579D01*
X57813806Y-67432878D01*
X57771880Y-67474804D01*
X57722581Y-67507744D01*
X57722580Y-67507745D01*
X57722579Y-67507745D01*
X57667801Y-67530435D01*
X57609651Y-67542002D01*
X57550357Y-67542002D01*
X57492207Y-67530435D01*
X57437429Y-67507745D01*
X57437428Y-67507745D01*
X57437427Y-67507744D01*
X57388128Y-67474804D01*
X57346202Y-67432878D01*
X57313262Y-67383579D01*
X57313261Y-67383577D01*
X57290571Y-67328799D01*
X57285934Y-67305488D01*
X57278821Y-67282039D01*
X57267270Y-67260428D01*
X57251724Y-67241486D01*
X57251135Y-67241002D01*
X57251725Y-67240518D01*
X57267270Y-67221576D01*
X57278821Y-67199966D01*
X57285934Y-67176517D01*
X57290571Y-67153205D01*
X57313261Y-67098427D01*
X57313262Y-67098425D01*
X57346202Y-67049126D01*
X57388128Y-67007200D01*
X57437427Y-66974260D01*
X57437429Y-66974259D01*
X57492207Y-66951569D01*
X57550357Y-66940002D01*
X57609651Y-66940002D01*
X57667801Y-66951569D01*
X57667801Y-66951569D01*
G37*
G36*
X71160451Y-65075528D02*
G01*
X71226636Y-65082047D01*
X71396475Y-65133567D01*
X71553000Y-65217232D01*
X71588738Y-65246562D01*
X71690195Y-65329824D01*
X71773457Y-65431281D01*
X71802787Y-65467019D01*
X71886452Y-65623544D01*
X71937972Y-65793383D01*
X71955368Y-65970010D01*
X71937972Y-66146637D01*
X71886452Y-66316476D01*
X71802787Y-66473001D01*
X71773457Y-66508739D01*
X71690195Y-66610196D01*
X71588738Y-66693458D01*
X71553000Y-66722788D01*
X71396475Y-66806453D01*
X71226636Y-66857973D01*
X71160452Y-66864491D01*
X71094269Y-66871010D01*
X71005749Y-66871010D01*
X70939566Y-66864491D01*
X70873382Y-66857973D01*
X70703543Y-66806453D01*
X70547018Y-66722788D01*
X70511280Y-66693458D01*
X70409823Y-66610196D01*
X70326561Y-66508739D01*
X70297231Y-66473001D01*
X70213566Y-66316476D01*
X70162046Y-66146637D01*
X70144650Y-65970010D01*
X70162046Y-65793383D01*
X70213566Y-65623544D01*
X70297231Y-65467019D01*
X70326561Y-65431281D01*
X70409823Y-65329824D01*
X70511280Y-65246562D01*
X70547018Y-65217232D01*
X70703543Y-65133567D01*
X70873382Y-65082047D01*
X70939567Y-65075528D01*
X71005749Y-65069010D01*
X71094269Y-65069010D01*
X71160451Y-65075528D01*
X71160451Y-65075528D01*
G37*
G36*
X63540451Y-65075528D02*
G01*
X63606636Y-65082047D01*
X63776475Y-65133567D01*
X63933000Y-65217232D01*
X63968738Y-65246562D01*
X64070195Y-65329824D01*
X64153457Y-65431281D01*
X64182787Y-65467019D01*
X64266452Y-65623544D01*
X64317972Y-65793383D01*
X64335368Y-65970010D01*
X64317972Y-66146637D01*
X64266452Y-66316476D01*
X64182787Y-66473001D01*
X64153457Y-66508739D01*
X64070195Y-66610196D01*
X63968738Y-66693458D01*
X63933000Y-66722788D01*
X63776475Y-66806453D01*
X63606636Y-66857973D01*
X63540452Y-66864491D01*
X63474269Y-66871010D01*
X63385749Y-66871010D01*
X63319566Y-66864491D01*
X63253382Y-66857973D01*
X63083543Y-66806453D01*
X62927018Y-66722788D01*
X62891280Y-66693458D01*
X62789823Y-66610196D01*
X62706561Y-66508739D01*
X62677231Y-66473001D01*
X62593566Y-66316476D01*
X62542046Y-66146637D01*
X62524650Y-65970010D01*
X62542046Y-65793383D01*
X62593566Y-65623544D01*
X62677231Y-65467019D01*
X62706561Y-65431281D01*
X62789823Y-65329824D01*
X62891280Y-65246562D01*
X62927018Y-65217232D01*
X63083543Y-65133567D01*
X63253382Y-65082047D01*
X63319567Y-65075528D01*
X63385749Y-65069010D01*
X63474269Y-65069010D01*
X63540451Y-65075528D01*
X63540451Y-65075528D01*
G37*
G36*
X59000443Y-65075528D02*
G01*
X59066628Y-65082047D01*
X59236467Y-65133567D01*
X59392992Y-65217232D01*
X59428730Y-65246562D01*
X59530187Y-65329824D01*
X59613449Y-65431281D01*
X59642779Y-65467019D01*
X59726444Y-65623544D01*
X59777964Y-65793383D01*
X59795360Y-65970010D01*
X59777964Y-66146637D01*
X59726444Y-66316476D01*
X59642779Y-66473001D01*
X59613449Y-66508739D01*
X59530187Y-66610196D01*
X59428730Y-66693458D01*
X59392992Y-66722788D01*
X59236467Y-66806453D01*
X59066628Y-66857973D01*
X59000444Y-66864491D01*
X58934261Y-66871010D01*
X58845741Y-66871010D01*
X58779558Y-66864491D01*
X58713374Y-66857973D01*
X58543535Y-66806453D01*
X58387010Y-66722788D01*
X58351272Y-66693458D01*
X58249815Y-66610196D01*
X58166553Y-66508739D01*
X58137223Y-66473001D01*
X58053558Y-66316476D01*
X58002038Y-66146637D01*
X57984642Y-65970010D01*
X58002038Y-65793383D01*
X58053558Y-65623544D01*
X58137223Y-65467019D01*
X58166553Y-65431281D01*
X58249815Y-65329824D01*
X58351272Y-65246562D01*
X58387010Y-65217232D01*
X58543535Y-65133567D01*
X58713374Y-65082047D01*
X58779559Y-65075528D01*
X58845741Y-65069010D01*
X58934261Y-65069010D01*
X59000443Y-65075528D01*
X59000443Y-65075528D01*
G37*
G36*
X51380443Y-65075528D02*
G01*
X51446628Y-65082047D01*
X51616467Y-65133567D01*
X51772992Y-65217232D01*
X51808730Y-65246562D01*
X51910187Y-65329824D01*
X51993449Y-65431281D01*
X52022779Y-65467019D01*
X52106444Y-65623544D01*
X52157964Y-65793383D01*
X52175360Y-65970010D01*
X52157964Y-66146637D01*
X52106444Y-66316476D01*
X52022779Y-66473001D01*
X51993449Y-66508739D01*
X51910187Y-66610196D01*
X51808730Y-66693458D01*
X51772992Y-66722788D01*
X51616467Y-66806453D01*
X51446628Y-66857973D01*
X51380444Y-66864491D01*
X51314261Y-66871010D01*
X51225741Y-66871010D01*
X51159558Y-66864491D01*
X51093374Y-66857973D01*
X50923535Y-66806453D01*
X50767010Y-66722788D01*
X50731272Y-66693458D01*
X50629815Y-66610196D01*
X50546553Y-66508739D01*
X50517223Y-66473001D01*
X50433558Y-66316476D01*
X50382038Y-66146637D01*
X50364642Y-65970010D01*
X50382038Y-65793383D01*
X50433558Y-65623544D01*
X50517223Y-65467019D01*
X50546553Y-65431281D01*
X50629815Y-65329824D01*
X50731272Y-65246562D01*
X50767010Y-65217232D01*
X50923535Y-65133567D01*
X51093374Y-65082047D01*
X51159559Y-65075528D01*
X51225741Y-65069010D01*
X51314261Y-65069010D01*
X51380443Y-65075528D01*
X51380443Y-65075528D01*
G37*
G36*
X59000444Y-62535529D02*
G01*
X59066628Y-62542047D01*
X59236467Y-62593567D01*
X59392992Y-62677232D01*
X59428730Y-62706562D01*
X59530187Y-62789824D01*
X59613449Y-62891281D01*
X59642779Y-62927019D01*
X59726444Y-63083544D01*
X59777964Y-63253383D01*
X59795360Y-63430010D01*
X59777964Y-63606637D01*
X59726444Y-63776476D01*
X59642779Y-63933001D01*
X59613449Y-63968739D01*
X59530187Y-64070196D01*
X59428730Y-64153458D01*
X59392992Y-64182788D01*
X59236467Y-64266453D01*
X59066628Y-64317973D01*
X59000444Y-64324491D01*
X58934261Y-64331010D01*
X58845741Y-64331010D01*
X58779558Y-64324491D01*
X58713374Y-64317973D01*
X58543535Y-64266453D01*
X58387010Y-64182788D01*
X58351272Y-64153458D01*
X58249815Y-64070196D01*
X58166553Y-63968739D01*
X58137223Y-63933001D01*
X58053558Y-63776476D01*
X58002038Y-63606637D01*
X57984642Y-63430010D01*
X58002038Y-63253383D01*
X58053558Y-63083544D01*
X58137223Y-62927019D01*
X58166553Y-62891281D01*
X58249815Y-62789824D01*
X58351272Y-62706562D01*
X58387010Y-62677232D01*
X58543535Y-62593567D01*
X58713374Y-62542047D01*
X58779558Y-62535529D01*
X58845741Y-62529010D01*
X58934261Y-62529010D01*
X59000444Y-62535529D01*
X59000444Y-62535529D01*
G37*
G36*
X71160452Y-62535529D02*
G01*
X71226636Y-62542047D01*
X71396475Y-62593567D01*
X71553000Y-62677232D01*
X71588738Y-62706562D01*
X71690195Y-62789824D01*
X71773457Y-62891281D01*
X71802787Y-62927019D01*
X71886452Y-63083544D01*
X71937972Y-63253383D01*
X71955368Y-63430010D01*
X71937972Y-63606637D01*
X71886452Y-63776476D01*
X71802787Y-63933001D01*
X71773457Y-63968739D01*
X71690195Y-64070196D01*
X71588738Y-64153458D01*
X71553000Y-64182788D01*
X71396475Y-64266453D01*
X71226636Y-64317973D01*
X71160452Y-64324491D01*
X71094269Y-64331010D01*
X71005749Y-64331010D01*
X70939566Y-64324491D01*
X70873382Y-64317973D01*
X70703543Y-64266453D01*
X70547018Y-64182788D01*
X70511280Y-64153458D01*
X70409823Y-64070196D01*
X70326561Y-63968739D01*
X70297231Y-63933001D01*
X70213566Y-63776476D01*
X70162046Y-63606637D01*
X70144650Y-63430010D01*
X70162046Y-63253383D01*
X70213566Y-63083544D01*
X70297231Y-62927019D01*
X70326561Y-62891281D01*
X70409823Y-62789824D01*
X70511280Y-62706562D01*
X70547018Y-62677232D01*
X70703543Y-62593567D01*
X70873382Y-62542047D01*
X70939566Y-62535529D01*
X71005749Y-62529010D01*
X71094269Y-62529010D01*
X71160452Y-62535529D01*
X71160452Y-62535529D01*
G37*
G36*
X63540452Y-62535529D02*
G01*
X63606636Y-62542047D01*
X63776475Y-62593567D01*
X63933000Y-62677232D01*
X63968738Y-62706562D01*
X64070195Y-62789824D01*
X64153457Y-62891281D01*
X64182787Y-62927019D01*
X64266452Y-63083544D01*
X64317972Y-63253383D01*
X64335368Y-63430010D01*
X64317972Y-63606637D01*
X64266452Y-63776476D01*
X64182787Y-63933001D01*
X64153457Y-63968739D01*
X64070195Y-64070196D01*
X63968738Y-64153458D01*
X63933000Y-64182788D01*
X63776475Y-64266453D01*
X63606636Y-64317973D01*
X63540452Y-64324491D01*
X63474269Y-64331010D01*
X63385749Y-64331010D01*
X63319566Y-64324491D01*
X63253382Y-64317973D01*
X63083543Y-64266453D01*
X62927018Y-64182788D01*
X62891280Y-64153458D01*
X62789823Y-64070196D01*
X62706561Y-63968739D01*
X62677231Y-63933001D01*
X62593566Y-63776476D01*
X62542046Y-63606637D01*
X62524650Y-63430010D01*
X62542046Y-63253383D01*
X62593566Y-63083544D01*
X62677231Y-62927019D01*
X62706561Y-62891281D01*
X62789823Y-62789824D01*
X62891280Y-62706562D01*
X62927018Y-62677232D01*
X63083543Y-62593567D01*
X63253382Y-62542047D01*
X63319566Y-62535529D01*
X63385749Y-62529010D01*
X63474269Y-62529010D01*
X63540452Y-62535529D01*
X63540452Y-62535529D01*
G37*
G36*
X51380444Y-62535529D02*
G01*
X51446628Y-62542047D01*
X51616467Y-62593567D01*
X51772992Y-62677232D01*
X51808730Y-62706562D01*
X51910187Y-62789824D01*
X51993449Y-62891281D01*
X52022779Y-62927019D01*
X52106444Y-63083544D01*
X52157964Y-63253383D01*
X52175360Y-63430010D01*
X52157964Y-63606637D01*
X52106444Y-63776476D01*
X52022779Y-63933001D01*
X51993449Y-63968739D01*
X51910187Y-64070196D01*
X51808730Y-64153458D01*
X51772992Y-64182788D01*
X51616467Y-64266453D01*
X51446628Y-64317973D01*
X51380444Y-64324491D01*
X51314261Y-64331010D01*
X51225741Y-64331010D01*
X51159558Y-64324491D01*
X51093374Y-64317973D01*
X50923535Y-64266453D01*
X50767010Y-64182788D01*
X50731272Y-64153458D01*
X50629815Y-64070196D01*
X50546553Y-63968739D01*
X50517223Y-63933001D01*
X50433558Y-63776476D01*
X50382038Y-63606637D01*
X50364642Y-63430010D01*
X50382038Y-63253383D01*
X50433558Y-63083544D01*
X50517223Y-62927019D01*
X50546553Y-62891281D01*
X50629815Y-62789824D01*
X50731272Y-62706562D01*
X50767010Y-62677232D01*
X50923535Y-62593567D01*
X51093374Y-62542047D01*
X51159558Y-62535529D01*
X51225741Y-62529010D01*
X51314261Y-62529010D01*
X51380444Y-62535529D01*
X51380444Y-62535529D01*
G37*
G36*
X59791001Y-61791010D02*
G01*
X57989001Y-61791010D01*
X57989001Y-59989010D01*
X59791001Y-59989010D01*
X59791001Y-61791010D01*
X59791001Y-61791010D01*
G37*
G36*
X71951009Y-61791010D02*
G01*
X70149009Y-61791010D01*
X70149009Y-59989010D01*
X71951009Y-59989010D01*
X71951009Y-61791010D01*
X71951009Y-61791010D01*
G37*
G36*
X64331009Y-61791010D02*
G01*
X62529009Y-61791010D01*
X62529009Y-59989010D01*
X64331009Y-59989010D01*
X64331009Y-61791010D01*
X64331009Y-61791010D01*
G37*
G36*
X52171001Y-61791010D02*
G01*
X50369001Y-61791010D01*
X50369001Y-59989010D01*
X52171001Y-59989010D01*
X52171001Y-61791010D01*
X52171001Y-61791010D01*
G37*
G36*
X69827809Y-59329574D02*
G01*
X69882587Y-59352264D01*
X69882589Y-59352265D01*
X69931888Y-59385205D01*
X69973814Y-59427131D01*
X70006753Y-59476429D01*
X70006755Y-59476432D01*
X70029445Y-59531210D01*
X70041012Y-59589360D01*
X70041012Y-59648654D01*
X70029445Y-59706804D01*
X70006754Y-59761585D01*
X69984717Y-59794566D01*
X69973166Y-59816177D01*
X69970484Y-59825020D01*
X69954564Y-59833529D01*
X69935628Y-59849069D01*
X69931888Y-59852809D01*
X69882589Y-59885749D01*
X69882588Y-59885750D01*
X69882587Y-59885750D01*
X69827809Y-59908440D01*
X69769659Y-59920007D01*
X69710365Y-59920007D01*
X69652215Y-59908440D01*
X69597437Y-59885750D01*
X69597436Y-59885750D01*
X69597435Y-59885749D01*
X69548136Y-59852809D01*
X69506210Y-59810883D01*
X69473270Y-59761584D01*
X69473268Y-59761579D01*
X69450579Y-59706804D01*
X69445942Y-59683492D01*
X69438829Y-59660043D01*
X69427278Y-59638433D01*
X69411733Y-59619491D01*
X69411143Y-59619007D01*
X69411732Y-59618523D01*
X69427278Y-59599581D01*
X69438829Y-59577970D01*
X69445942Y-59554521D01*
X69450579Y-59531210D01*
X69473269Y-59476432D01*
X69473271Y-59476429D01*
X69506210Y-59427131D01*
X69548136Y-59385205D01*
X69597435Y-59352265D01*
X69597437Y-59352264D01*
X69652215Y-59329574D01*
X69710365Y-59318007D01*
X69769659Y-59318007D01*
X69827809Y-59329574D01*
X69827809Y-59329574D01*
G37*
G36*
X57667801Y-59329574D02*
G01*
X57722579Y-59352264D01*
X57722581Y-59352265D01*
X57771880Y-59385205D01*
X57813806Y-59427131D01*
X57846745Y-59476429D01*
X57846747Y-59476432D01*
X57869437Y-59531210D01*
X57881004Y-59589360D01*
X57881004Y-59648654D01*
X57869437Y-59706804D01*
X57846746Y-59761585D01*
X57824709Y-59794566D01*
X57813158Y-59816177D01*
X57810476Y-59825020D01*
X57794556Y-59833529D01*
X57775620Y-59849069D01*
X57771880Y-59852809D01*
X57722581Y-59885749D01*
X57722580Y-59885750D01*
X57722579Y-59885750D01*
X57667801Y-59908440D01*
X57609651Y-59920007D01*
X57550357Y-59920007D01*
X57492207Y-59908440D01*
X57437429Y-59885750D01*
X57437428Y-59885750D01*
X57437427Y-59885749D01*
X57388128Y-59852809D01*
X57346202Y-59810883D01*
X57313262Y-59761584D01*
X57313260Y-59761579D01*
X57290571Y-59706804D01*
X57285934Y-59683492D01*
X57278821Y-59660043D01*
X57267270Y-59638433D01*
X57251725Y-59619491D01*
X57251135Y-59619007D01*
X57251724Y-59618523D01*
X57267270Y-59599581D01*
X57278821Y-59577970D01*
X57285934Y-59554521D01*
X57290571Y-59531210D01*
X57313261Y-59476432D01*
X57313263Y-59476429D01*
X57346202Y-59427131D01*
X57388128Y-59385205D01*
X57437427Y-59352265D01*
X57437429Y-59352264D01*
X57492207Y-59329574D01*
X57550357Y-59318007D01*
X57609651Y-59318007D01*
X57667801Y-59329574D01*
X57667801Y-59329574D01*
G37*
G36*
X68994475Y-59329573D02*
G01*
X69049253Y-59352263D01*
X69049255Y-59352264D01*
X69098554Y-59385204D01*
X69140480Y-59427130D01*
X69173419Y-59476428D01*
X69173421Y-59476431D01*
X69196111Y-59531209D01*
X69200748Y-59554521D01*
X69207861Y-59577970D01*
X69219412Y-59599580D01*
X69234957Y-59618522D01*
X69235547Y-59619006D01*
X69234958Y-59619490D01*
X69219412Y-59638432D01*
X69207861Y-59660043D01*
X69200748Y-59683492D01*
X69196111Y-59706803D01*
X69173422Y-59761578D01*
X69173420Y-59761583D01*
X69140480Y-59810882D01*
X69098554Y-59852808D01*
X69049255Y-59885748D01*
X69049254Y-59885749D01*
X69049253Y-59885749D01*
X68994475Y-59908439D01*
X68936325Y-59920006D01*
X68877031Y-59920006D01*
X68818881Y-59908439D01*
X68764103Y-59885749D01*
X68764102Y-59885749D01*
X68764101Y-59885748D01*
X68714802Y-59852808D01*
X68672876Y-59810882D01*
X68639936Y-59761583D01*
X68639934Y-59761578D01*
X68617245Y-59706804D01*
X68612608Y-59683492D01*
X68605494Y-59660043D01*
X68593943Y-59638433D01*
X68578397Y-59619491D01*
X68577806Y-59619006D01*
X68578401Y-59618517D01*
X68593946Y-59599575D01*
X68605497Y-59577965D01*
X68612609Y-59554516D01*
X68617245Y-59531209D01*
X68639935Y-59476431D01*
X68639937Y-59476428D01*
X68672876Y-59427130D01*
X68714802Y-59385204D01*
X68764101Y-59352264D01*
X68764103Y-59352263D01*
X68818881Y-59329573D01*
X68877031Y-59318006D01*
X68936325Y-59318006D01*
X68994475Y-59329573D01*
X68994475Y-59329573D01*
G37*
G36*
X56834467Y-59329573D02*
G01*
X56889245Y-59352263D01*
X56889247Y-59352264D01*
X56938546Y-59385204D01*
X56980472Y-59427130D01*
X57013411Y-59476428D01*
X57013413Y-59476431D01*
X57036103Y-59531209D01*
X57040740Y-59554521D01*
X57047853Y-59577970D01*
X57059404Y-59599580D01*
X57074949Y-59618522D01*
X57075539Y-59619006D01*
X57074950Y-59619490D01*
X57059404Y-59638432D01*
X57047853Y-59660043D01*
X57040740Y-59683492D01*
X57036103Y-59706803D01*
X57013414Y-59761578D01*
X57013412Y-59761583D01*
X56980472Y-59810882D01*
X56938546Y-59852808D01*
X56889247Y-59885748D01*
X56889246Y-59885749D01*
X56889245Y-59885749D01*
X56834467Y-59908439D01*
X56776317Y-59920006D01*
X56717023Y-59920006D01*
X56658873Y-59908439D01*
X56604095Y-59885749D01*
X56604094Y-59885749D01*
X56604093Y-59885748D01*
X56554794Y-59852808D01*
X56512868Y-59810882D01*
X56479928Y-59761583D01*
X56479926Y-59761578D01*
X56457237Y-59706804D01*
X56452600Y-59683492D01*
X56445486Y-59660043D01*
X56433935Y-59638433D01*
X56418389Y-59619491D01*
X56417798Y-59619006D01*
X56418393Y-59618517D01*
X56433938Y-59599575D01*
X56445489Y-59577965D01*
X56452601Y-59554516D01*
X56457237Y-59531209D01*
X56479927Y-59476431D01*
X56479929Y-59476428D01*
X56512868Y-59427130D01*
X56554794Y-59385204D01*
X56604093Y-59352264D01*
X56604095Y-59352263D01*
X56658873Y-59329573D01*
X56717023Y-59318006D01*
X56776317Y-59318006D01*
X56834467Y-59329573D01*
X56834467Y-59329573D01*
G37*
G36*
X55167801Y-59329572D02*
G01*
X55222579Y-59352262D01*
X55222581Y-59352263D01*
X55271880Y-59385203D01*
X55313806Y-59427129D01*
X55346745Y-59476427D01*
X55346747Y-59476430D01*
X55369437Y-59531207D01*
X55374074Y-59554519D01*
X55381188Y-59577968D01*
X55392739Y-59599578D01*
X55408285Y-59618520D01*
X55408876Y-59619005D01*
X55408285Y-59619490D01*
X55392739Y-59638432D01*
X55381188Y-59660042D01*
X55374074Y-59683491D01*
X55369437Y-59706803D01*
X55346748Y-59761577D01*
X55346746Y-59761582D01*
X55313806Y-59810881D01*
X55271880Y-59852807D01*
X55222581Y-59885747D01*
X55222580Y-59885748D01*
X55222579Y-59885748D01*
X55167801Y-59908438D01*
X55109651Y-59920005D01*
X55050357Y-59920005D01*
X54992207Y-59908438D01*
X54937429Y-59885748D01*
X54937428Y-59885748D01*
X54937427Y-59885747D01*
X54888128Y-59852807D01*
X54846202Y-59810881D01*
X54813262Y-59761582D01*
X54790573Y-59706806D01*
X54790571Y-59706802D01*
X54785934Y-59683490D01*
X54778821Y-59660041D01*
X54767270Y-59638431D01*
X54751725Y-59619489D01*
X54751135Y-59619005D01*
X54751724Y-59618521D01*
X54767270Y-59599579D01*
X54778821Y-59577968D01*
X54785934Y-59554519D01*
X54790571Y-59531208D01*
X54813261Y-59476430D01*
X54813263Y-59476427D01*
X54846202Y-59427129D01*
X54888128Y-59385203D01*
X54937427Y-59352263D01*
X54937429Y-59352262D01*
X54992207Y-59329572D01*
X55050357Y-59318005D01*
X55109651Y-59318005D01*
X55167801Y-59329572D01*
X55167801Y-59329572D01*
G37*
G36*
X67327809Y-59329572D02*
G01*
X67382587Y-59352262D01*
X67382589Y-59352263D01*
X67431888Y-59385203D01*
X67473814Y-59427129D01*
X67506753Y-59476427D01*
X67506755Y-59476430D01*
X67529445Y-59531207D01*
X67534082Y-59554519D01*
X67541196Y-59577968D01*
X67552747Y-59599578D01*
X67568293Y-59618520D01*
X67568884Y-59619005D01*
X67568293Y-59619490D01*
X67552747Y-59638432D01*
X67541196Y-59660042D01*
X67534082Y-59683491D01*
X67529445Y-59706803D01*
X67506756Y-59761577D01*
X67506754Y-59761582D01*
X67473814Y-59810881D01*
X67431888Y-59852807D01*
X67382589Y-59885747D01*
X67382588Y-59885748D01*
X67382587Y-59885748D01*
X67327809Y-59908438D01*
X67269659Y-59920005D01*
X67210365Y-59920005D01*
X67152215Y-59908438D01*
X67097437Y-59885748D01*
X67097436Y-59885748D01*
X67097435Y-59885747D01*
X67048136Y-59852807D01*
X67006210Y-59810881D01*
X66973270Y-59761582D01*
X66950581Y-59706806D01*
X66950579Y-59706802D01*
X66945942Y-59683490D01*
X66938829Y-59660041D01*
X66927278Y-59638431D01*
X66911733Y-59619489D01*
X66911143Y-59619005D01*
X66911732Y-59618521D01*
X66927278Y-59599579D01*
X66938829Y-59577968D01*
X66945942Y-59554519D01*
X66950579Y-59531208D01*
X66973269Y-59476430D01*
X66973271Y-59476427D01*
X67006210Y-59427129D01*
X67048136Y-59385203D01*
X67097435Y-59352263D01*
X67097437Y-59352262D01*
X67152215Y-59329572D01*
X67210365Y-59318005D01*
X67269659Y-59318005D01*
X67327809Y-59329572D01*
X67327809Y-59329572D01*
G37*
G36*
X68161142Y-59329572D02*
G01*
X68215920Y-59352262D01*
X68215922Y-59352263D01*
X68265221Y-59385203D01*
X68307147Y-59427129D01*
X68340086Y-59476427D01*
X68340088Y-59476430D01*
X68362778Y-59531207D01*
X68367415Y-59554519D01*
X68374529Y-59577968D01*
X68386080Y-59599578D01*
X68401626Y-59618520D01*
X68402217Y-59619005D01*
X68401622Y-59619494D01*
X68386077Y-59638436D01*
X68374526Y-59660046D01*
X68367414Y-59683495D01*
X68362778Y-59706802D01*
X68362776Y-59706806D01*
X68340087Y-59761582D01*
X68307147Y-59810881D01*
X68265221Y-59852807D01*
X68215922Y-59885747D01*
X68215921Y-59885748D01*
X68215920Y-59885748D01*
X68161142Y-59908438D01*
X68102992Y-59920005D01*
X68043698Y-59920005D01*
X67985548Y-59908438D01*
X67930770Y-59885748D01*
X67930769Y-59885748D01*
X67930768Y-59885747D01*
X67881469Y-59852807D01*
X67839543Y-59810881D01*
X67806603Y-59761582D01*
X67806601Y-59761577D01*
X67783913Y-59706806D01*
X67781580Y-59695078D01*
X67779275Y-59683489D01*
X67772164Y-59660046D01*
X67760613Y-59638435D01*
X67745068Y-59619493D01*
X67744473Y-59619005D01*
X67745068Y-59618517D01*
X67760613Y-59599575D01*
X67772164Y-59577965D01*
X67779276Y-59554517D01*
X67783912Y-59531210D01*
X67783913Y-59531204D01*
X67806602Y-59476430D01*
X67806604Y-59476427D01*
X67839543Y-59427129D01*
X67881469Y-59385203D01*
X67930768Y-59352263D01*
X67930770Y-59352262D01*
X67985548Y-59329572D01*
X68043698Y-59318005D01*
X68102992Y-59318005D01*
X68161142Y-59329572D01*
X68161142Y-59329572D01*
G37*
G36*
X56001134Y-59329572D02*
G01*
X56055912Y-59352262D01*
X56055914Y-59352263D01*
X56105213Y-59385203D01*
X56147139Y-59427129D01*
X56180078Y-59476427D01*
X56180080Y-59476430D01*
X56202770Y-59531207D01*
X56207407Y-59554519D01*
X56214521Y-59577968D01*
X56226072Y-59599578D01*
X56241618Y-59618520D01*
X56242209Y-59619005D01*
X56241614Y-59619494D01*
X56226069Y-59638436D01*
X56214518Y-59660046D01*
X56207406Y-59683495D01*
X56202770Y-59706802D01*
X56202768Y-59706806D01*
X56180079Y-59761582D01*
X56147139Y-59810881D01*
X56105213Y-59852807D01*
X56055914Y-59885747D01*
X56055913Y-59885748D01*
X56055912Y-59885748D01*
X56001134Y-59908438D01*
X55942984Y-59920005D01*
X55883690Y-59920005D01*
X55825540Y-59908438D01*
X55770762Y-59885748D01*
X55770761Y-59885748D01*
X55770760Y-59885747D01*
X55721461Y-59852807D01*
X55679535Y-59810881D01*
X55646595Y-59761582D01*
X55646593Y-59761577D01*
X55623905Y-59706806D01*
X55621572Y-59695078D01*
X55619267Y-59683489D01*
X55612156Y-59660046D01*
X55600605Y-59638435D01*
X55585060Y-59619493D01*
X55584465Y-59619005D01*
X55585060Y-59618517D01*
X55600605Y-59599575D01*
X55612156Y-59577965D01*
X55619268Y-59554517D01*
X55623904Y-59531210D01*
X55623905Y-59531204D01*
X55646594Y-59476430D01*
X55646596Y-59476427D01*
X55679535Y-59427129D01*
X55721461Y-59385203D01*
X55770760Y-59352263D01*
X55770762Y-59352262D01*
X55825540Y-59329572D01*
X55883690Y-59318005D01*
X55942984Y-59318005D01*
X56001134Y-59329572D01*
X56001134Y-59329572D01*
G37*
G36*
X66494475Y-59329571D02*
G01*
X66549253Y-59352261D01*
X66549255Y-59352262D01*
X66598554Y-59385202D01*
X66640480Y-59427128D01*
X66673419Y-59476426D01*
X66673421Y-59476429D01*
X66696111Y-59531207D01*
X66700748Y-59554519D01*
X66707861Y-59577968D01*
X66719412Y-59599578D01*
X66734957Y-59618520D01*
X66735547Y-59619004D01*
X66734958Y-59619488D01*
X66719412Y-59638430D01*
X66707861Y-59660041D01*
X66700748Y-59683490D01*
X66696111Y-59706801D01*
X66673422Y-59761577D01*
X66673420Y-59761581D01*
X66640480Y-59810880D01*
X66598554Y-59852806D01*
X66549255Y-59885746D01*
X66549254Y-59885747D01*
X66549253Y-59885747D01*
X66494475Y-59908437D01*
X66436325Y-59920004D01*
X66377031Y-59920004D01*
X66318881Y-59908437D01*
X66264103Y-59885747D01*
X66264102Y-59885747D01*
X66264101Y-59885746D01*
X66214802Y-59852806D01*
X66172876Y-59810880D01*
X66139936Y-59761581D01*
X66139934Y-59761577D01*
X66117245Y-59706802D01*
X66112608Y-59683490D01*
X66105494Y-59660041D01*
X66093943Y-59638431D01*
X66078397Y-59619489D01*
X66077806Y-59619004D01*
X66078401Y-59618515D01*
X66093946Y-59599573D01*
X66105497Y-59577963D01*
X66112609Y-59554514D01*
X66117245Y-59531207D01*
X66139935Y-59476429D01*
X66139937Y-59476426D01*
X66172876Y-59427128D01*
X66214802Y-59385202D01*
X66264101Y-59352262D01*
X66264103Y-59352261D01*
X66318881Y-59329571D01*
X66377031Y-59318004D01*
X66436325Y-59318004D01*
X66494475Y-59329571D01*
X66494475Y-59329571D01*
G37*
G36*
X54334467Y-59329571D02*
G01*
X54389245Y-59352261D01*
X54389247Y-59352262D01*
X54438546Y-59385202D01*
X54480472Y-59427128D01*
X54513411Y-59476426D01*
X54513413Y-59476429D01*
X54536103Y-59531207D01*
X54540740Y-59554519D01*
X54547853Y-59577968D01*
X54559404Y-59599578D01*
X54574949Y-59618520D01*
X54575539Y-59619004D01*
X54574950Y-59619488D01*
X54559404Y-59638430D01*
X54547853Y-59660041D01*
X54540740Y-59683490D01*
X54536103Y-59706801D01*
X54513414Y-59761577D01*
X54513412Y-59761581D01*
X54480472Y-59810880D01*
X54438546Y-59852806D01*
X54389247Y-59885746D01*
X54389246Y-59885747D01*
X54389245Y-59885747D01*
X54334467Y-59908437D01*
X54276317Y-59920004D01*
X54217023Y-59920004D01*
X54158873Y-59908437D01*
X54104095Y-59885747D01*
X54104094Y-59885747D01*
X54104093Y-59885746D01*
X54054794Y-59852806D01*
X54012868Y-59810880D01*
X53979928Y-59761581D01*
X53979926Y-59761577D01*
X53957237Y-59706802D01*
X53952600Y-59683490D01*
X53945486Y-59660041D01*
X53933935Y-59638431D01*
X53918389Y-59619489D01*
X53917798Y-59619004D01*
X53918393Y-59618515D01*
X53933938Y-59599573D01*
X53945489Y-59577963D01*
X53952601Y-59554514D01*
X53957237Y-59531207D01*
X53979927Y-59476429D01*
X53979929Y-59476426D01*
X54012868Y-59427128D01*
X54054794Y-59385202D01*
X54104093Y-59352262D01*
X54104095Y-59352261D01*
X54158873Y-59329571D01*
X54217023Y-59318004D01*
X54276317Y-59318004D01*
X54334467Y-59329571D01*
X54334467Y-59329571D01*
G37*
G36*
X65661142Y-59329570D02*
G01*
X65715920Y-59352260D01*
X65715922Y-59352261D01*
X65765221Y-59385201D01*
X65807147Y-59427127D01*
X65807150Y-59427132D01*
X65840088Y-59476428D01*
X65862778Y-59531205D01*
X65867415Y-59554517D01*
X65874529Y-59577966D01*
X65886080Y-59599576D01*
X65901626Y-59618518D01*
X65902217Y-59619003D01*
X65901622Y-59619492D01*
X65886077Y-59638434D01*
X65874526Y-59660044D01*
X65867414Y-59683493D01*
X65862778Y-59706800D01*
X65840088Y-59761577D01*
X65840087Y-59761580D01*
X65807147Y-59810879D01*
X65765221Y-59852805D01*
X65715922Y-59885745D01*
X65715921Y-59885746D01*
X65715920Y-59885746D01*
X65661142Y-59908436D01*
X65602992Y-59920003D01*
X65543698Y-59920003D01*
X65485548Y-59908436D01*
X65430770Y-59885746D01*
X65430769Y-59885746D01*
X65430768Y-59885745D01*
X65381469Y-59852805D01*
X65339543Y-59810879D01*
X65306603Y-59761580D01*
X65306602Y-59761577D01*
X65283912Y-59706801D01*
X65279275Y-59683489D01*
X65272161Y-59660040D01*
X65260610Y-59638430D01*
X65245064Y-59619488D01*
X65244473Y-59619003D01*
X65245068Y-59618514D01*
X65260613Y-59599572D01*
X65272164Y-59577962D01*
X65279276Y-59554513D01*
X65283912Y-59531206D01*
X65306602Y-59476428D01*
X65339540Y-59427132D01*
X65339543Y-59427127D01*
X65381469Y-59385201D01*
X65430768Y-59352261D01*
X65430770Y-59352260D01*
X65485548Y-59329570D01*
X65543698Y-59318003D01*
X65602992Y-59318003D01*
X65661142Y-59329570D01*
X65661142Y-59329570D01*
G37*
G36*
X53501134Y-59329570D02*
G01*
X53555912Y-59352260D01*
X53555914Y-59352261D01*
X53605213Y-59385201D01*
X53647139Y-59427127D01*
X53647142Y-59427132D01*
X53680080Y-59476428D01*
X53702770Y-59531205D01*
X53707407Y-59554517D01*
X53714521Y-59577966D01*
X53726072Y-59599576D01*
X53741618Y-59618518D01*
X53742209Y-59619003D01*
X53741614Y-59619492D01*
X53726069Y-59638434D01*
X53714518Y-59660044D01*
X53707406Y-59683493D01*
X53702770Y-59706800D01*
X53680080Y-59761577D01*
X53680079Y-59761580D01*
X53647139Y-59810879D01*
X53605213Y-59852805D01*
X53555914Y-59885745D01*
X53555913Y-59885746D01*
X53555912Y-59885746D01*
X53501134Y-59908436D01*
X53442984Y-59920003D01*
X53383690Y-59920003D01*
X53325540Y-59908436D01*
X53270762Y-59885746D01*
X53270761Y-59885746D01*
X53270760Y-59885745D01*
X53221461Y-59852805D01*
X53179535Y-59810879D01*
X53146595Y-59761580D01*
X53146594Y-59761577D01*
X53123904Y-59706801D01*
X53119267Y-59683489D01*
X53112153Y-59660040D01*
X53100602Y-59638430D01*
X53085056Y-59619488D01*
X53084465Y-59619003D01*
X53085060Y-59618514D01*
X53100605Y-59599572D01*
X53112156Y-59577962D01*
X53119268Y-59554513D01*
X53123904Y-59531206D01*
X53146594Y-59476428D01*
X53179532Y-59427132D01*
X53179535Y-59427127D01*
X53221461Y-59385201D01*
X53270760Y-59352261D01*
X53270762Y-59352260D01*
X53325540Y-59329570D01*
X53383690Y-59318003D01*
X53442984Y-59318003D01*
X53501134Y-59329570D01*
X53501134Y-59329570D01*
G37*
G36*
X52667801Y-59329569D02*
G01*
X52722579Y-59352259D01*
X52722581Y-59352260D01*
X52771880Y-59385200D01*
X52813806Y-59427126D01*
X52846746Y-59476425D01*
X52846747Y-59476427D01*
X52869437Y-59531204D01*
X52874074Y-59554516D01*
X52881188Y-59577965D01*
X52892739Y-59599575D01*
X52908285Y-59618517D01*
X52908876Y-59619002D01*
X52908281Y-59619491D01*
X52892736Y-59638433D01*
X52881185Y-59660043D01*
X52874073Y-59683492D01*
X52869437Y-59706799D01*
X52869434Y-59706806D01*
X52846746Y-59761579D01*
X52813806Y-59810878D01*
X52771880Y-59852804D01*
X52722581Y-59885744D01*
X52722580Y-59885745D01*
X52722579Y-59885745D01*
X52667801Y-59908435D01*
X52609651Y-59920002D01*
X52550357Y-59920002D01*
X52492207Y-59908435D01*
X52437429Y-59885745D01*
X52437428Y-59885745D01*
X52437427Y-59885744D01*
X52388128Y-59852804D01*
X52384382Y-59849058D01*
X52365446Y-59833518D01*
X52349535Y-59825014D01*
X52346854Y-59816176D01*
X52335306Y-59794571D01*
X52313262Y-59761579D01*
X52290574Y-59706806D01*
X52290571Y-59706799D01*
X52279004Y-59648649D01*
X52279004Y-59589355D01*
X52290571Y-59531205D01*
X52313261Y-59476427D01*
X52313262Y-59476425D01*
X52346202Y-59427126D01*
X52388128Y-59385200D01*
X52437427Y-59352260D01*
X52437429Y-59352259D01*
X52492207Y-59329569D01*
X52550357Y-59318002D01*
X52609651Y-59318002D01*
X52667801Y-59329569D01*
X52667801Y-59329569D01*
G37*
G36*
X64827809Y-59329569D02*
G01*
X64882587Y-59352259D01*
X64882589Y-59352260D01*
X64931888Y-59385200D01*
X64973814Y-59427126D01*
X65006754Y-59476425D01*
X65006755Y-59476427D01*
X65029445Y-59531204D01*
X65034082Y-59554516D01*
X65041196Y-59577965D01*
X65052747Y-59599575D01*
X65068293Y-59618517D01*
X65068884Y-59619002D01*
X65068289Y-59619491D01*
X65052744Y-59638433D01*
X65041193Y-59660043D01*
X65034081Y-59683492D01*
X65029445Y-59706799D01*
X65029442Y-59706806D01*
X65006754Y-59761579D01*
X64973814Y-59810878D01*
X64931888Y-59852804D01*
X64882589Y-59885744D01*
X64882588Y-59885745D01*
X64882587Y-59885745D01*
X64827809Y-59908435D01*
X64769659Y-59920002D01*
X64710365Y-59920002D01*
X64652215Y-59908435D01*
X64597437Y-59885745D01*
X64597436Y-59885745D01*
X64597435Y-59885744D01*
X64548136Y-59852804D01*
X64544390Y-59849058D01*
X64525454Y-59833518D01*
X64509543Y-59825014D01*
X64506862Y-59816176D01*
X64495314Y-59794571D01*
X64473270Y-59761579D01*
X64450582Y-59706806D01*
X64450579Y-59706799D01*
X64439012Y-59648649D01*
X64439012Y-59589355D01*
X64450579Y-59531205D01*
X64473269Y-59476427D01*
X64473270Y-59476425D01*
X64506210Y-59427126D01*
X64548136Y-59385200D01*
X64597435Y-59352260D01*
X64597437Y-59352259D01*
X64652215Y-59329569D01*
X64710365Y-59318002D01*
X64769659Y-59318002D01*
X64827809Y-59329569D01*
X64827809Y-59329569D01*
G37*
G36*
X68161142Y-57331567D02*
G01*
X68215920Y-57354257D01*
X68215922Y-57354258D01*
X68265221Y-57387198D01*
X68307147Y-57429124D01*
X68340087Y-57478423D01*
X68340088Y-57478425D01*
X68362778Y-57533202D01*
X68367415Y-57556514D01*
X68374529Y-57579963D01*
X68386080Y-57601573D01*
X68401626Y-57620515D01*
X68402217Y-57621000D01*
X68401626Y-57621485D01*
X68386080Y-57640427D01*
X68374529Y-57662037D01*
X68367415Y-57685486D01*
X68362778Y-57708798D01*
X68340088Y-57763575D01*
X68340087Y-57763577D01*
X68307147Y-57812876D01*
X68265221Y-57854802D01*
X68215922Y-57887742D01*
X68215921Y-57887743D01*
X68215920Y-57887743D01*
X68161142Y-57910433D01*
X68102992Y-57922000D01*
X68043698Y-57922000D01*
X67985548Y-57910433D01*
X67930770Y-57887743D01*
X67930769Y-57887743D01*
X67930768Y-57887742D01*
X67881469Y-57854802D01*
X67839543Y-57812876D01*
X67806603Y-57763577D01*
X67806602Y-57763575D01*
X67783913Y-57708801D01*
X67781580Y-57697073D01*
X67779275Y-57685484D01*
X67772164Y-57662041D01*
X67760613Y-57640430D01*
X67745068Y-57621488D01*
X67744473Y-57621000D01*
X67745068Y-57620512D01*
X67760613Y-57601570D01*
X67772164Y-57579960D01*
X67779276Y-57556514D01*
X67781580Y-57544927D01*
X67783913Y-57533199D01*
X67806602Y-57478425D01*
X67806603Y-57478423D01*
X67839543Y-57429124D01*
X67881469Y-57387198D01*
X67930768Y-57354258D01*
X67930770Y-57354257D01*
X67985548Y-57331567D01*
X68043698Y-57320000D01*
X68102992Y-57320000D01*
X68161142Y-57331567D01*
X68161142Y-57331567D01*
G37*
G36*
X68994475Y-57331567D02*
G01*
X69049253Y-57354257D01*
X69049255Y-57354258D01*
X69098554Y-57387198D01*
X69140480Y-57429124D01*
X69173420Y-57478423D01*
X69173421Y-57478425D01*
X69196111Y-57533203D01*
X69200748Y-57556514D01*
X69207861Y-57579963D01*
X69219412Y-57601574D01*
X69234958Y-57620516D01*
X69235548Y-57621000D01*
X69234957Y-57621485D01*
X69219412Y-57640427D01*
X69207861Y-57662037D01*
X69200748Y-57685486D01*
X69196111Y-57708797D01*
X69196109Y-57708801D01*
X69173420Y-57763577D01*
X69140480Y-57812876D01*
X69098554Y-57854802D01*
X69049255Y-57887742D01*
X69049254Y-57887743D01*
X69049253Y-57887743D01*
X68994475Y-57910433D01*
X68936325Y-57922000D01*
X68877031Y-57922000D01*
X68818881Y-57910433D01*
X68764103Y-57887743D01*
X68764102Y-57887743D01*
X68764101Y-57887742D01*
X68714802Y-57854802D01*
X68672876Y-57812876D01*
X68639936Y-57763577D01*
X68639935Y-57763575D01*
X68617246Y-57708801D01*
X68614913Y-57697073D01*
X68612608Y-57685484D01*
X68605497Y-57662041D01*
X68593946Y-57640430D01*
X68578401Y-57621488D01*
X68577806Y-57621000D01*
X68578401Y-57620512D01*
X68593946Y-57601570D01*
X68605497Y-57579960D01*
X68612609Y-57556514D01*
X68614913Y-57544927D01*
X68617246Y-57533199D01*
X68639935Y-57478425D01*
X68639936Y-57478423D01*
X68672876Y-57429124D01*
X68714802Y-57387198D01*
X68764101Y-57354258D01*
X68764103Y-57354257D01*
X68818881Y-57331567D01*
X68877031Y-57320000D01*
X68936325Y-57320000D01*
X68994475Y-57331567D01*
X68994475Y-57331567D01*
G37*
G36*
X69827809Y-57331567D02*
G01*
X69882587Y-57354257D01*
X69882589Y-57354258D01*
X69931888Y-57387198D01*
X69973814Y-57429124D01*
X70006754Y-57478423D01*
X70006755Y-57478425D01*
X70029445Y-57533203D01*
X70041012Y-57591353D01*
X70041012Y-57650647D01*
X70029445Y-57708797D01*
X70029443Y-57708801D01*
X70006754Y-57763577D01*
X69973814Y-57812876D01*
X69931888Y-57854802D01*
X69882589Y-57887742D01*
X69882588Y-57887743D01*
X69882587Y-57887743D01*
X69827809Y-57910433D01*
X69769659Y-57922000D01*
X69710365Y-57922000D01*
X69652215Y-57910433D01*
X69597437Y-57887743D01*
X69597436Y-57887743D01*
X69597435Y-57887742D01*
X69548136Y-57854802D01*
X69506210Y-57812876D01*
X69473270Y-57763577D01*
X69450581Y-57708801D01*
X69450579Y-57708797D01*
X69445942Y-57685486D01*
X69438829Y-57662037D01*
X69427278Y-57640426D01*
X69411732Y-57621484D01*
X69411142Y-57621000D01*
X69411733Y-57620515D01*
X69427278Y-57601573D01*
X69438829Y-57579963D01*
X69445942Y-57556514D01*
X69450579Y-57533203D01*
X69473269Y-57478425D01*
X69473270Y-57478423D01*
X69506210Y-57429124D01*
X69548136Y-57387198D01*
X69597435Y-57354258D01*
X69597437Y-57354257D01*
X69652215Y-57331567D01*
X69710365Y-57320000D01*
X69769659Y-57320000D01*
X69827809Y-57331567D01*
X69827809Y-57331567D01*
G37*
G36*
X56001134Y-57331567D02*
G01*
X56055912Y-57354257D01*
X56055914Y-57354258D01*
X56105213Y-57387198D01*
X56147139Y-57429124D01*
X56180079Y-57478423D01*
X56180080Y-57478425D01*
X56202770Y-57533202D01*
X56207407Y-57556514D01*
X56214521Y-57579963D01*
X56226072Y-57601573D01*
X56241618Y-57620515D01*
X56242209Y-57621000D01*
X56241618Y-57621485D01*
X56226072Y-57640427D01*
X56214521Y-57662037D01*
X56207407Y-57685486D01*
X56202770Y-57708798D01*
X56180080Y-57763575D01*
X56180079Y-57763577D01*
X56147139Y-57812876D01*
X56105213Y-57854802D01*
X56055914Y-57887742D01*
X56055913Y-57887743D01*
X56055912Y-57887743D01*
X56001134Y-57910433D01*
X55942984Y-57922000D01*
X55883690Y-57922000D01*
X55825540Y-57910433D01*
X55770762Y-57887743D01*
X55770761Y-57887743D01*
X55770760Y-57887742D01*
X55721461Y-57854802D01*
X55679535Y-57812876D01*
X55646595Y-57763577D01*
X55646594Y-57763575D01*
X55623905Y-57708801D01*
X55621572Y-57697073D01*
X55619267Y-57685484D01*
X55612156Y-57662041D01*
X55600605Y-57640430D01*
X55585060Y-57621488D01*
X55584465Y-57621000D01*
X55585060Y-57620512D01*
X55600605Y-57601570D01*
X55612156Y-57579960D01*
X55619268Y-57556514D01*
X55621572Y-57544927D01*
X55623905Y-57533199D01*
X55646594Y-57478425D01*
X55646595Y-57478423D01*
X55679535Y-57429124D01*
X55721461Y-57387198D01*
X55770760Y-57354258D01*
X55770762Y-57354257D01*
X55825540Y-57331567D01*
X55883690Y-57320000D01*
X55942984Y-57320000D01*
X56001134Y-57331567D01*
X56001134Y-57331567D01*
G37*
G36*
X56834467Y-57331567D02*
G01*
X56889245Y-57354257D01*
X56889247Y-57354258D01*
X56938546Y-57387198D01*
X56980472Y-57429124D01*
X57013412Y-57478423D01*
X57013413Y-57478425D01*
X57036103Y-57533203D01*
X57040740Y-57556514D01*
X57047853Y-57579963D01*
X57059404Y-57601574D01*
X57074950Y-57620516D01*
X57075540Y-57621000D01*
X57074949Y-57621485D01*
X57059404Y-57640427D01*
X57047853Y-57662037D01*
X57040740Y-57685486D01*
X57036103Y-57708797D01*
X57036101Y-57708801D01*
X57013412Y-57763577D01*
X56980472Y-57812876D01*
X56938546Y-57854802D01*
X56889247Y-57887742D01*
X56889246Y-57887743D01*
X56889245Y-57887743D01*
X56834467Y-57910433D01*
X56776317Y-57922000D01*
X56717023Y-57922000D01*
X56658873Y-57910433D01*
X56604095Y-57887743D01*
X56604094Y-57887743D01*
X56604093Y-57887742D01*
X56554794Y-57854802D01*
X56512868Y-57812876D01*
X56479928Y-57763577D01*
X56479927Y-57763575D01*
X56457238Y-57708801D01*
X56454905Y-57697073D01*
X56452600Y-57685484D01*
X56445489Y-57662041D01*
X56433938Y-57640430D01*
X56418393Y-57621488D01*
X56417798Y-57621000D01*
X56418393Y-57620512D01*
X56433938Y-57601570D01*
X56445489Y-57579960D01*
X56452601Y-57556514D01*
X56454905Y-57544927D01*
X56457238Y-57533199D01*
X56479927Y-57478425D01*
X56479928Y-57478423D01*
X56512868Y-57429124D01*
X56554794Y-57387198D01*
X56604093Y-57354258D01*
X56604095Y-57354257D01*
X56658873Y-57331567D01*
X56717023Y-57320000D01*
X56776317Y-57320000D01*
X56834467Y-57331567D01*
X56834467Y-57331567D01*
G37*
G36*
X57667801Y-57331567D02*
G01*
X57722579Y-57354257D01*
X57722581Y-57354258D01*
X57771880Y-57387198D01*
X57813806Y-57429124D01*
X57846746Y-57478423D01*
X57846747Y-57478425D01*
X57869437Y-57533203D01*
X57881004Y-57591353D01*
X57881004Y-57650647D01*
X57869437Y-57708797D01*
X57869435Y-57708801D01*
X57846746Y-57763577D01*
X57813806Y-57812876D01*
X57771880Y-57854802D01*
X57722581Y-57887742D01*
X57722580Y-57887743D01*
X57722579Y-57887743D01*
X57667801Y-57910433D01*
X57609651Y-57922000D01*
X57550357Y-57922000D01*
X57492207Y-57910433D01*
X57437429Y-57887743D01*
X57437428Y-57887743D01*
X57437427Y-57887742D01*
X57388128Y-57854802D01*
X57346202Y-57812876D01*
X57313262Y-57763577D01*
X57290573Y-57708801D01*
X57290571Y-57708797D01*
X57285934Y-57685486D01*
X57278821Y-57662037D01*
X57267270Y-57640426D01*
X57251724Y-57621484D01*
X57251134Y-57621000D01*
X57251725Y-57620515D01*
X57267270Y-57601573D01*
X57278821Y-57579963D01*
X57285934Y-57556514D01*
X57290571Y-57533203D01*
X57313261Y-57478425D01*
X57313262Y-57478423D01*
X57346202Y-57429124D01*
X57388128Y-57387198D01*
X57437427Y-57354258D01*
X57437429Y-57354257D01*
X57492207Y-57331567D01*
X57550357Y-57320000D01*
X57609651Y-57320000D01*
X57667801Y-57331567D01*
X57667801Y-57331567D01*
G37*
G36*
X67327809Y-57331567D02*
G01*
X67382587Y-57354257D01*
X67382589Y-57354258D01*
X67431888Y-57387198D01*
X67473814Y-57429124D01*
X67506754Y-57478423D01*
X67506755Y-57478425D01*
X67529445Y-57533202D01*
X67534082Y-57556514D01*
X67541196Y-57579963D01*
X67552747Y-57601573D01*
X67568293Y-57620515D01*
X67568884Y-57621000D01*
X67568293Y-57621485D01*
X67552747Y-57640427D01*
X67541196Y-57662037D01*
X67534082Y-57685486D01*
X67529445Y-57708798D01*
X67506755Y-57763575D01*
X67506754Y-57763577D01*
X67473814Y-57812876D01*
X67431888Y-57854802D01*
X67382589Y-57887742D01*
X67382588Y-57887743D01*
X67382587Y-57887743D01*
X67327809Y-57910433D01*
X67269659Y-57922000D01*
X67210365Y-57922000D01*
X67152215Y-57910433D01*
X67097437Y-57887743D01*
X67097436Y-57887743D01*
X67097435Y-57887742D01*
X67048136Y-57854802D01*
X67006210Y-57812876D01*
X66973270Y-57763577D01*
X66950581Y-57708801D01*
X66950579Y-57708797D01*
X66945942Y-57685486D01*
X66938829Y-57662037D01*
X66927278Y-57640426D01*
X66911732Y-57621484D01*
X66911142Y-57621000D01*
X66911733Y-57620515D01*
X66927278Y-57601573D01*
X66938829Y-57579963D01*
X66945942Y-57556514D01*
X66950579Y-57533203D01*
X66973269Y-57478425D01*
X66973270Y-57478423D01*
X67006210Y-57429124D01*
X67048136Y-57387198D01*
X67097435Y-57354258D01*
X67097437Y-57354257D01*
X67152215Y-57331567D01*
X67210365Y-57320000D01*
X67269659Y-57320000D01*
X67327809Y-57331567D01*
X67327809Y-57331567D01*
G37*
G36*
X65661142Y-57331567D02*
G01*
X65715920Y-57354257D01*
X65715922Y-57354258D01*
X65765221Y-57387198D01*
X65807147Y-57429124D01*
X65840087Y-57478423D01*
X65840088Y-57478425D01*
X65862778Y-57533202D01*
X65867415Y-57556514D01*
X65874529Y-57579963D01*
X65886080Y-57601573D01*
X65901626Y-57620515D01*
X65902217Y-57621000D01*
X65901626Y-57621485D01*
X65886080Y-57640427D01*
X65874529Y-57662037D01*
X65867415Y-57685486D01*
X65862778Y-57708798D01*
X65840088Y-57763575D01*
X65840087Y-57763577D01*
X65807147Y-57812876D01*
X65765221Y-57854802D01*
X65715922Y-57887742D01*
X65715921Y-57887743D01*
X65715920Y-57887743D01*
X65661142Y-57910433D01*
X65602992Y-57922000D01*
X65543698Y-57922000D01*
X65485548Y-57910433D01*
X65430770Y-57887743D01*
X65430769Y-57887743D01*
X65430768Y-57887742D01*
X65381469Y-57854802D01*
X65339543Y-57812876D01*
X65306603Y-57763577D01*
X65306602Y-57763575D01*
X65283913Y-57708801D01*
X65281580Y-57697073D01*
X65279275Y-57685484D01*
X65272164Y-57662041D01*
X65260613Y-57640430D01*
X65245068Y-57621488D01*
X65244473Y-57621000D01*
X65245068Y-57620512D01*
X65260613Y-57601570D01*
X65272164Y-57579960D01*
X65279276Y-57556514D01*
X65281580Y-57544927D01*
X65283913Y-57533199D01*
X65306602Y-57478425D01*
X65306603Y-57478423D01*
X65339543Y-57429124D01*
X65381469Y-57387198D01*
X65430768Y-57354258D01*
X65430770Y-57354257D01*
X65485548Y-57331567D01*
X65543698Y-57320000D01*
X65602992Y-57320000D01*
X65661142Y-57331567D01*
X65661142Y-57331567D01*
G37*
G36*
X66494475Y-57331567D02*
G01*
X66549253Y-57354257D01*
X66549255Y-57354258D01*
X66598554Y-57387198D01*
X66640480Y-57429124D01*
X66673420Y-57478423D01*
X66673421Y-57478425D01*
X66696111Y-57533203D01*
X66700748Y-57556514D01*
X66707861Y-57579963D01*
X66719412Y-57601574D01*
X66734958Y-57620516D01*
X66735548Y-57621000D01*
X66734957Y-57621485D01*
X66719412Y-57640427D01*
X66707861Y-57662037D01*
X66700748Y-57685486D01*
X66696111Y-57708797D01*
X66696109Y-57708801D01*
X66673420Y-57763577D01*
X66640480Y-57812876D01*
X66598554Y-57854802D01*
X66549255Y-57887742D01*
X66549254Y-57887743D01*
X66549253Y-57887743D01*
X66494475Y-57910433D01*
X66436325Y-57922000D01*
X66377031Y-57922000D01*
X66318881Y-57910433D01*
X66264103Y-57887743D01*
X66264102Y-57887743D01*
X66264101Y-57887742D01*
X66214802Y-57854802D01*
X66172876Y-57812876D01*
X66139936Y-57763577D01*
X66139935Y-57763575D01*
X66117246Y-57708801D01*
X66114913Y-57697073D01*
X66112608Y-57685484D01*
X66105497Y-57662041D01*
X66093946Y-57640430D01*
X66078401Y-57621488D01*
X66077806Y-57621000D01*
X66078401Y-57620512D01*
X66093946Y-57601570D01*
X66105497Y-57579960D01*
X66112609Y-57556514D01*
X66114913Y-57544927D01*
X66117246Y-57533199D01*
X66139935Y-57478425D01*
X66139936Y-57478423D01*
X66172876Y-57429124D01*
X66214802Y-57387198D01*
X66264101Y-57354258D01*
X66264103Y-57354257D01*
X66318881Y-57331567D01*
X66377031Y-57320000D01*
X66436325Y-57320000D01*
X66494475Y-57331567D01*
X66494475Y-57331567D01*
G37*
G36*
X64827809Y-57331567D02*
G01*
X64882587Y-57354257D01*
X64882589Y-57354258D01*
X64931888Y-57387198D01*
X64973814Y-57429124D01*
X65006754Y-57478423D01*
X65006755Y-57478425D01*
X65029445Y-57533202D01*
X65034082Y-57556514D01*
X65041196Y-57579963D01*
X65052747Y-57601573D01*
X65068293Y-57620515D01*
X65068884Y-57621000D01*
X65068293Y-57621485D01*
X65052747Y-57640427D01*
X65041196Y-57662037D01*
X65034082Y-57685486D01*
X65029445Y-57708798D01*
X65006755Y-57763575D01*
X65006754Y-57763577D01*
X64973814Y-57812876D01*
X64931888Y-57854802D01*
X64882589Y-57887742D01*
X64882588Y-57887743D01*
X64882587Y-57887743D01*
X64827809Y-57910433D01*
X64769659Y-57922000D01*
X64710365Y-57922000D01*
X64652215Y-57910433D01*
X64597437Y-57887743D01*
X64597436Y-57887743D01*
X64597435Y-57887742D01*
X64548136Y-57854802D01*
X64506210Y-57812876D01*
X64473270Y-57763577D01*
X64450581Y-57708801D01*
X64450579Y-57708797D01*
X64439012Y-57650647D01*
X64439012Y-57591353D01*
X64450579Y-57533203D01*
X64473269Y-57478425D01*
X64473270Y-57478423D01*
X64506210Y-57429124D01*
X64548136Y-57387198D01*
X64597435Y-57354258D01*
X64597437Y-57354257D01*
X64652215Y-57331567D01*
X64710365Y-57320000D01*
X64769659Y-57320000D01*
X64827809Y-57331567D01*
X64827809Y-57331567D01*
G37*
G36*
X55167801Y-57331567D02*
G01*
X55222579Y-57354257D01*
X55222581Y-57354258D01*
X55271880Y-57387198D01*
X55313806Y-57429124D01*
X55346746Y-57478423D01*
X55346747Y-57478425D01*
X55369437Y-57533202D01*
X55374074Y-57556514D01*
X55381188Y-57579963D01*
X55392739Y-57601573D01*
X55408285Y-57620515D01*
X55408876Y-57621000D01*
X55408285Y-57621485D01*
X55392739Y-57640427D01*
X55381188Y-57662037D01*
X55374074Y-57685486D01*
X55369437Y-57708798D01*
X55346747Y-57763575D01*
X55346746Y-57763577D01*
X55313806Y-57812876D01*
X55271880Y-57854802D01*
X55222581Y-57887742D01*
X55222580Y-57887743D01*
X55222579Y-57887743D01*
X55167801Y-57910433D01*
X55109651Y-57922000D01*
X55050357Y-57922000D01*
X54992207Y-57910433D01*
X54937429Y-57887743D01*
X54937428Y-57887743D01*
X54937427Y-57887742D01*
X54888128Y-57854802D01*
X54846202Y-57812876D01*
X54813262Y-57763577D01*
X54790573Y-57708801D01*
X54790571Y-57708797D01*
X54785934Y-57685486D01*
X54778821Y-57662037D01*
X54767270Y-57640426D01*
X54751724Y-57621484D01*
X54751134Y-57621000D01*
X54751725Y-57620515D01*
X54767270Y-57601573D01*
X54778821Y-57579963D01*
X54785934Y-57556514D01*
X54790571Y-57533203D01*
X54813261Y-57478425D01*
X54813262Y-57478423D01*
X54846202Y-57429124D01*
X54888128Y-57387198D01*
X54937427Y-57354258D01*
X54937429Y-57354257D01*
X54992207Y-57331567D01*
X55050357Y-57320000D01*
X55109651Y-57320000D01*
X55167801Y-57331567D01*
X55167801Y-57331567D01*
G37*
G36*
X54334467Y-57331567D02*
G01*
X54389245Y-57354257D01*
X54389247Y-57354258D01*
X54438546Y-57387198D01*
X54480472Y-57429124D01*
X54513412Y-57478423D01*
X54513413Y-57478425D01*
X54536103Y-57533203D01*
X54540740Y-57556514D01*
X54547853Y-57579963D01*
X54559404Y-57601574D01*
X54574950Y-57620516D01*
X54575540Y-57621000D01*
X54574949Y-57621485D01*
X54559404Y-57640427D01*
X54547853Y-57662037D01*
X54540740Y-57685486D01*
X54536103Y-57708797D01*
X54536101Y-57708801D01*
X54513412Y-57763577D01*
X54480472Y-57812876D01*
X54438546Y-57854802D01*
X54389247Y-57887742D01*
X54389246Y-57887743D01*
X54389245Y-57887743D01*
X54334467Y-57910433D01*
X54276317Y-57922000D01*
X54217023Y-57922000D01*
X54158873Y-57910433D01*
X54104095Y-57887743D01*
X54104094Y-57887743D01*
X54104093Y-57887742D01*
X54054794Y-57854802D01*
X54012868Y-57812876D01*
X53979928Y-57763577D01*
X53979927Y-57763575D01*
X53957238Y-57708801D01*
X53954905Y-57697073D01*
X53952600Y-57685484D01*
X53945489Y-57662041D01*
X53933938Y-57640430D01*
X53918393Y-57621488D01*
X53917798Y-57621000D01*
X53918393Y-57620512D01*
X53933938Y-57601570D01*
X53945489Y-57579960D01*
X53952601Y-57556514D01*
X53954905Y-57544927D01*
X53957238Y-57533199D01*
X53979927Y-57478425D01*
X53979928Y-57478423D01*
X54012868Y-57429124D01*
X54054794Y-57387198D01*
X54104093Y-57354258D01*
X54104095Y-57354257D01*
X54158873Y-57331567D01*
X54217023Y-57320000D01*
X54276317Y-57320000D01*
X54334467Y-57331567D01*
X54334467Y-57331567D01*
G37*
G36*
X53501134Y-57331567D02*
G01*
X53555912Y-57354257D01*
X53555914Y-57354258D01*
X53605213Y-57387198D01*
X53647139Y-57429124D01*
X53680079Y-57478423D01*
X53680080Y-57478425D01*
X53702770Y-57533202D01*
X53707407Y-57556514D01*
X53714521Y-57579963D01*
X53726072Y-57601573D01*
X53741618Y-57620515D01*
X53742209Y-57621000D01*
X53741618Y-57621485D01*
X53726072Y-57640427D01*
X53714521Y-57662037D01*
X53707407Y-57685486D01*
X53702770Y-57708798D01*
X53680080Y-57763575D01*
X53680079Y-57763577D01*
X53647139Y-57812876D01*
X53605213Y-57854802D01*
X53555914Y-57887742D01*
X53555913Y-57887743D01*
X53555912Y-57887743D01*
X53501134Y-57910433D01*
X53442984Y-57922000D01*
X53383690Y-57922000D01*
X53325540Y-57910433D01*
X53270762Y-57887743D01*
X53270761Y-57887743D01*
X53270760Y-57887742D01*
X53221461Y-57854802D01*
X53179535Y-57812876D01*
X53146595Y-57763577D01*
X53146594Y-57763575D01*
X53123905Y-57708801D01*
X53121572Y-57697073D01*
X53119267Y-57685484D01*
X53112156Y-57662041D01*
X53100605Y-57640430D01*
X53085060Y-57621488D01*
X53084465Y-57621000D01*
X53085060Y-57620512D01*
X53100605Y-57601570D01*
X53112156Y-57579960D01*
X53119268Y-57556514D01*
X53121572Y-57544927D01*
X53123905Y-57533199D01*
X53146594Y-57478425D01*
X53146595Y-57478423D01*
X53179535Y-57429124D01*
X53221461Y-57387198D01*
X53270760Y-57354258D01*
X53270762Y-57354257D01*
X53325540Y-57331567D01*
X53383690Y-57320000D01*
X53442984Y-57320000D01*
X53501134Y-57331567D01*
X53501134Y-57331567D01*
G37*
G36*
X52667801Y-57331567D02*
G01*
X52722579Y-57354257D01*
X52722581Y-57354258D01*
X52771880Y-57387198D01*
X52813806Y-57429124D01*
X52846746Y-57478423D01*
X52846747Y-57478425D01*
X52869437Y-57533202D01*
X52874074Y-57556514D01*
X52881188Y-57579963D01*
X52892739Y-57601573D01*
X52908285Y-57620515D01*
X52908876Y-57621000D01*
X52908285Y-57621485D01*
X52892739Y-57640427D01*
X52881188Y-57662037D01*
X52874074Y-57685486D01*
X52869437Y-57708798D01*
X52846747Y-57763575D01*
X52846746Y-57763577D01*
X52813806Y-57812876D01*
X52771880Y-57854802D01*
X52722581Y-57887742D01*
X52722580Y-57887743D01*
X52722579Y-57887743D01*
X52667801Y-57910433D01*
X52609651Y-57922000D01*
X52550357Y-57922000D01*
X52492207Y-57910433D01*
X52437429Y-57887743D01*
X52437428Y-57887743D01*
X52437427Y-57887742D01*
X52388128Y-57854802D01*
X52346202Y-57812876D01*
X52313262Y-57763577D01*
X52290573Y-57708801D01*
X52290571Y-57708797D01*
X52279004Y-57650647D01*
X52279004Y-57591353D01*
X52290571Y-57533203D01*
X52313261Y-57478425D01*
X52313262Y-57478423D01*
X52346202Y-57429124D01*
X52388128Y-57387198D01*
X52437427Y-57354258D01*
X52437429Y-57354257D01*
X52492207Y-57331567D01*
X52550357Y-57320000D01*
X52609651Y-57320000D01*
X52667801Y-57331567D01*
X52667801Y-57331567D01*
G37*
G36*
X51380443Y-55455519D02*
G01*
X51446628Y-55462038D01*
X51616467Y-55513558D01*
X51772992Y-55597223D01*
X51808730Y-55626553D01*
X51910187Y-55709815D01*
X51993449Y-55811272D01*
X52022779Y-55847010D01*
X52106444Y-56003535D01*
X52157964Y-56173374D01*
X52175360Y-56350001D01*
X52157964Y-56526628D01*
X52106444Y-56696467D01*
X52022779Y-56852992D01*
X51993449Y-56888730D01*
X51910187Y-56990187D01*
X51808730Y-57073449D01*
X51772992Y-57102779D01*
X51616467Y-57186444D01*
X51446628Y-57237964D01*
X51380444Y-57244482D01*
X51314261Y-57251001D01*
X51225741Y-57251001D01*
X51159558Y-57244482D01*
X51093374Y-57237964D01*
X50923535Y-57186444D01*
X50767010Y-57102779D01*
X50731272Y-57073449D01*
X50629815Y-56990187D01*
X50546553Y-56888730D01*
X50517223Y-56852992D01*
X50433558Y-56696467D01*
X50382038Y-56526628D01*
X50364642Y-56350001D01*
X50382038Y-56173374D01*
X50433558Y-56003535D01*
X50517223Y-55847010D01*
X50546553Y-55811272D01*
X50629815Y-55709815D01*
X50731272Y-55626553D01*
X50767010Y-55597223D01*
X50923535Y-55513558D01*
X51093374Y-55462038D01*
X51159559Y-55455519D01*
X51225741Y-55449001D01*
X51314261Y-55449001D01*
X51380443Y-55455519D01*
X51380443Y-55455519D01*
G37*
G36*
X63540451Y-55455519D02*
G01*
X63606636Y-55462038D01*
X63776475Y-55513558D01*
X63933000Y-55597223D01*
X63968738Y-55626553D01*
X64070195Y-55709815D01*
X64153457Y-55811272D01*
X64182787Y-55847010D01*
X64266452Y-56003535D01*
X64317972Y-56173374D01*
X64335368Y-56350001D01*
X64317972Y-56526628D01*
X64266452Y-56696467D01*
X64182787Y-56852992D01*
X64153457Y-56888730D01*
X64070195Y-56990187D01*
X63968738Y-57073449D01*
X63933000Y-57102779D01*
X63776475Y-57186444D01*
X63606636Y-57237964D01*
X63540452Y-57244482D01*
X63474269Y-57251001D01*
X63385749Y-57251001D01*
X63319566Y-57244482D01*
X63253382Y-57237964D01*
X63083543Y-57186444D01*
X62927018Y-57102779D01*
X62891280Y-57073449D01*
X62789823Y-56990187D01*
X62706561Y-56888730D01*
X62677231Y-56852992D01*
X62593566Y-56696467D01*
X62542046Y-56526628D01*
X62524650Y-56350001D01*
X62542046Y-56173374D01*
X62593566Y-56003535D01*
X62677231Y-55847010D01*
X62706561Y-55811272D01*
X62789823Y-55709815D01*
X62891280Y-55626553D01*
X62927018Y-55597223D01*
X63083543Y-55513558D01*
X63253382Y-55462038D01*
X63319567Y-55455519D01*
X63385749Y-55449001D01*
X63474269Y-55449001D01*
X63540451Y-55455519D01*
X63540451Y-55455519D01*
G37*
G36*
X71160451Y-55455519D02*
G01*
X71226636Y-55462038D01*
X71396475Y-55513558D01*
X71553000Y-55597223D01*
X71588738Y-55626553D01*
X71690195Y-55709815D01*
X71773457Y-55811272D01*
X71802787Y-55847010D01*
X71886452Y-56003535D01*
X71937972Y-56173374D01*
X71955368Y-56350001D01*
X71937972Y-56526628D01*
X71886452Y-56696467D01*
X71802787Y-56852992D01*
X71773457Y-56888730D01*
X71690195Y-56990187D01*
X71588738Y-57073449D01*
X71553000Y-57102779D01*
X71396475Y-57186444D01*
X71226636Y-57237964D01*
X71160452Y-57244482D01*
X71094269Y-57251001D01*
X71005749Y-57251001D01*
X70939566Y-57244482D01*
X70873382Y-57237964D01*
X70703543Y-57186444D01*
X70547018Y-57102779D01*
X70511280Y-57073449D01*
X70409823Y-56990187D01*
X70326561Y-56888730D01*
X70297231Y-56852992D01*
X70213566Y-56696467D01*
X70162046Y-56526628D01*
X70144650Y-56350001D01*
X70162046Y-56173374D01*
X70213566Y-56003535D01*
X70297231Y-55847010D01*
X70326561Y-55811272D01*
X70409823Y-55709815D01*
X70511280Y-55626553D01*
X70547018Y-55597223D01*
X70703543Y-55513558D01*
X70873382Y-55462038D01*
X70939567Y-55455519D01*
X71005749Y-55449001D01*
X71094269Y-55449001D01*
X71160451Y-55455519D01*
X71160451Y-55455519D01*
G37*
G36*
X59000443Y-55455519D02*
G01*
X59066628Y-55462038D01*
X59236467Y-55513558D01*
X59392992Y-55597223D01*
X59428730Y-55626553D01*
X59530187Y-55709815D01*
X59613449Y-55811272D01*
X59642779Y-55847010D01*
X59726444Y-56003535D01*
X59777964Y-56173374D01*
X59795360Y-56350001D01*
X59777964Y-56526628D01*
X59726444Y-56696467D01*
X59642779Y-56852992D01*
X59613449Y-56888730D01*
X59530187Y-56990187D01*
X59428730Y-57073449D01*
X59392992Y-57102779D01*
X59236467Y-57186444D01*
X59066628Y-57237964D01*
X59000444Y-57244482D01*
X58934261Y-57251001D01*
X58845741Y-57251001D01*
X58779558Y-57244482D01*
X58713374Y-57237964D01*
X58543535Y-57186444D01*
X58387010Y-57102779D01*
X58351272Y-57073449D01*
X58249815Y-56990187D01*
X58166553Y-56888730D01*
X58137223Y-56852992D01*
X58053558Y-56696467D01*
X58002038Y-56526628D01*
X57984642Y-56350001D01*
X58002038Y-56173374D01*
X58053558Y-56003535D01*
X58137223Y-55847010D01*
X58166553Y-55811272D01*
X58249815Y-55709815D01*
X58351272Y-55626553D01*
X58387010Y-55597223D01*
X58543535Y-55513558D01*
X58713374Y-55462038D01*
X58779559Y-55455519D01*
X58845741Y-55449001D01*
X58934261Y-55449001D01*
X59000443Y-55455519D01*
X59000443Y-55455519D01*
G37*
G36*
X63540451Y-52915519D02*
G01*
X63606636Y-52922038D01*
X63776475Y-52973558D01*
X63933000Y-53057223D01*
X63968738Y-53086553D01*
X64070195Y-53169815D01*
X64153457Y-53271272D01*
X64182787Y-53307010D01*
X64266452Y-53463535D01*
X64317972Y-53633374D01*
X64335368Y-53810001D01*
X64317972Y-53986628D01*
X64266452Y-54156467D01*
X64182787Y-54312992D01*
X64153457Y-54348730D01*
X64070195Y-54450187D01*
X63968738Y-54533449D01*
X63933000Y-54562779D01*
X63776475Y-54646444D01*
X63606636Y-54697964D01*
X63540451Y-54704483D01*
X63474269Y-54711001D01*
X63385749Y-54711001D01*
X63319567Y-54704483D01*
X63253382Y-54697964D01*
X63083543Y-54646444D01*
X62927018Y-54562779D01*
X62891280Y-54533449D01*
X62789823Y-54450187D01*
X62706561Y-54348730D01*
X62677231Y-54312992D01*
X62593566Y-54156467D01*
X62542046Y-53986628D01*
X62524650Y-53810001D01*
X62542046Y-53633374D01*
X62593566Y-53463535D01*
X62677231Y-53307010D01*
X62706561Y-53271272D01*
X62789823Y-53169815D01*
X62891280Y-53086553D01*
X62927018Y-53057223D01*
X63083543Y-52973558D01*
X63253382Y-52922038D01*
X63319567Y-52915519D01*
X63385749Y-52909001D01*
X63474269Y-52909001D01*
X63540451Y-52915519D01*
X63540451Y-52915519D01*
G37*
G36*
X59000443Y-52915519D02*
G01*
X59066628Y-52922038D01*
X59236467Y-52973558D01*
X59392992Y-53057223D01*
X59428730Y-53086553D01*
X59530187Y-53169815D01*
X59613449Y-53271272D01*
X59642779Y-53307010D01*
X59726444Y-53463535D01*
X59777964Y-53633374D01*
X59795360Y-53810001D01*
X59777964Y-53986628D01*
X59726444Y-54156467D01*
X59642779Y-54312992D01*
X59613449Y-54348730D01*
X59530187Y-54450187D01*
X59428730Y-54533449D01*
X59392992Y-54562779D01*
X59236467Y-54646444D01*
X59066628Y-54697964D01*
X59000443Y-54704483D01*
X58934261Y-54711001D01*
X58845741Y-54711001D01*
X58779559Y-54704483D01*
X58713374Y-54697964D01*
X58543535Y-54646444D01*
X58387010Y-54562779D01*
X58351272Y-54533449D01*
X58249815Y-54450187D01*
X58166553Y-54348730D01*
X58137223Y-54312992D01*
X58053558Y-54156467D01*
X58002038Y-53986628D01*
X57984642Y-53810001D01*
X58002038Y-53633374D01*
X58053558Y-53463535D01*
X58137223Y-53307010D01*
X58166553Y-53271272D01*
X58249815Y-53169815D01*
X58351272Y-53086553D01*
X58387010Y-53057223D01*
X58543535Y-52973558D01*
X58713374Y-52922038D01*
X58779559Y-52915519D01*
X58845741Y-52909001D01*
X58934261Y-52909001D01*
X59000443Y-52915519D01*
X59000443Y-52915519D01*
G37*
G36*
X51380443Y-52915519D02*
G01*
X51446628Y-52922038D01*
X51616467Y-52973558D01*
X51772992Y-53057223D01*
X51808730Y-53086553D01*
X51910187Y-53169815D01*
X51993449Y-53271272D01*
X52022779Y-53307010D01*
X52106444Y-53463535D01*
X52157964Y-53633374D01*
X52175360Y-53810001D01*
X52157964Y-53986628D01*
X52106444Y-54156467D01*
X52022779Y-54312992D01*
X51993449Y-54348730D01*
X51910187Y-54450187D01*
X51808730Y-54533449D01*
X51772992Y-54562779D01*
X51616467Y-54646444D01*
X51446628Y-54697964D01*
X51380443Y-54704483D01*
X51314261Y-54711001D01*
X51225741Y-54711001D01*
X51159559Y-54704483D01*
X51093374Y-54697964D01*
X50923535Y-54646444D01*
X50767010Y-54562779D01*
X50731272Y-54533449D01*
X50629815Y-54450187D01*
X50546553Y-54348730D01*
X50517223Y-54312992D01*
X50433558Y-54156467D01*
X50382038Y-53986628D01*
X50364642Y-53810001D01*
X50382038Y-53633374D01*
X50433558Y-53463535D01*
X50517223Y-53307010D01*
X50546553Y-53271272D01*
X50629815Y-53169815D01*
X50731272Y-53086553D01*
X50767010Y-53057223D01*
X50923535Y-52973558D01*
X51093374Y-52922038D01*
X51159559Y-52915519D01*
X51225741Y-52909001D01*
X51314261Y-52909001D01*
X51380443Y-52915519D01*
X51380443Y-52915519D01*
G37*
G36*
X71160451Y-52915519D02*
G01*
X71226636Y-52922038D01*
X71396475Y-52973558D01*
X71553000Y-53057223D01*
X71588738Y-53086553D01*
X71690195Y-53169815D01*
X71773457Y-53271272D01*
X71802787Y-53307010D01*
X71886452Y-53463535D01*
X71937972Y-53633374D01*
X71955368Y-53810001D01*
X71937972Y-53986628D01*
X71886452Y-54156467D01*
X71802787Y-54312992D01*
X71773457Y-54348730D01*
X71690195Y-54450187D01*
X71588738Y-54533449D01*
X71553000Y-54562779D01*
X71396475Y-54646444D01*
X71226636Y-54697964D01*
X71160451Y-54704483D01*
X71094269Y-54711001D01*
X71005749Y-54711001D01*
X70939567Y-54704483D01*
X70873382Y-54697964D01*
X70703543Y-54646444D01*
X70547018Y-54562779D01*
X70511280Y-54533449D01*
X70409823Y-54450187D01*
X70326561Y-54348730D01*
X70297231Y-54312992D01*
X70213566Y-54156467D01*
X70162046Y-53986628D01*
X70144650Y-53810001D01*
X70162046Y-53633374D01*
X70213566Y-53463535D01*
X70297231Y-53307010D01*
X70326561Y-53271272D01*
X70409823Y-53169815D01*
X70511280Y-53086553D01*
X70547018Y-53057223D01*
X70703543Y-52973558D01*
X70873382Y-52922038D01*
X70939567Y-52915519D01*
X71005749Y-52909001D01*
X71094269Y-52909001D01*
X71160451Y-52915519D01*
X71160451Y-52915519D01*
G37*
G36*
X64331009Y-52171001D02*
G01*
X62529009Y-52171001D01*
X62529009Y-50369001D01*
X64331009Y-50369001D01*
X64331009Y-52171001D01*
X64331009Y-52171001D01*
G37*
G36*
X59791001Y-52171001D02*
G01*
X57989001Y-52171001D01*
X57989001Y-50369001D01*
X59791001Y-50369001D01*
X59791001Y-52171001D01*
X59791001Y-52171001D01*
G37*
G36*
X71951009Y-52171001D02*
G01*
X70149009Y-52171001D01*
X70149009Y-50369001D01*
X71951009Y-50369001D01*
X71951009Y-52171001D01*
X71951009Y-52171001D01*
G37*
G36*
X52171001Y-52171001D02*
G01*
X50369001Y-52171001D01*
X50369001Y-50369001D01*
X52171001Y-50369001D01*
X52171001Y-52171001D01*
X52171001Y-52171001D01*
G37*
G36*
X66494475Y-49709567D02*
G01*
X66549253Y-49732257D01*
X66549255Y-49732258D01*
X66598554Y-49765198D01*
X66640480Y-49807124D01*
X66673420Y-49856423D01*
X66673421Y-49856425D01*
X66696111Y-49911203D01*
X66700748Y-49934514D01*
X66707861Y-49957963D01*
X66719412Y-49979574D01*
X66734958Y-49998516D01*
X66735548Y-49999000D01*
X66734957Y-49999485D01*
X66719412Y-50018427D01*
X66707861Y-50040037D01*
X66700748Y-50063486D01*
X66696111Y-50086797D01*
X66696109Y-50086801D01*
X66673420Y-50141577D01*
X66640480Y-50190876D01*
X66598554Y-50232802D01*
X66549255Y-50265742D01*
X66549254Y-50265743D01*
X66549253Y-50265743D01*
X66494475Y-50288433D01*
X66436325Y-50300000D01*
X66377031Y-50300000D01*
X66318881Y-50288433D01*
X66264103Y-50265743D01*
X66264102Y-50265743D01*
X66264101Y-50265742D01*
X66214802Y-50232802D01*
X66172876Y-50190876D01*
X66139936Y-50141577D01*
X66139935Y-50141575D01*
X66117246Y-50086801D01*
X66114913Y-50075073D01*
X66112608Y-50063484D01*
X66105497Y-50040041D01*
X66093946Y-50018430D01*
X66078401Y-49999488D01*
X66077806Y-49999000D01*
X66078401Y-49998512D01*
X66093946Y-49979570D01*
X66105497Y-49957960D01*
X66112609Y-49934514D01*
X66114913Y-49922927D01*
X66117246Y-49911199D01*
X66139935Y-49856425D01*
X66139936Y-49856423D01*
X66172876Y-49807124D01*
X66214802Y-49765198D01*
X66264101Y-49732258D01*
X66264103Y-49732257D01*
X66318881Y-49709567D01*
X66377031Y-49698000D01*
X66436325Y-49698000D01*
X66494475Y-49709567D01*
X66494475Y-49709567D01*
G37*
G36*
X52667801Y-49709567D02*
G01*
X52722579Y-49732257D01*
X52722581Y-49732258D01*
X52771880Y-49765198D01*
X52813806Y-49807124D01*
X52846746Y-49856423D01*
X52846747Y-49856425D01*
X52869437Y-49911202D01*
X52874074Y-49934514D01*
X52881188Y-49957963D01*
X52892739Y-49979573D01*
X52908285Y-49998515D01*
X52908876Y-49999000D01*
X52908285Y-49999485D01*
X52892739Y-50018427D01*
X52881188Y-50040037D01*
X52874074Y-50063486D01*
X52869437Y-50086798D01*
X52846747Y-50141575D01*
X52846746Y-50141577D01*
X52813806Y-50190876D01*
X52771880Y-50232802D01*
X52722581Y-50265742D01*
X52722580Y-50265743D01*
X52722579Y-50265743D01*
X52667801Y-50288433D01*
X52609651Y-50300000D01*
X52550357Y-50300000D01*
X52492207Y-50288433D01*
X52437429Y-50265743D01*
X52437428Y-50265743D01*
X52437427Y-50265742D01*
X52388128Y-50232802D01*
X52384382Y-50229056D01*
X52365446Y-50213516D01*
X52349531Y-50205010D01*
X52346849Y-50196167D01*
X52335298Y-50174556D01*
X52313261Y-50141575D01*
X52290571Y-50086797D01*
X52279004Y-50028647D01*
X52279004Y-49969353D01*
X52290571Y-49911203D01*
X52313261Y-49856425D01*
X52313262Y-49856423D01*
X52346202Y-49807124D01*
X52388128Y-49765198D01*
X52437427Y-49732258D01*
X52437429Y-49732257D01*
X52492207Y-49709567D01*
X52550357Y-49698000D01*
X52609651Y-49698000D01*
X52667801Y-49709567D01*
X52667801Y-49709567D01*
G37*
G36*
X69827809Y-49709567D02*
G01*
X69882587Y-49732257D01*
X69882589Y-49732258D01*
X69931888Y-49765198D01*
X69973814Y-49807124D01*
X70006754Y-49856423D01*
X70006755Y-49856425D01*
X70029445Y-49911203D01*
X70041012Y-49969353D01*
X70041012Y-50028647D01*
X70029445Y-50086797D01*
X70006755Y-50141575D01*
X69984718Y-50174556D01*
X69973167Y-50196167D01*
X69970484Y-50205013D01*
X69954564Y-50213522D01*
X69935629Y-50229061D01*
X69931888Y-50232802D01*
X69882589Y-50265742D01*
X69882588Y-50265743D01*
X69882587Y-50265743D01*
X69827809Y-50288433D01*
X69769659Y-50300000D01*
X69710365Y-50300000D01*
X69652215Y-50288433D01*
X69597437Y-50265743D01*
X69597436Y-50265743D01*
X69597435Y-50265742D01*
X69548136Y-50232802D01*
X69506210Y-50190876D01*
X69473270Y-50141577D01*
X69450581Y-50086801D01*
X69450579Y-50086797D01*
X69445942Y-50063486D01*
X69438829Y-50040037D01*
X69427278Y-50018426D01*
X69411732Y-49999484D01*
X69411142Y-49999000D01*
X69411733Y-49998515D01*
X69427278Y-49979573D01*
X69438829Y-49957963D01*
X69445942Y-49934514D01*
X69450579Y-49911203D01*
X69473269Y-49856425D01*
X69473270Y-49856423D01*
X69506210Y-49807124D01*
X69548136Y-49765198D01*
X69597435Y-49732258D01*
X69597437Y-49732257D01*
X69652215Y-49709567D01*
X69710365Y-49698000D01*
X69769659Y-49698000D01*
X69827809Y-49709567D01*
X69827809Y-49709567D01*
G37*
G36*
X54334467Y-49709567D02*
G01*
X54389245Y-49732257D01*
X54389247Y-49732258D01*
X54438546Y-49765198D01*
X54480472Y-49807124D01*
X54513412Y-49856423D01*
X54513413Y-49856425D01*
X54536103Y-49911203D01*
X54540740Y-49934514D01*
X54547853Y-49957963D01*
X54559404Y-49979574D01*
X54574950Y-49998516D01*
X54575540Y-49999000D01*
X54574949Y-49999485D01*
X54559404Y-50018427D01*
X54547853Y-50040037D01*
X54540740Y-50063486D01*
X54536103Y-50086797D01*
X54536101Y-50086801D01*
X54513412Y-50141577D01*
X54480472Y-50190876D01*
X54438546Y-50232802D01*
X54389247Y-50265742D01*
X54389246Y-50265743D01*
X54389245Y-50265743D01*
X54334467Y-50288433D01*
X54276317Y-50300000D01*
X54217023Y-50300000D01*
X54158873Y-50288433D01*
X54104095Y-50265743D01*
X54104094Y-50265743D01*
X54104093Y-50265742D01*
X54054794Y-50232802D01*
X54012868Y-50190876D01*
X53979928Y-50141577D01*
X53979927Y-50141575D01*
X53957238Y-50086801D01*
X53954905Y-50075073D01*
X53952600Y-50063484D01*
X53945489Y-50040041D01*
X53933938Y-50018430D01*
X53918393Y-49999488D01*
X53917798Y-49999000D01*
X53918393Y-49998512D01*
X53933938Y-49979570D01*
X53945489Y-49957960D01*
X53952601Y-49934514D01*
X53954905Y-49922927D01*
X53957238Y-49911199D01*
X53979927Y-49856425D01*
X53979928Y-49856423D01*
X54012868Y-49807124D01*
X54054794Y-49765198D01*
X54104093Y-49732258D01*
X54104095Y-49732257D01*
X54158873Y-49709567D01*
X54217023Y-49698000D01*
X54276317Y-49698000D01*
X54334467Y-49709567D01*
X54334467Y-49709567D01*
G37*
G36*
X55167801Y-49709567D02*
G01*
X55222579Y-49732257D01*
X55222581Y-49732258D01*
X55271880Y-49765198D01*
X55313806Y-49807124D01*
X55346746Y-49856423D01*
X55346747Y-49856425D01*
X55369437Y-49911202D01*
X55374074Y-49934514D01*
X55381188Y-49957963D01*
X55392739Y-49979573D01*
X55408285Y-49998515D01*
X55408876Y-49999000D01*
X55408285Y-49999485D01*
X55392739Y-50018427D01*
X55381188Y-50040037D01*
X55374074Y-50063486D01*
X55369437Y-50086798D01*
X55346747Y-50141575D01*
X55346746Y-50141577D01*
X55313806Y-50190876D01*
X55271880Y-50232802D01*
X55222581Y-50265742D01*
X55222580Y-50265743D01*
X55222579Y-50265743D01*
X55167801Y-50288433D01*
X55109651Y-50300000D01*
X55050357Y-50300000D01*
X54992207Y-50288433D01*
X54937429Y-50265743D01*
X54937428Y-50265743D01*
X54937427Y-50265742D01*
X54888128Y-50232802D01*
X54846202Y-50190876D01*
X54813262Y-50141577D01*
X54790573Y-50086801D01*
X54790571Y-50086797D01*
X54785934Y-50063486D01*
X54778821Y-50040037D01*
X54767270Y-50018426D01*
X54751724Y-49999484D01*
X54751134Y-49999000D01*
X54751725Y-49998515D01*
X54767270Y-49979573D01*
X54778821Y-49957963D01*
X54785934Y-49934514D01*
X54790571Y-49911203D01*
X54813261Y-49856425D01*
X54813262Y-49856423D01*
X54846202Y-49807124D01*
X54888128Y-49765198D01*
X54937427Y-49732258D01*
X54937429Y-49732257D01*
X54992207Y-49709567D01*
X55050357Y-49698000D01*
X55109651Y-49698000D01*
X55167801Y-49709567D01*
X55167801Y-49709567D01*
G37*
G36*
X56001134Y-49709567D02*
G01*
X56055912Y-49732257D01*
X56055914Y-49732258D01*
X56105213Y-49765198D01*
X56147139Y-49807124D01*
X56180079Y-49856423D01*
X56180080Y-49856425D01*
X56202770Y-49911202D01*
X56207407Y-49934514D01*
X56214521Y-49957963D01*
X56226072Y-49979573D01*
X56241618Y-49998515D01*
X56242209Y-49999000D01*
X56241618Y-49999485D01*
X56226072Y-50018427D01*
X56214521Y-50040037D01*
X56207407Y-50063486D01*
X56202770Y-50086798D01*
X56180080Y-50141575D01*
X56180079Y-50141577D01*
X56147139Y-50190876D01*
X56105213Y-50232802D01*
X56055914Y-50265742D01*
X56055913Y-50265743D01*
X56055912Y-50265743D01*
X56001134Y-50288433D01*
X55942984Y-50300000D01*
X55883690Y-50300000D01*
X55825540Y-50288433D01*
X55770762Y-50265743D01*
X55770761Y-50265743D01*
X55770760Y-50265742D01*
X55721461Y-50232802D01*
X55679535Y-50190876D01*
X55646595Y-50141577D01*
X55646594Y-50141575D01*
X55623905Y-50086801D01*
X55621572Y-50075073D01*
X55619267Y-50063484D01*
X55612156Y-50040041D01*
X55600605Y-50018430D01*
X55585060Y-49999488D01*
X55584465Y-49999000D01*
X55585060Y-49998512D01*
X55600605Y-49979570D01*
X55612156Y-49957960D01*
X55619268Y-49934514D01*
X55621572Y-49922927D01*
X55623905Y-49911199D01*
X55646594Y-49856425D01*
X55646595Y-49856423D01*
X55679535Y-49807124D01*
X55721461Y-49765198D01*
X55770760Y-49732258D01*
X55770762Y-49732257D01*
X55825540Y-49709567D01*
X55883690Y-49698000D01*
X55942984Y-49698000D01*
X56001134Y-49709567D01*
X56001134Y-49709567D01*
G37*
G36*
X56834467Y-49709567D02*
G01*
X56889245Y-49732257D01*
X56889247Y-49732258D01*
X56938546Y-49765198D01*
X56980472Y-49807124D01*
X57013412Y-49856423D01*
X57013413Y-49856425D01*
X57036103Y-49911203D01*
X57040740Y-49934514D01*
X57047853Y-49957963D01*
X57059404Y-49979574D01*
X57074950Y-49998516D01*
X57075540Y-49999000D01*
X57074949Y-49999485D01*
X57059404Y-50018427D01*
X57047853Y-50040037D01*
X57040740Y-50063486D01*
X57036103Y-50086797D01*
X57036101Y-50086801D01*
X57013412Y-50141577D01*
X56980472Y-50190876D01*
X56938546Y-50232802D01*
X56889247Y-50265742D01*
X56889246Y-50265743D01*
X56889245Y-50265743D01*
X56834467Y-50288433D01*
X56776317Y-50300000D01*
X56717023Y-50300000D01*
X56658873Y-50288433D01*
X56604095Y-50265743D01*
X56604094Y-50265743D01*
X56604093Y-50265742D01*
X56554794Y-50232802D01*
X56512868Y-50190876D01*
X56479928Y-50141577D01*
X56479927Y-50141575D01*
X56457238Y-50086801D01*
X56454905Y-50075073D01*
X56452600Y-50063484D01*
X56445489Y-50040041D01*
X56433938Y-50018430D01*
X56418393Y-49999488D01*
X56417798Y-49999000D01*
X56418393Y-49998512D01*
X56433938Y-49979570D01*
X56445489Y-49957960D01*
X56452601Y-49934514D01*
X56454905Y-49922927D01*
X56457238Y-49911199D01*
X56479927Y-49856425D01*
X56479928Y-49856423D01*
X56512868Y-49807124D01*
X56554794Y-49765198D01*
X56604093Y-49732258D01*
X56604095Y-49732257D01*
X56658873Y-49709567D01*
X56717023Y-49698000D01*
X56776317Y-49698000D01*
X56834467Y-49709567D01*
X56834467Y-49709567D01*
G37*
G36*
X57667801Y-49709567D02*
G01*
X57722579Y-49732257D01*
X57722581Y-49732258D01*
X57771880Y-49765198D01*
X57813806Y-49807124D01*
X57846746Y-49856423D01*
X57846747Y-49856425D01*
X57869437Y-49911203D01*
X57881004Y-49969353D01*
X57881004Y-50028647D01*
X57869437Y-50086797D01*
X57846747Y-50141575D01*
X57824710Y-50174556D01*
X57813159Y-50196167D01*
X57810476Y-50205013D01*
X57794556Y-50213522D01*
X57775621Y-50229061D01*
X57771880Y-50232802D01*
X57722581Y-50265742D01*
X57722580Y-50265743D01*
X57722579Y-50265743D01*
X57667801Y-50288433D01*
X57609651Y-50300000D01*
X57550357Y-50300000D01*
X57492207Y-50288433D01*
X57437429Y-50265743D01*
X57437428Y-50265743D01*
X57437427Y-50265742D01*
X57388128Y-50232802D01*
X57346202Y-50190876D01*
X57313262Y-50141577D01*
X57290573Y-50086801D01*
X57290571Y-50086797D01*
X57285934Y-50063486D01*
X57278821Y-50040037D01*
X57267270Y-50018426D01*
X57251724Y-49999484D01*
X57251134Y-49999000D01*
X57251725Y-49998515D01*
X57267270Y-49979573D01*
X57278821Y-49957963D01*
X57285934Y-49934514D01*
X57290571Y-49911203D01*
X57313261Y-49856425D01*
X57313262Y-49856423D01*
X57346202Y-49807124D01*
X57388128Y-49765198D01*
X57437427Y-49732258D01*
X57437429Y-49732257D01*
X57492207Y-49709567D01*
X57550357Y-49698000D01*
X57609651Y-49698000D01*
X57667801Y-49709567D01*
X57667801Y-49709567D01*
G37*
G36*
X64827809Y-49709567D02*
G01*
X64882587Y-49732257D01*
X64882589Y-49732258D01*
X64931888Y-49765198D01*
X64973814Y-49807124D01*
X65006754Y-49856423D01*
X65006755Y-49856425D01*
X65029445Y-49911202D01*
X65034082Y-49934514D01*
X65041196Y-49957963D01*
X65052747Y-49979573D01*
X65068293Y-49998515D01*
X65068884Y-49999000D01*
X65068293Y-49999485D01*
X65052747Y-50018427D01*
X65041196Y-50040037D01*
X65034082Y-50063486D01*
X65029445Y-50086798D01*
X65006755Y-50141575D01*
X65006754Y-50141577D01*
X64973814Y-50190876D01*
X64931888Y-50232802D01*
X64882589Y-50265742D01*
X64882588Y-50265743D01*
X64882587Y-50265743D01*
X64827809Y-50288433D01*
X64769659Y-50300000D01*
X64710365Y-50300000D01*
X64652215Y-50288433D01*
X64597437Y-50265743D01*
X64597436Y-50265743D01*
X64597435Y-50265742D01*
X64548136Y-50232802D01*
X64544390Y-50229056D01*
X64525454Y-50213516D01*
X64509539Y-50205010D01*
X64506857Y-50196167D01*
X64495306Y-50174556D01*
X64473269Y-50141575D01*
X64450579Y-50086797D01*
X64439012Y-50028647D01*
X64439012Y-49969353D01*
X64450579Y-49911203D01*
X64473269Y-49856425D01*
X64473270Y-49856423D01*
X64506210Y-49807124D01*
X64548136Y-49765198D01*
X64597435Y-49732258D01*
X64597437Y-49732257D01*
X64652215Y-49709567D01*
X64710365Y-49698000D01*
X64769659Y-49698000D01*
X64827809Y-49709567D01*
X64827809Y-49709567D01*
G37*
G36*
X65661142Y-49709567D02*
G01*
X65715920Y-49732257D01*
X65715922Y-49732258D01*
X65765221Y-49765198D01*
X65807147Y-49807124D01*
X65840087Y-49856423D01*
X65840088Y-49856425D01*
X65862778Y-49911202D01*
X65867415Y-49934514D01*
X65874529Y-49957963D01*
X65886080Y-49979573D01*
X65901626Y-49998515D01*
X65902217Y-49999000D01*
X65901626Y-49999485D01*
X65886080Y-50018427D01*
X65874529Y-50040037D01*
X65867415Y-50063486D01*
X65862778Y-50086798D01*
X65840088Y-50141575D01*
X65840087Y-50141577D01*
X65807147Y-50190876D01*
X65765221Y-50232802D01*
X65715922Y-50265742D01*
X65715921Y-50265743D01*
X65715920Y-50265743D01*
X65661142Y-50288433D01*
X65602992Y-50300000D01*
X65543698Y-50300000D01*
X65485548Y-50288433D01*
X65430770Y-50265743D01*
X65430769Y-50265743D01*
X65430768Y-50265742D01*
X65381469Y-50232802D01*
X65339543Y-50190876D01*
X65306603Y-50141577D01*
X65306602Y-50141575D01*
X65283913Y-50086801D01*
X65281580Y-50075073D01*
X65279275Y-50063484D01*
X65272164Y-50040041D01*
X65260613Y-50018430D01*
X65245068Y-49999488D01*
X65244473Y-49999000D01*
X65245068Y-49998512D01*
X65260613Y-49979570D01*
X65272164Y-49957960D01*
X65279276Y-49934514D01*
X65281580Y-49922927D01*
X65283913Y-49911199D01*
X65306602Y-49856425D01*
X65306603Y-49856423D01*
X65339543Y-49807124D01*
X65381469Y-49765198D01*
X65430768Y-49732258D01*
X65430770Y-49732257D01*
X65485548Y-49709567D01*
X65543698Y-49698000D01*
X65602992Y-49698000D01*
X65661142Y-49709567D01*
X65661142Y-49709567D01*
G37*
G36*
X67327809Y-49709567D02*
G01*
X67382587Y-49732257D01*
X67382589Y-49732258D01*
X67431888Y-49765198D01*
X67473814Y-49807124D01*
X67506754Y-49856423D01*
X67506755Y-49856425D01*
X67529445Y-49911202D01*
X67534082Y-49934514D01*
X67541196Y-49957963D01*
X67552747Y-49979573D01*
X67568293Y-49998515D01*
X67568884Y-49999000D01*
X67568293Y-49999485D01*
X67552747Y-50018427D01*
X67541196Y-50040037D01*
X67534082Y-50063486D01*
X67529445Y-50086798D01*
X67506755Y-50141575D01*
X67506754Y-50141577D01*
X67473814Y-50190876D01*
X67431888Y-50232802D01*
X67382589Y-50265742D01*
X67382588Y-50265743D01*
X67382587Y-50265743D01*
X67327809Y-50288433D01*
X67269659Y-50300000D01*
X67210365Y-50300000D01*
X67152215Y-50288433D01*
X67097437Y-50265743D01*
X67097436Y-50265743D01*
X67097435Y-50265742D01*
X67048136Y-50232802D01*
X67006210Y-50190876D01*
X66973270Y-50141577D01*
X66950581Y-50086801D01*
X66950579Y-50086797D01*
X66945942Y-50063486D01*
X66938829Y-50040037D01*
X66927278Y-50018426D01*
X66911732Y-49999484D01*
X66911142Y-49999000D01*
X66911733Y-49998515D01*
X66927278Y-49979573D01*
X66938829Y-49957963D01*
X66945942Y-49934514D01*
X66950579Y-49911203D01*
X66973269Y-49856425D01*
X66973270Y-49856423D01*
X67006210Y-49807124D01*
X67048136Y-49765198D01*
X67097435Y-49732258D01*
X67097437Y-49732257D01*
X67152215Y-49709567D01*
X67210365Y-49698000D01*
X67269659Y-49698000D01*
X67327809Y-49709567D01*
X67327809Y-49709567D01*
G37*
G36*
X68161142Y-49709567D02*
G01*
X68215920Y-49732257D01*
X68215922Y-49732258D01*
X68265221Y-49765198D01*
X68307147Y-49807124D01*
X68340087Y-49856423D01*
X68340088Y-49856425D01*
X68362778Y-49911202D01*
X68367415Y-49934514D01*
X68374529Y-49957963D01*
X68386080Y-49979573D01*
X68401626Y-49998515D01*
X68402217Y-49999000D01*
X68401626Y-49999485D01*
X68386080Y-50018427D01*
X68374529Y-50040037D01*
X68367415Y-50063486D01*
X68362778Y-50086798D01*
X68340088Y-50141575D01*
X68340087Y-50141577D01*
X68307147Y-50190876D01*
X68265221Y-50232802D01*
X68215922Y-50265742D01*
X68215921Y-50265743D01*
X68215920Y-50265743D01*
X68161142Y-50288433D01*
X68102992Y-50300000D01*
X68043698Y-50300000D01*
X67985548Y-50288433D01*
X67930770Y-50265743D01*
X67930769Y-50265743D01*
X67930768Y-50265742D01*
X67881469Y-50232802D01*
X67839543Y-50190876D01*
X67806603Y-50141577D01*
X67806602Y-50141575D01*
X67783913Y-50086801D01*
X67781580Y-50075073D01*
X67779275Y-50063484D01*
X67772164Y-50040041D01*
X67760613Y-50018430D01*
X67745068Y-49999488D01*
X67744473Y-49999000D01*
X67745068Y-49998512D01*
X67760613Y-49979570D01*
X67772164Y-49957960D01*
X67779276Y-49934514D01*
X67781580Y-49922927D01*
X67783913Y-49911199D01*
X67806602Y-49856425D01*
X67806603Y-49856423D01*
X67839543Y-49807124D01*
X67881469Y-49765198D01*
X67930768Y-49732258D01*
X67930770Y-49732257D01*
X67985548Y-49709567D01*
X68043698Y-49698000D01*
X68102992Y-49698000D01*
X68161142Y-49709567D01*
X68161142Y-49709567D01*
G37*
G36*
X68994475Y-49709567D02*
G01*
X69049253Y-49732257D01*
X69049255Y-49732258D01*
X69098554Y-49765198D01*
X69140480Y-49807124D01*
X69173420Y-49856423D01*
X69173421Y-49856425D01*
X69196111Y-49911203D01*
X69200748Y-49934514D01*
X69207861Y-49957963D01*
X69219412Y-49979574D01*
X69234958Y-49998516D01*
X69235548Y-49999000D01*
X69234957Y-49999485D01*
X69219412Y-50018427D01*
X69207861Y-50040037D01*
X69200748Y-50063486D01*
X69196111Y-50086797D01*
X69196109Y-50086801D01*
X69173420Y-50141577D01*
X69140480Y-50190876D01*
X69098554Y-50232802D01*
X69049255Y-50265742D01*
X69049254Y-50265743D01*
X69049253Y-50265743D01*
X68994475Y-50288433D01*
X68936325Y-50300000D01*
X68877031Y-50300000D01*
X68818881Y-50288433D01*
X68764103Y-50265743D01*
X68764102Y-50265743D01*
X68764101Y-50265742D01*
X68714802Y-50232802D01*
X68672876Y-50190876D01*
X68639936Y-50141577D01*
X68639935Y-50141575D01*
X68617246Y-50086801D01*
X68614913Y-50075073D01*
X68612608Y-50063484D01*
X68605497Y-50040041D01*
X68593946Y-50018430D01*
X68578401Y-49999488D01*
X68577806Y-49999000D01*
X68578401Y-49998512D01*
X68593946Y-49979570D01*
X68605497Y-49957960D01*
X68612609Y-49934514D01*
X68614913Y-49922927D01*
X68617246Y-49911199D01*
X68639935Y-49856425D01*
X68639936Y-49856423D01*
X68672876Y-49807124D01*
X68714802Y-49765198D01*
X68764101Y-49732258D01*
X68764103Y-49732257D01*
X68818881Y-49709567D01*
X68877031Y-49698000D01*
X68936325Y-49698000D01*
X68994475Y-49709567D01*
X68994475Y-49709567D01*
G37*
G36*
X53501134Y-49709567D02*
G01*
X53555912Y-49732257D01*
X53555914Y-49732258D01*
X53605213Y-49765198D01*
X53647139Y-49807124D01*
X53680079Y-49856423D01*
X53680080Y-49856425D01*
X53702770Y-49911202D01*
X53707407Y-49934514D01*
X53714521Y-49957963D01*
X53726072Y-49979573D01*
X53741618Y-49998515D01*
X53742209Y-49999000D01*
X53741618Y-49999485D01*
X53726072Y-50018427D01*
X53714521Y-50040037D01*
X53707407Y-50063486D01*
X53702770Y-50086798D01*
X53680080Y-50141575D01*
X53680079Y-50141577D01*
X53647139Y-50190876D01*
X53605213Y-50232802D01*
X53555914Y-50265742D01*
X53555913Y-50265743D01*
X53555912Y-50265743D01*
X53501134Y-50288433D01*
X53442984Y-50300000D01*
X53383690Y-50300000D01*
X53325540Y-50288433D01*
X53270762Y-50265743D01*
X53270761Y-50265743D01*
X53270760Y-50265742D01*
X53221461Y-50232802D01*
X53179535Y-50190876D01*
X53146595Y-50141577D01*
X53146594Y-50141575D01*
X53123905Y-50086801D01*
X53121572Y-50075073D01*
X53119267Y-50063484D01*
X53112156Y-50040041D01*
X53100605Y-50018430D01*
X53085060Y-49999488D01*
X53084465Y-49999000D01*
X53085060Y-49998512D01*
X53100605Y-49979570D01*
X53112156Y-49957960D01*
X53119268Y-49934514D01*
X53121572Y-49922927D01*
X53123905Y-49911199D01*
X53146594Y-49856425D01*
X53146595Y-49856423D01*
X53179535Y-49807124D01*
X53221461Y-49765198D01*
X53270760Y-49732258D01*
X53270762Y-49732257D01*
X53325540Y-49709567D01*
X53383690Y-49698000D01*
X53442984Y-49698000D01*
X53501134Y-49709567D01*
X53501134Y-49709567D01*
G37*
M02*
