G04 #@! TF.GenerationSoftware,KiCad,Pcbnew,5.1.4+dfsg1-1*
G04 #@! TF.CreationDate,2020-12-01T08:27:42+00:00*
G04 #@! TF.ProjectId,panel,70616e65-6c2e-46b6-9963-61645f706362,rev?*
G04 #@! TF.SameCoordinates,Original*
G04 #@! TF.FileFunction,Paste,Top*
G04 #@! TF.FilePolarity,Positive*
%FSLAX46Y46*%
G04 Gerber Fmt 4.6, Leading zero omitted, Abs format (unit mm)*
G04 Created by KiCad (PCBNEW 5.1.4+dfsg1-1) date 2020-12-01 08:27:42*
%MOMM*%
%LPD*%
G04 APERTURE LIST*
%ADD10C,0.350000*%
%ADD11C,0.590000*%
%ADD12R,0.375000X0.350000*%
%ADD13R,0.350000X0.375000*%
%ADD14C,0.875000*%
G04 APERTURE END LIST*
D10*
G04 #@! TO.C,C1*
G36*
X69236967Y-63920720D02*
G01*
X69251285Y-63922844D01*
X69265326Y-63926361D01*
X69278955Y-63931238D01*
X69292040Y-63937427D01*
X69304456Y-63944868D01*
X69316082Y-63953491D01*
X69326807Y-63963212D01*
X69336528Y-63973937D01*
X69345151Y-63985563D01*
X69352592Y-63997979D01*
X69358781Y-64011064D01*
X69363658Y-64024693D01*
X69367175Y-64038734D01*
X69369299Y-64053052D01*
X69370009Y-64067510D01*
X69370009Y-64362510D01*
X69369299Y-64376968D01*
X69367175Y-64391286D01*
X69363658Y-64405327D01*
X69358781Y-64418956D01*
X69352592Y-64432041D01*
X69345151Y-64444457D01*
X69336528Y-64456083D01*
X69326807Y-64466808D01*
X69316082Y-64476529D01*
X69304456Y-64485152D01*
X69292040Y-64492593D01*
X69278955Y-64498782D01*
X69265326Y-64503659D01*
X69251285Y-64507176D01*
X69236967Y-64509300D01*
X69222509Y-64510010D01*
X68877509Y-64510010D01*
X68863051Y-64509300D01*
X68848733Y-64507176D01*
X68834692Y-64503659D01*
X68821063Y-64498782D01*
X68807978Y-64492593D01*
X68795562Y-64485152D01*
X68783936Y-64476529D01*
X68773211Y-64466808D01*
X68763490Y-64456083D01*
X68754867Y-64444457D01*
X68747426Y-64432041D01*
X68741237Y-64418956D01*
X68736360Y-64405327D01*
X68732843Y-64391286D01*
X68730719Y-64376968D01*
X68730009Y-64362510D01*
X68730009Y-64067510D01*
X68730719Y-64053052D01*
X68732843Y-64038734D01*
X68736360Y-64024693D01*
X68741237Y-64011064D01*
X68747426Y-63997979D01*
X68754867Y-63985563D01*
X68763490Y-63973937D01*
X68773211Y-63963212D01*
X68783936Y-63953491D01*
X68795562Y-63944868D01*
X68807978Y-63937427D01*
X68821063Y-63931238D01*
X68834692Y-63926361D01*
X68848733Y-63922844D01*
X68863051Y-63920720D01*
X68877509Y-63920010D01*
X69222509Y-63920010D01*
X69236967Y-63920720D01*
X69236967Y-63920720D01*
G37*
D11*
X69050009Y-64215010D03*
D10*
G36*
X69236967Y-62950720D02*
G01*
X69251285Y-62952844D01*
X69265326Y-62956361D01*
X69278955Y-62961238D01*
X69292040Y-62967427D01*
X69304456Y-62974868D01*
X69316082Y-62983491D01*
X69326807Y-62993212D01*
X69336528Y-63003937D01*
X69345151Y-63015563D01*
X69352592Y-63027979D01*
X69358781Y-63041064D01*
X69363658Y-63054693D01*
X69367175Y-63068734D01*
X69369299Y-63083052D01*
X69370009Y-63097510D01*
X69370009Y-63392510D01*
X69369299Y-63406968D01*
X69367175Y-63421286D01*
X69363658Y-63435327D01*
X69358781Y-63448956D01*
X69352592Y-63462041D01*
X69345151Y-63474457D01*
X69336528Y-63486083D01*
X69326807Y-63496808D01*
X69316082Y-63506529D01*
X69304456Y-63515152D01*
X69292040Y-63522593D01*
X69278955Y-63528782D01*
X69265326Y-63533659D01*
X69251285Y-63537176D01*
X69236967Y-63539300D01*
X69222509Y-63540010D01*
X68877509Y-63540010D01*
X68863051Y-63539300D01*
X68848733Y-63537176D01*
X68834692Y-63533659D01*
X68821063Y-63528782D01*
X68807978Y-63522593D01*
X68795562Y-63515152D01*
X68783936Y-63506529D01*
X68773211Y-63496808D01*
X68763490Y-63486083D01*
X68754867Y-63474457D01*
X68747426Y-63462041D01*
X68741237Y-63448956D01*
X68736360Y-63435327D01*
X68732843Y-63421286D01*
X68730719Y-63406968D01*
X68730009Y-63392510D01*
X68730009Y-63097510D01*
X68730719Y-63083052D01*
X68732843Y-63068734D01*
X68736360Y-63054693D01*
X68741237Y-63041064D01*
X68747426Y-63027979D01*
X68754867Y-63015563D01*
X68763490Y-63003937D01*
X68773211Y-62993212D01*
X68783936Y-62983491D01*
X68795562Y-62974868D01*
X68807978Y-62967427D01*
X68821063Y-62961238D01*
X68834692Y-62956361D01*
X68848733Y-62952844D01*
X68863051Y-62950720D01*
X68877509Y-62950010D01*
X69222509Y-62950010D01*
X69236967Y-62950720D01*
X69236967Y-62950720D01*
G37*
D11*
X69050009Y-63245010D03*
G04 #@! TD*
D12*
G04 #@! TO.C,U1*
X66477509Y-63180010D03*
X66477509Y-63680010D03*
X68002509Y-63180010D03*
X68002509Y-63680010D03*
X66477509Y-64180010D03*
X68002509Y-64180010D03*
X66477509Y-62680010D03*
X68002509Y-62680010D03*
D13*
X66990009Y-64192510D03*
X67490009Y-64192510D03*
X67490009Y-62667510D03*
X66990009Y-62667510D03*
G04 #@! TD*
D10*
G04 #@! TO.C,C3*
G36*
X65392967Y-64888720D02*
G01*
X65407285Y-64890844D01*
X65421326Y-64894361D01*
X65434955Y-64899238D01*
X65448040Y-64905427D01*
X65460456Y-64912868D01*
X65472082Y-64921491D01*
X65482807Y-64931212D01*
X65492528Y-64941937D01*
X65501151Y-64953563D01*
X65508592Y-64965979D01*
X65514781Y-64979064D01*
X65519658Y-64992693D01*
X65523175Y-65006734D01*
X65525299Y-65021052D01*
X65526009Y-65035510D01*
X65526009Y-65380510D01*
X65525299Y-65394968D01*
X65523175Y-65409286D01*
X65519658Y-65423327D01*
X65514781Y-65436956D01*
X65508592Y-65450041D01*
X65501151Y-65462457D01*
X65492528Y-65474083D01*
X65482807Y-65484808D01*
X65472082Y-65494529D01*
X65460456Y-65503152D01*
X65448040Y-65510593D01*
X65434955Y-65516782D01*
X65421326Y-65521659D01*
X65407285Y-65525176D01*
X65392967Y-65527300D01*
X65378509Y-65528010D01*
X65083509Y-65528010D01*
X65069051Y-65527300D01*
X65054733Y-65525176D01*
X65040692Y-65521659D01*
X65027063Y-65516782D01*
X65013978Y-65510593D01*
X65001562Y-65503152D01*
X64989936Y-65494529D01*
X64979211Y-65484808D01*
X64969490Y-65474083D01*
X64960867Y-65462457D01*
X64953426Y-65450041D01*
X64947237Y-65436956D01*
X64942360Y-65423327D01*
X64938843Y-65409286D01*
X64936719Y-65394968D01*
X64936009Y-65380510D01*
X64936009Y-65035510D01*
X64936719Y-65021052D01*
X64938843Y-65006734D01*
X64942360Y-64992693D01*
X64947237Y-64979064D01*
X64953426Y-64965979D01*
X64960867Y-64953563D01*
X64969490Y-64941937D01*
X64979211Y-64931212D01*
X64989936Y-64921491D01*
X65001562Y-64912868D01*
X65013978Y-64905427D01*
X65027063Y-64899238D01*
X65040692Y-64894361D01*
X65054733Y-64890844D01*
X65069051Y-64888720D01*
X65083509Y-64888010D01*
X65378509Y-64888010D01*
X65392967Y-64888720D01*
X65392967Y-64888720D01*
G37*
D11*
X65231009Y-65208010D03*
D10*
G36*
X66362967Y-64888720D02*
G01*
X66377285Y-64890844D01*
X66391326Y-64894361D01*
X66404955Y-64899238D01*
X66418040Y-64905427D01*
X66430456Y-64912868D01*
X66442082Y-64921491D01*
X66452807Y-64931212D01*
X66462528Y-64941937D01*
X66471151Y-64953563D01*
X66478592Y-64965979D01*
X66484781Y-64979064D01*
X66489658Y-64992693D01*
X66493175Y-65006734D01*
X66495299Y-65021052D01*
X66496009Y-65035510D01*
X66496009Y-65380510D01*
X66495299Y-65394968D01*
X66493175Y-65409286D01*
X66489658Y-65423327D01*
X66484781Y-65436956D01*
X66478592Y-65450041D01*
X66471151Y-65462457D01*
X66462528Y-65474083D01*
X66452807Y-65484808D01*
X66442082Y-65494529D01*
X66430456Y-65503152D01*
X66418040Y-65510593D01*
X66404955Y-65516782D01*
X66391326Y-65521659D01*
X66377285Y-65525176D01*
X66362967Y-65527300D01*
X66348509Y-65528010D01*
X66053509Y-65528010D01*
X66039051Y-65527300D01*
X66024733Y-65525176D01*
X66010692Y-65521659D01*
X65997063Y-65516782D01*
X65983978Y-65510593D01*
X65971562Y-65503152D01*
X65959936Y-65494529D01*
X65949211Y-65484808D01*
X65939490Y-65474083D01*
X65930867Y-65462457D01*
X65923426Y-65450041D01*
X65917237Y-65436956D01*
X65912360Y-65423327D01*
X65908843Y-65409286D01*
X65906719Y-65394968D01*
X65906009Y-65380510D01*
X65906009Y-65035510D01*
X65906719Y-65021052D01*
X65908843Y-65006734D01*
X65912360Y-64992693D01*
X65917237Y-64979064D01*
X65923426Y-64965979D01*
X65930867Y-64953563D01*
X65939490Y-64941937D01*
X65949211Y-64931212D01*
X65959936Y-64921491D01*
X65971562Y-64912868D01*
X65983978Y-64905427D01*
X65997063Y-64899238D01*
X66010692Y-64894361D01*
X66024733Y-64890844D01*
X66039051Y-64888720D01*
X66053509Y-64888010D01*
X66348509Y-64888010D01*
X66362967Y-64888720D01*
X66362967Y-64888720D01*
G37*
D11*
X66201009Y-65208010D03*
G04 #@! TD*
D10*
G04 #@! TO.C,C2*
G36*
X68326967Y-64910720D02*
G01*
X68341285Y-64912844D01*
X68355326Y-64916361D01*
X68368955Y-64921238D01*
X68382040Y-64927427D01*
X68394456Y-64934868D01*
X68406082Y-64943491D01*
X68416807Y-64953212D01*
X68426528Y-64963937D01*
X68435151Y-64975563D01*
X68442592Y-64987979D01*
X68448781Y-65001064D01*
X68453658Y-65014693D01*
X68457175Y-65028734D01*
X68459299Y-65043052D01*
X68460009Y-65057510D01*
X68460009Y-65402510D01*
X68459299Y-65416968D01*
X68457175Y-65431286D01*
X68453658Y-65445327D01*
X68448781Y-65458956D01*
X68442592Y-65472041D01*
X68435151Y-65484457D01*
X68426528Y-65496083D01*
X68416807Y-65506808D01*
X68406082Y-65516529D01*
X68394456Y-65525152D01*
X68382040Y-65532593D01*
X68368955Y-65538782D01*
X68355326Y-65543659D01*
X68341285Y-65547176D01*
X68326967Y-65549300D01*
X68312509Y-65550010D01*
X68017509Y-65550010D01*
X68003051Y-65549300D01*
X67988733Y-65547176D01*
X67974692Y-65543659D01*
X67961063Y-65538782D01*
X67947978Y-65532593D01*
X67935562Y-65525152D01*
X67923936Y-65516529D01*
X67913211Y-65506808D01*
X67903490Y-65496083D01*
X67894867Y-65484457D01*
X67887426Y-65472041D01*
X67881237Y-65458956D01*
X67876360Y-65445327D01*
X67872843Y-65431286D01*
X67870719Y-65416968D01*
X67870009Y-65402510D01*
X67870009Y-65057510D01*
X67870719Y-65043052D01*
X67872843Y-65028734D01*
X67876360Y-65014693D01*
X67881237Y-65001064D01*
X67887426Y-64987979D01*
X67894867Y-64975563D01*
X67903490Y-64963937D01*
X67913211Y-64953212D01*
X67923936Y-64943491D01*
X67935562Y-64934868D01*
X67947978Y-64927427D01*
X67961063Y-64921238D01*
X67974692Y-64916361D01*
X67988733Y-64912844D01*
X68003051Y-64910720D01*
X68017509Y-64910010D01*
X68312509Y-64910010D01*
X68326967Y-64910720D01*
X68326967Y-64910720D01*
G37*
D11*
X68165009Y-65230010D03*
D10*
G36*
X69296967Y-64910720D02*
G01*
X69311285Y-64912844D01*
X69325326Y-64916361D01*
X69338955Y-64921238D01*
X69352040Y-64927427D01*
X69364456Y-64934868D01*
X69376082Y-64943491D01*
X69386807Y-64953212D01*
X69396528Y-64963937D01*
X69405151Y-64975563D01*
X69412592Y-64987979D01*
X69418781Y-65001064D01*
X69423658Y-65014693D01*
X69427175Y-65028734D01*
X69429299Y-65043052D01*
X69430009Y-65057510D01*
X69430009Y-65402510D01*
X69429299Y-65416968D01*
X69427175Y-65431286D01*
X69423658Y-65445327D01*
X69418781Y-65458956D01*
X69412592Y-65472041D01*
X69405151Y-65484457D01*
X69396528Y-65496083D01*
X69386807Y-65506808D01*
X69376082Y-65516529D01*
X69364456Y-65525152D01*
X69352040Y-65532593D01*
X69338955Y-65538782D01*
X69325326Y-65543659D01*
X69311285Y-65547176D01*
X69296967Y-65549300D01*
X69282509Y-65550010D01*
X68987509Y-65550010D01*
X68973051Y-65549300D01*
X68958733Y-65547176D01*
X68944692Y-65543659D01*
X68931063Y-65538782D01*
X68917978Y-65532593D01*
X68905562Y-65525152D01*
X68893936Y-65516529D01*
X68883211Y-65506808D01*
X68873490Y-65496083D01*
X68864867Y-65484457D01*
X68857426Y-65472041D01*
X68851237Y-65458956D01*
X68846360Y-65445327D01*
X68842843Y-65431286D01*
X68840719Y-65416968D01*
X68840009Y-65402510D01*
X68840009Y-65057510D01*
X68840719Y-65043052D01*
X68842843Y-65028734D01*
X68846360Y-65014693D01*
X68851237Y-65001064D01*
X68857426Y-64987979D01*
X68864867Y-64975563D01*
X68873490Y-64963937D01*
X68883211Y-64953212D01*
X68893936Y-64943491D01*
X68905562Y-64934868D01*
X68917978Y-64927427D01*
X68931063Y-64921238D01*
X68944692Y-64916361D01*
X68958733Y-64912844D01*
X68973051Y-64910720D01*
X68987509Y-64910010D01*
X69282509Y-64910010D01*
X69296967Y-64910720D01*
X69296967Y-64910720D01*
G37*
D11*
X69135009Y-65230010D03*
G04 #@! TD*
D10*
G04 #@! TO.C,R1*
G36*
X65485700Y-63527063D02*
G01*
X65506935Y-63530213D01*
X65527759Y-63535429D01*
X65547971Y-63542661D01*
X65567377Y-63551840D01*
X65585790Y-63562876D01*
X65603033Y-63575664D01*
X65618939Y-63590080D01*
X65633355Y-63605986D01*
X65646143Y-63623229D01*
X65657179Y-63641642D01*
X65666358Y-63661048D01*
X65673590Y-63681260D01*
X65678806Y-63702084D01*
X65681956Y-63723319D01*
X65683009Y-63744760D01*
X65683009Y-64182260D01*
X65681956Y-64203701D01*
X65678806Y-64224936D01*
X65673590Y-64245760D01*
X65666358Y-64265972D01*
X65657179Y-64285378D01*
X65646143Y-64303791D01*
X65633355Y-64321034D01*
X65618939Y-64336940D01*
X65603033Y-64351356D01*
X65585790Y-64364144D01*
X65567377Y-64375180D01*
X65547971Y-64384359D01*
X65527759Y-64391591D01*
X65506935Y-64396807D01*
X65485700Y-64399957D01*
X65464259Y-64401010D01*
X64951759Y-64401010D01*
X64930318Y-64399957D01*
X64909083Y-64396807D01*
X64888259Y-64391591D01*
X64868047Y-64384359D01*
X64848641Y-64375180D01*
X64830228Y-64364144D01*
X64812985Y-64351356D01*
X64797079Y-64336940D01*
X64782663Y-64321034D01*
X64769875Y-64303791D01*
X64758839Y-64285378D01*
X64749660Y-64265972D01*
X64742428Y-64245760D01*
X64737212Y-64224936D01*
X64734062Y-64203701D01*
X64733009Y-64182260D01*
X64733009Y-63744760D01*
X64734062Y-63723319D01*
X64737212Y-63702084D01*
X64742428Y-63681260D01*
X64749660Y-63661048D01*
X64758839Y-63641642D01*
X64769875Y-63623229D01*
X64782663Y-63605986D01*
X64797079Y-63590080D01*
X64812985Y-63575664D01*
X64830228Y-63562876D01*
X64848641Y-63551840D01*
X64868047Y-63542661D01*
X64888259Y-63535429D01*
X64909083Y-63530213D01*
X64930318Y-63527063D01*
X64951759Y-63526010D01*
X65464259Y-63526010D01*
X65485700Y-63527063D01*
X65485700Y-63527063D01*
G37*
D14*
X65208009Y-63963510D03*
D10*
G36*
X65485700Y-61952063D02*
G01*
X65506935Y-61955213D01*
X65527759Y-61960429D01*
X65547971Y-61967661D01*
X65567377Y-61976840D01*
X65585790Y-61987876D01*
X65603033Y-62000664D01*
X65618939Y-62015080D01*
X65633355Y-62030986D01*
X65646143Y-62048229D01*
X65657179Y-62066642D01*
X65666358Y-62086048D01*
X65673590Y-62106260D01*
X65678806Y-62127084D01*
X65681956Y-62148319D01*
X65683009Y-62169760D01*
X65683009Y-62607260D01*
X65681956Y-62628701D01*
X65678806Y-62649936D01*
X65673590Y-62670760D01*
X65666358Y-62690972D01*
X65657179Y-62710378D01*
X65646143Y-62728791D01*
X65633355Y-62746034D01*
X65618939Y-62761940D01*
X65603033Y-62776356D01*
X65585790Y-62789144D01*
X65567377Y-62800180D01*
X65547971Y-62809359D01*
X65527759Y-62816591D01*
X65506935Y-62821807D01*
X65485700Y-62824957D01*
X65464259Y-62826010D01*
X64951759Y-62826010D01*
X64930318Y-62824957D01*
X64909083Y-62821807D01*
X64888259Y-62816591D01*
X64868047Y-62809359D01*
X64848641Y-62800180D01*
X64830228Y-62789144D01*
X64812985Y-62776356D01*
X64797079Y-62761940D01*
X64782663Y-62746034D01*
X64769875Y-62728791D01*
X64758839Y-62710378D01*
X64749660Y-62690972D01*
X64742428Y-62670760D01*
X64737212Y-62649936D01*
X64734062Y-62628701D01*
X64733009Y-62607260D01*
X64733009Y-62169760D01*
X64734062Y-62148319D01*
X64737212Y-62127084D01*
X64742428Y-62106260D01*
X64749660Y-62086048D01*
X64758839Y-62066642D01*
X64769875Y-62048229D01*
X64782663Y-62030986D01*
X64797079Y-62015080D01*
X64812985Y-62000664D01*
X64830228Y-61987876D01*
X64848641Y-61976840D01*
X64868047Y-61967661D01*
X64888259Y-61960429D01*
X64909083Y-61955213D01*
X64930318Y-61952063D01*
X64951759Y-61951010D01*
X65464259Y-61951010D01*
X65485700Y-61952063D01*
X65485700Y-61952063D01*
G37*
D14*
X65208009Y-62388510D03*
G04 #@! TD*
D10*
G04 #@! TO.C,R2*
G36*
X68267700Y-60416063D02*
G01*
X68288935Y-60419213D01*
X68309759Y-60424429D01*
X68329971Y-60431661D01*
X68349377Y-60440840D01*
X68367790Y-60451876D01*
X68385033Y-60464664D01*
X68400939Y-60479080D01*
X68415355Y-60494986D01*
X68428143Y-60512229D01*
X68439179Y-60530642D01*
X68448358Y-60550048D01*
X68455590Y-60570260D01*
X68460806Y-60591084D01*
X68463956Y-60612319D01*
X68465009Y-60633760D01*
X68465009Y-61146260D01*
X68463956Y-61167701D01*
X68460806Y-61188936D01*
X68455590Y-61209760D01*
X68448358Y-61229972D01*
X68439179Y-61249378D01*
X68428143Y-61267791D01*
X68415355Y-61285034D01*
X68400939Y-61300940D01*
X68385033Y-61315356D01*
X68367790Y-61328144D01*
X68349377Y-61339180D01*
X68329971Y-61348359D01*
X68309759Y-61355591D01*
X68288935Y-61360807D01*
X68267700Y-61363957D01*
X68246259Y-61365010D01*
X67808759Y-61365010D01*
X67787318Y-61363957D01*
X67766083Y-61360807D01*
X67745259Y-61355591D01*
X67725047Y-61348359D01*
X67705641Y-61339180D01*
X67687228Y-61328144D01*
X67669985Y-61315356D01*
X67654079Y-61300940D01*
X67639663Y-61285034D01*
X67626875Y-61267791D01*
X67615839Y-61249378D01*
X67606660Y-61229972D01*
X67599428Y-61209760D01*
X67594212Y-61188936D01*
X67591062Y-61167701D01*
X67590009Y-61146260D01*
X67590009Y-60633760D01*
X67591062Y-60612319D01*
X67594212Y-60591084D01*
X67599428Y-60570260D01*
X67606660Y-60550048D01*
X67615839Y-60530642D01*
X67626875Y-60512229D01*
X67639663Y-60494986D01*
X67654079Y-60479080D01*
X67669985Y-60464664D01*
X67687228Y-60451876D01*
X67705641Y-60440840D01*
X67725047Y-60431661D01*
X67745259Y-60424429D01*
X67766083Y-60419213D01*
X67787318Y-60416063D01*
X67808759Y-60415010D01*
X68246259Y-60415010D01*
X68267700Y-60416063D01*
X68267700Y-60416063D01*
G37*
D14*
X68027509Y-60890010D03*
D10*
G36*
X66692700Y-60416063D02*
G01*
X66713935Y-60419213D01*
X66734759Y-60424429D01*
X66754971Y-60431661D01*
X66774377Y-60440840D01*
X66792790Y-60451876D01*
X66810033Y-60464664D01*
X66825939Y-60479080D01*
X66840355Y-60494986D01*
X66853143Y-60512229D01*
X66864179Y-60530642D01*
X66873358Y-60550048D01*
X66880590Y-60570260D01*
X66885806Y-60591084D01*
X66888956Y-60612319D01*
X66890009Y-60633760D01*
X66890009Y-61146260D01*
X66888956Y-61167701D01*
X66885806Y-61188936D01*
X66880590Y-61209760D01*
X66873358Y-61229972D01*
X66864179Y-61249378D01*
X66853143Y-61267791D01*
X66840355Y-61285034D01*
X66825939Y-61300940D01*
X66810033Y-61315356D01*
X66792790Y-61328144D01*
X66774377Y-61339180D01*
X66754971Y-61348359D01*
X66734759Y-61355591D01*
X66713935Y-61360807D01*
X66692700Y-61363957D01*
X66671259Y-61365010D01*
X66233759Y-61365010D01*
X66212318Y-61363957D01*
X66191083Y-61360807D01*
X66170259Y-61355591D01*
X66150047Y-61348359D01*
X66130641Y-61339180D01*
X66112228Y-61328144D01*
X66094985Y-61315356D01*
X66079079Y-61300940D01*
X66064663Y-61285034D01*
X66051875Y-61267791D01*
X66040839Y-61249378D01*
X66031660Y-61229972D01*
X66024428Y-61209760D01*
X66019212Y-61188936D01*
X66016062Y-61167701D01*
X66015009Y-61146260D01*
X66015009Y-60633760D01*
X66016062Y-60612319D01*
X66019212Y-60591084D01*
X66024428Y-60570260D01*
X66031660Y-60550048D01*
X66040839Y-60530642D01*
X66051875Y-60512229D01*
X66064663Y-60494986D01*
X66079079Y-60479080D01*
X66094985Y-60464664D01*
X66112228Y-60451876D01*
X66130641Y-60440840D01*
X66150047Y-60431661D01*
X66170259Y-60424429D01*
X66191083Y-60419213D01*
X66212318Y-60416063D01*
X66233759Y-60415010D01*
X66671259Y-60415010D01*
X66692700Y-60416063D01*
X66692700Y-60416063D01*
G37*
D14*
X66452509Y-60890010D03*
G04 #@! TD*
D10*
G04 #@! TO.C,C1*
G36*
X57076959Y-63920720D02*
G01*
X57091277Y-63922844D01*
X57105318Y-63926361D01*
X57118947Y-63931238D01*
X57132032Y-63937427D01*
X57144448Y-63944868D01*
X57156074Y-63953491D01*
X57166799Y-63963212D01*
X57176520Y-63973937D01*
X57185143Y-63985563D01*
X57192584Y-63997979D01*
X57198773Y-64011064D01*
X57203650Y-64024693D01*
X57207167Y-64038734D01*
X57209291Y-64053052D01*
X57210001Y-64067510D01*
X57210001Y-64362510D01*
X57209291Y-64376968D01*
X57207167Y-64391286D01*
X57203650Y-64405327D01*
X57198773Y-64418956D01*
X57192584Y-64432041D01*
X57185143Y-64444457D01*
X57176520Y-64456083D01*
X57166799Y-64466808D01*
X57156074Y-64476529D01*
X57144448Y-64485152D01*
X57132032Y-64492593D01*
X57118947Y-64498782D01*
X57105318Y-64503659D01*
X57091277Y-64507176D01*
X57076959Y-64509300D01*
X57062501Y-64510010D01*
X56717501Y-64510010D01*
X56703043Y-64509300D01*
X56688725Y-64507176D01*
X56674684Y-64503659D01*
X56661055Y-64498782D01*
X56647970Y-64492593D01*
X56635554Y-64485152D01*
X56623928Y-64476529D01*
X56613203Y-64466808D01*
X56603482Y-64456083D01*
X56594859Y-64444457D01*
X56587418Y-64432041D01*
X56581229Y-64418956D01*
X56576352Y-64405327D01*
X56572835Y-64391286D01*
X56570711Y-64376968D01*
X56570001Y-64362510D01*
X56570001Y-64067510D01*
X56570711Y-64053052D01*
X56572835Y-64038734D01*
X56576352Y-64024693D01*
X56581229Y-64011064D01*
X56587418Y-63997979D01*
X56594859Y-63985563D01*
X56603482Y-63973937D01*
X56613203Y-63963212D01*
X56623928Y-63953491D01*
X56635554Y-63944868D01*
X56647970Y-63937427D01*
X56661055Y-63931238D01*
X56674684Y-63926361D01*
X56688725Y-63922844D01*
X56703043Y-63920720D01*
X56717501Y-63920010D01*
X57062501Y-63920010D01*
X57076959Y-63920720D01*
X57076959Y-63920720D01*
G37*
D11*
X56890001Y-64215010D03*
D10*
G36*
X57076959Y-62950720D02*
G01*
X57091277Y-62952844D01*
X57105318Y-62956361D01*
X57118947Y-62961238D01*
X57132032Y-62967427D01*
X57144448Y-62974868D01*
X57156074Y-62983491D01*
X57166799Y-62993212D01*
X57176520Y-63003937D01*
X57185143Y-63015563D01*
X57192584Y-63027979D01*
X57198773Y-63041064D01*
X57203650Y-63054693D01*
X57207167Y-63068734D01*
X57209291Y-63083052D01*
X57210001Y-63097510D01*
X57210001Y-63392510D01*
X57209291Y-63406968D01*
X57207167Y-63421286D01*
X57203650Y-63435327D01*
X57198773Y-63448956D01*
X57192584Y-63462041D01*
X57185143Y-63474457D01*
X57176520Y-63486083D01*
X57166799Y-63496808D01*
X57156074Y-63506529D01*
X57144448Y-63515152D01*
X57132032Y-63522593D01*
X57118947Y-63528782D01*
X57105318Y-63533659D01*
X57091277Y-63537176D01*
X57076959Y-63539300D01*
X57062501Y-63540010D01*
X56717501Y-63540010D01*
X56703043Y-63539300D01*
X56688725Y-63537176D01*
X56674684Y-63533659D01*
X56661055Y-63528782D01*
X56647970Y-63522593D01*
X56635554Y-63515152D01*
X56623928Y-63506529D01*
X56613203Y-63496808D01*
X56603482Y-63486083D01*
X56594859Y-63474457D01*
X56587418Y-63462041D01*
X56581229Y-63448956D01*
X56576352Y-63435327D01*
X56572835Y-63421286D01*
X56570711Y-63406968D01*
X56570001Y-63392510D01*
X56570001Y-63097510D01*
X56570711Y-63083052D01*
X56572835Y-63068734D01*
X56576352Y-63054693D01*
X56581229Y-63041064D01*
X56587418Y-63027979D01*
X56594859Y-63015563D01*
X56603482Y-63003937D01*
X56613203Y-62993212D01*
X56623928Y-62983491D01*
X56635554Y-62974868D01*
X56647970Y-62967427D01*
X56661055Y-62961238D01*
X56674684Y-62956361D01*
X56688725Y-62952844D01*
X56703043Y-62950720D01*
X56717501Y-62950010D01*
X57062501Y-62950010D01*
X57076959Y-62950720D01*
X57076959Y-62950720D01*
G37*
D11*
X56890001Y-63245010D03*
G04 #@! TD*
D12*
G04 #@! TO.C,U1*
X54317501Y-63180010D03*
X54317501Y-63680010D03*
X55842501Y-63180010D03*
X55842501Y-63680010D03*
X54317501Y-64180010D03*
X55842501Y-64180010D03*
X54317501Y-62680010D03*
X55842501Y-62680010D03*
D13*
X54830001Y-64192510D03*
X55330001Y-64192510D03*
X55330001Y-62667510D03*
X54830001Y-62667510D03*
G04 #@! TD*
D10*
G04 #@! TO.C,C3*
G36*
X53232959Y-64888720D02*
G01*
X53247277Y-64890844D01*
X53261318Y-64894361D01*
X53274947Y-64899238D01*
X53288032Y-64905427D01*
X53300448Y-64912868D01*
X53312074Y-64921491D01*
X53322799Y-64931212D01*
X53332520Y-64941937D01*
X53341143Y-64953563D01*
X53348584Y-64965979D01*
X53354773Y-64979064D01*
X53359650Y-64992693D01*
X53363167Y-65006734D01*
X53365291Y-65021052D01*
X53366001Y-65035510D01*
X53366001Y-65380510D01*
X53365291Y-65394968D01*
X53363167Y-65409286D01*
X53359650Y-65423327D01*
X53354773Y-65436956D01*
X53348584Y-65450041D01*
X53341143Y-65462457D01*
X53332520Y-65474083D01*
X53322799Y-65484808D01*
X53312074Y-65494529D01*
X53300448Y-65503152D01*
X53288032Y-65510593D01*
X53274947Y-65516782D01*
X53261318Y-65521659D01*
X53247277Y-65525176D01*
X53232959Y-65527300D01*
X53218501Y-65528010D01*
X52923501Y-65528010D01*
X52909043Y-65527300D01*
X52894725Y-65525176D01*
X52880684Y-65521659D01*
X52867055Y-65516782D01*
X52853970Y-65510593D01*
X52841554Y-65503152D01*
X52829928Y-65494529D01*
X52819203Y-65484808D01*
X52809482Y-65474083D01*
X52800859Y-65462457D01*
X52793418Y-65450041D01*
X52787229Y-65436956D01*
X52782352Y-65423327D01*
X52778835Y-65409286D01*
X52776711Y-65394968D01*
X52776001Y-65380510D01*
X52776001Y-65035510D01*
X52776711Y-65021052D01*
X52778835Y-65006734D01*
X52782352Y-64992693D01*
X52787229Y-64979064D01*
X52793418Y-64965979D01*
X52800859Y-64953563D01*
X52809482Y-64941937D01*
X52819203Y-64931212D01*
X52829928Y-64921491D01*
X52841554Y-64912868D01*
X52853970Y-64905427D01*
X52867055Y-64899238D01*
X52880684Y-64894361D01*
X52894725Y-64890844D01*
X52909043Y-64888720D01*
X52923501Y-64888010D01*
X53218501Y-64888010D01*
X53232959Y-64888720D01*
X53232959Y-64888720D01*
G37*
D11*
X53071001Y-65208010D03*
D10*
G36*
X54202959Y-64888720D02*
G01*
X54217277Y-64890844D01*
X54231318Y-64894361D01*
X54244947Y-64899238D01*
X54258032Y-64905427D01*
X54270448Y-64912868D01*
X54282074Y-64921491D01*
X54292799Y-64931212D01*
X54302520Y-64941937D01*
X54311143Y-64953563D01*
X54318584Y-64965979D01*
X54324773Y-64979064D01*
X54329650Y-64992693D01*
X54333167Y-65006734D01*
X54335291Y-65021052D01*
X54336001Y-65035510D01*
X54336001Y-65380510D01*
X54335291Y-65394968D01*
X54333167Y-65409286D01*
X54329650Y-65423327D01*
X54324773Y-65436956D01*
X54318584Y-65450041D01*
X54311143Y-65462457D01*
X54302520Y-65474083D01*
X54292799Y-65484808D01*
X54282074Y-65494529D01*
X54270448Y-65503152D01*
X54258032Y-65510593D01*
X54244947Y-65516782D01*
X54231318Y-65521659D01*
X54217277Y-65525176D01*
X54202959Y-65527300D01*
X54188501Y-65528010D01*
X53893501Y-65528010D01*
X53879043Y-65527300D01*
X53864725Y-65525176D01*
X53850684Y-65521659D01*
X53837055Y-65516782D01*
X53823970Y-65510593D01*
X53811554Y-65503152D01*
X53799928Y-65494529D01*
X53789203Y-65484808D01*
X53779482Y-65474083D01*
X53770859Y-65462457D01*
X53763418Y-65450041D01*
X53757229Y-65436956D01*
X53752352Y-65423327D01*
X53748835Y-65409286D01*
X53746711Y-65394968D01*
X53746001Y-65380510D01*
X53746001Y-65035510D01*
X53746711Y-65021052D01*
X53748835Y-65006734D01*
X53752352Y-64992693D01*
X53757229Y-64979064D01*
X53763418Y-64965979D01*
X53770859Y-64953563D01*
X53779482Y-64941937D01*
X53789203Y-64931212D01*
X53799928Y-64921491D01*
X53811554Y-64912868D01*
X53823970Y-64905427D01*
X53837055Y-64899238D01*
X53850684Y-64894361D01*
X53864725Y-64890844D01*
X53879043Y-64888720D01*
X53893501Y-64888010D01*
X54188501Y-64888010D01*
X54202959Y-64888720D01*
X54202959Y-64888720D01*
G37*
D11*
X54041001Y-65208010D03*
G04 #@! TD*
D10*
G04 #@! TO.C,C2*
G36*
X56166959Y-64910720D02*
G01*
X56181277Y-64912844D01*
X56195318Y-64916361D01*
X56208947Y-64921238D01*
X56222032Y-64927427D01*
X56234448Y-64934868D01*
X56246074Y-64943491D01*
X56256799Y-64953212D01*
X56266520Y-64963937D01*
X56275143Y-64975563D01*
X56282584Y-64987979D01*
X56288773Y-65001064D01*
X56293650Y-65014693D01*
X56297167Y-65028734D01*
X56299291Y-65043052D01*
X56300001Y-65057510D01*
X56300001Y-65402510D01*
X56299291Y-65416968D01*
X56297167Y-65431286D01*
X56293650Y-65445327D01*
X56288773Y-65458956D01*
X56282584Y-65472041D01*
X56275143Y-65484457D01*
X56266520Y-65496083D01*
X56256799Y-65506808D01*
X56246074Y-65516529D01*
X56234448Y-65525152D01*
X56222032Y-65532593D01*
X56208947Y-65538782D01*
X56195318Y-65543659D01*
X56181277Y-65547176D01*
X56166959Y-65549300D01*
X56152501Y-65550010D01*
X55857501Y-65550010D01*
X55843043Y-65549300D01*
X55828725Y-65547176D01*
X55814684Y-65543659D01*
X55801055Y-65538782D01*
X55787970Y-65532593D01*
X55775554Y-65525152D01*
X55763928Y-65516529D01*
X55753203Y-65506808D01*
X55743482Y-65496083D01*
X55734859Y-65484457D01*
X55727418Y-65472041D01*
X55721229Y-65458956D01*
X55716352Y-65445327D01*
X55712835Y-65431286D01*
X55710711Y-65416968D01*
X55710001Y-65402510D01*
X55710001Y-65057510D01*
X55710711Y-65043052D01*
X55712835Y-65028734D01*
X55716352Y-65014693D01*
X55721229Y-65001064D01*
X55727418Y-64987979D01*
X55734859Y-64975563D01*
X55743482Y-64963937D01*
X55753203Y-64953212D01*
X55763928Y-64943491D01*
X55775554Y-64934868D01*
X55787970Y-64927427D01*
X55801055Y-64921238D01*
X55814684Y-64916361D01*
X55828725Y-64912844D01*
X55843043Y-64910720D01*
X55857501Y-64910010D01*
X56152501Y-64910010D01*
X56166959Y-64910720D01*
X56166959Y-64910720D01*
G37*
D11*
X56005001Y-65230010D03*
D10*
G36*
X57136959Y-64910720D02*
G01*
X57151277Y-64912844D01*
X57165318Y-64916361D01*
X57178947Y-64921238D01*
X57192032Y-64927427D01*
X57204448Y-64934868D01*
X57216074Y-64943491D01*
X57226799Y-64953212D01*
X57236520Y-64963937D01*
X57245143Y-64975563D01*
X57252584Y-64987979D01*
X57258773Y-65001064D01*
X57263650Y-65014693D01*
X57267167Y-65028734D01*
X57269291Y-65043052D01*
X57270001Y-65057510D01*
X57270001Y-65402510D01*
X57269291Y-65416968D01*
X57267167Y-65431286D01*
X57263650Y-65445327D01*
X57258773Y-65458956D01*
X57252584Y-65472041D01*
X57245143Y-65484457D01*
X57236520Y-65496083D01*
X57226799Y-65506808D01*
X57216074Y-65516529D01*
X57204448Y-65525152D01*
X57192032Y-65532593D01*
X57178947Y-65538782D01*
X57165318Y-65543659D01*
X57151277Y-65547176D01*
X57136959Y-65549300D01*
X57122501Y-65550010D01*
X56827501Y-65550010D01*
X56813043Y-65549300D01*
X56798725Y-65547176D01*
X56784684Y-65543659D01*
X56771055Y-65538782D01*
X56757970Y-65532593D01*
X56745554Y-65525152D01*
X56733928Y-65516529D01*
X56723203Y-65506808D01*
X56713482Y-65496083D01*
X56704859Y-65484457D01*
X56697418Y-65472041D01*
X56691229Y-65458956D01*
X56686352Y-65445327D01*
X56682835Y-65431286D01*
X56680711Y-65416968D01*
X56680001Y-65402510D01*
X56680001Y-65057510D01*
X56680711Y-65043052D01*
X56682835Y-65028734D01*
X56686352Y-65014693D01*
X56691229Y-65001064D01*
X56697418Y-64987979D01*
X56704859Y-64975563D01*
X56713482Y-64963937D01*
X56723203Y-64953212D01*
X56733928Y-64943491D01*
X56745554Y-64934868D01*
X56757970Y-64927427D01*
X56771055Y-64921238D01*
X56784684Y-64916361D01*
X56798725Y-64912844D01*
X56813043Y-64910720D01*
X56827501Y-64910010D01*
X57122501Y-64910010D01*
X57136959Y-64910720D01*
X57136959Y-64910720D01*
G37*
D11*
X56975001Y-65230010D03*
G04 #@! TD*
D10*
G04 #@! TO.C,R1*
G36*
X53325692Y-63527063D02*
G01*
X53346927Y-63530213D01*
X53367751Y-63535429D01*
X53387963Y-63542661D01*
X53407369Y-63551840D01*
X53425782Y-63562876D01*
X53443025Y-63575664D01*
X53458931Y-63590080D01*
X53473347Y-63605986D01*
X53486135Y-63623229D01*
X53497171Y-63641642D01*
X53506350Y-63661048D01*
X53513582Y-63681260D01*
X53518798Y-63702084D01*
X53521948Y-63723319D01*
X53523001Y-63744760D01*
X53523001Y-64182260D01*
X53521948Y-64203701D01*
X53518798Y-64224936D01*
X53513582Y-64245760D01*
X53506350Y-64265972D01*
X53497171Y-64285378D01*
X53486135Y-64303791D01*
X53473347Y-64321034D01*
X53458931Y-64336940D01*
X53443025Y-64351356D01*
X53425782Y-64364144D01*
X53407369Y-64375180D01*
X53387963Y-64384359D01*
X53367751Y-64391591D01*
X53346927Y-64396807D01*
X53325692Y-64399957D01*
X53304251Y-64401010D01*
X52791751Y-64401010D01*
X52770310Y-64399957D01*
X52749075Y-64396807D01*
X52728251Y-64391591D01*
X52708039Y-64384359D01*
X52688633Y-64375180D01*
X52670220Y-64364144D01*
X52652977Y-64351356D01*
X52637071Y-64336940D01*
X52622655Y-64321034D01*
X52609867Y-64303791D01*
X52598831Y-64285378D01*
X52589652Y-64265972D01*
X52582420Y-64245760D01*
X52577204Y-64224936D01*
X52574054Y-64203701D01*
X52573001Y-64182260D01*
X52573001Y-63744760D01*
X52574054Y-63723319D01*
X52577204Y-63702084D01*
X52582420Y-63681260D01*
X52589652Y-63661048D01*
X52598831Y-63641642D01*
X52609867Y-63623229D01*
X52622655Y-63605986D01*
X52637071Y-63590080D01*
X52652977Y-63575664D01*
X52670220Y-63562876D01*
X52688633Y-63551840D01*
X52708039Y-63542661D01*
X52728251Y-63535429D01*
X52749075Y-63530213D01*
X52770310Y-63527063D01*
X52791751Y-63526010D01*
X53304251Y-63526010D01*
X53325692Y-63527063D01*
X53325692Y-63527063D01*
G37*
D14*
X53048001Y-63963510D03*
D10*
G36*
X53325692Y-61952063D02*
G01*
X53346927Y-61955213D01*
X53367751Y-61960429D01*
X53387963Y-61967661D01*
X53407369Y-61976840D01*
X53425782Y-61987876D01*
X53443025Y-62000664D01*
X53458931Y-62015080D01*
X53473347Y-62030986D01*
X53486135Y-62048229D01*
X53497171Y-62066642D01*
X53506350Y-62086048D01*
X53513582Y-62106260D01*
X53518798Y-62127084D01*
X53521948Y-62148319D01*
X53523001Y-62169760D01*
X53523001Y-62607260D01*
X53521948Y-62628701D01*
X53518798Y-62649936D01*
X53513582Y-62670760D01*
X53506350Y-62690972D01*
X53497171Y-62710378D01*
X53486135Y-62728791D01*
X53473347Y-62746034D01*
X53458931Y-62761940D01*
X53443025Y-62776356D01*
X53425782Y-62789144D01*
X53407369Y-62800180D01*
X53387963Y-62809359D01*
X53367751Y-62816591D01*
X53346927Y-62821807D01*
X53325692Y-62824957D01*
X53304251Y-62826010D01*
X52791751Y-62826010D01*
X52770310Y-62824957D01*
X52749075Y-62821807D01*
X52728251Y-62816591D01*
X52708039Y-62809359D01*
X52688633Y-62800180D01*
X52670220Y-62789144D01*
X52652977Y-62776356D01*
X52637071Y-62761940D01*
X52622655Y-62746034D01*
X52609867Y-62728791D01*
X52598831Y-62710378D01*
X52589652Y-62690972D01*
X52582420Y-62670760D01*
X52577204Y-62649936D01*
X52574054Y-62628701D01*
X52573001Y-62607260D01*
X52573001Y-62169760D01*
X52574054Y-62148319D01*
X52577204Y-62127084D01*
X52582420Y-62106260D01*
X52589652Y-62086048D01*
X52598831Y-62066642D01*
X52609867Y-62048229D01*
X52622655Y-62030986D01*
X52637071Y-62015080D01*
X52652977Y-62000664D01*
X52670220Y-61987876D01*
X52688633Y-61976840D01*
X52708039Y-61967661D01*
X52728251Y-61960429D01*
X52749075Y-61955213D01*
X52770310Y-61952063D01*
X52791751Y-61951010D01*
X53304251Y-61951010D01*
X53325692Y-61952063D01*
X53325692Y-61952063D01*
G37*
D14*
X53048001Y-62388510D03*
G04 #@! TD*
D10*
G04 #@! TO.C,R2*
G36*
X56107692Y-60416063D02*
G01*
X56128927Y-60419213D01*
X56149751Y-60424429D01*
X56169963Y-60431661D01*
X56189369Y-60440840D01*
X56207782Y-60451876D01*
X56225025Y-60464664D01*
X56240931Y-60479080D01*
X56255347Y-60494986D01*
X56268135Y-60512229D01*
X56279171Y-60530642D01*
X56288350Y-60550048D01*
X56295582Y-60570260D01*
X56300798Y-60591084D01*
X56303948Y-60612319D01*
X56305001Y-60633760D01*
X56305001Y-61146260D01*
X56303948Y-61167701D01*
X56300798Y-61188936D01*
X56295582Y-61209760D01*
X56288350Y-61229972D01*
X56279171Y-61249378D01*
X56268135Y-61267791D01*
X56255347Y-61285034D01*
X56240931Y-61300940D01*
X56225025Y-61315356D01*
X56207782Y-61328144D01*
X56189369Y-61339180D01*
X56169963Y-61348359D01*
X56149751Y-61355591D01*
X56128927Y-61360807D01*
X56107692Y-61363957D01*
X56086251Y-61365010D01*
X55648751Y-61365010D01*
X55627310Y-61363957D01*
X55606075Y-61360807D01*
X55585251Y-61355591D01*
X55565039Y-61348359D01*
X55545633Y-61339180D01*
X55527220Y-61328144D01*
X55509977Y-61315356D01*
X55494071Y-61300940D01*
X55479655Y-61285034D01*
X55466867Y-61267791D01*
X55455831Y-61249378D01*
X55446652Y-61229972D01*
X55439420Y-61209760D01*
X55434204Y-61188936D01*
X55431054Y-61167701D01*
X55430001Y-61146260D01*
X55430001Y-60633760D01*
X55431054Y-60612319D01*
X55434204Y-60591084D01*
X55439420Y-60570260D01*
X55446652Y-60550048D01*
X55455831Y-60530642D01*
X55466867Y-60512229D01*
X55479655Y-60494986D01*
X55494071Y-60479080D01*
X55509977Y-60464664D01*
X55527220Y-60451876D01*
X55545633Y-60440840D01*
X55565039Y-60431661D01*
X55585251Y-60424429D01*
X55606075Y-60419213D01*
X55627310Y-60416063D01*
X55648751Y-60415010D01*
X56086251Y-60415010D01*
X56107692Y-60416063D01*
X56107692Y-60416063D01*
G37*
D14*
X55867501Y-60890010D03*
D10*
G36*
X54532692Y-60416063D02*
G01*
X54553927Y-60419213D01*
X54574751Y-60424429D01*
X54594963Y-60431661D01*
X54614369Y-60440840D01*
X54632782Y-60451876D01*
X54650025Y-60464664D01*
X54665931Y-60479080D01*
X54680347Y-60494986D01*
X54693135Y-60512229D01*
X54704171Y-60530642D01*
X54713350Y-60550048D01*
X54720582Y-60570260D01*
X54725798Y-60591084D01*
X54728948Y-60612319D01*
X54730001Y-60633760D01*
X54730001Y-61146260D01*
X54728948Y-61167701D01*
X54725798Y-61188936D01*
X54720582Y-61209760D01*
X54713350Y-61229972D01*
X54704171Y-61249378D01*
X54693135Y-61267791D01*
X54680347Y-61285034D01*
X54665931Y-61300940D01*
X54650025Y-61315356D01*
X54632782Y-61328144D01*
X54614369Y-61339180D01*
X54594963Y-61348359D01*
X54574751Y-61355591D01*
X54553927Y-61360807D01*
X54532692Y-61363957D01*
X54511251Y-61365010D01*
X54073751Y-61365010D01*
X54052310Y-61363957D01*
X54031075Y-61360807D01*
X54010251Y-61355591D01*
X53990039Y-61348359D01*
X53970633Y-61339180D01*
X53952220Y-61328144D01*
X53934977Y-61315356D01*
X53919071Y-61300940D01*
X53904655Y-61285034D01*
X53891867Y-61267791D01*
X53880831Y-61249378D01*
X53871652Y-61229972D01*
X53864420Y-61209760D01*
X53859204Y-61188936D01*
X53856054Y-61167701D01*
X53855001Y-61146260D01*
X53855001Y-60633760D01*
X53856054Y-60612319D01*
X53859204Y-60591084D01*
X53864420Y-60570260D01*
X53871652Y-60550048D01*
X53880831Y-60530642D01*
X53891867Y-60512229D01*
X53904655Y-60494986D01*
X53919071Y-60479080D01*
X53934977Y-60464664D01*
X53952220Y-60451876D01*
X53970633Y-60440840D01*
X53990039Y-60431661D01*
X54010251Y-60424429D01*
X54031075Y-60419213D01*
X54052310Y-60416063D01*
X54073751Y-60415010D01*
X54511251Y-60415010D01*
X54532692Y-60416063D01*
X54532692Y-60416063D01*
G37*
D14*
X54292501Y-60890010D03*
G04 #@! TD*
D10*
G04 #@! TO.C,C1*
G36*
X69236967Y-54300711D02*
G01*
X69251285Y-54302835D01*
X69265326Y-54306352D01*
X69278955Y-54311229D01*
X69292040Y-54317418D01*
X69304456Y-54324859D01*
X69316082Y-54333482D01*
X69326807Y-54343203D01*
X69336528Y-54353928D01*
X69345151Y-54365554D01*
X69352592Y-54377970D01*
X69358781Y-54391055D01*
X69363658Y-54404684D01*
X69367175Y-54418725D01*
X69369299Y-54433043D01*
X69370009Y-54447501D01*
X69370009Y-54742501D01*
X69369299Y-54756959D01*
X69367175Y-54771277D01*
X69363658Y-54785318D01*
X69358781Y-54798947D01*
X69352592Y-54812032D01*
X69345151Y-54824448D01*
X69336528Y-54836074D01*
X69326807Y-54846799D01*
X69316082Y-54856520D01*
X69304456Y-54865143D01*
X69292040Y-54872584D01*
X69278955Y-54878773D01*
X69265326Y-54883650D01*
X69251285Y-54887167D01*
X69236967Y-54889291D01*
X69222509Y-54890001D01*
X68877509Y-54890001D01*
X68863051Y-54889291D01*
X68848733Y-54887167D01*
X68834692Y-54883650D01*
X68821063Y-54878773D01*
X68807978Y-54872584D01*
X68795562Y-54865143D01*
X68783936Y-54856520D01*
X68773211Y-54846799D01*
X68763490Y-54836074D01*
X68754867Y-54824448D01*
X68747426Y-54812032D01*
X68741237Y-54798947D01*
X68736360Y-54785318D01*
X68732843Y-54771277D01*
X68730719Y-54756959D01*
X68730009Y-54742501D01*
X68730009Y-54447501D01*
X68730719Y-54433043D01*
X68732843Y-54418725D01*
X68736360Y-54404684D01*
X68741237Y-54391055D01*
X68747426Y-54377970D01*
X68754867Y-54365554D01*
X68763490Y-54353928D01*
X68773211Y-54343203D01*
X68783936Y-54333482D01*
X68795562Y-54324859D01*
X68807978Y-54317418D01*
X68821063Y-54311229D01*
X68834692Y-54306352D01*
X68848733Y-54302835D01*
X68863051Y-54300711D01*
X68877509Y-54300001D01*
X69222509Y-54300001D01*
X69236967Y-54300711D01*
X69236967Y-54300711D01*
G37*
D11*
X69050009Y-54595001D03*
D10*
G36*
X69236967Y-53330711D02*
G01*
X69251285Y-53332835D01*
X69265326Y-53336352D01*
X69278955Y-53341229D01*
X69292040Y-53347418D01*
X69304456Y-53354859D01*
X69316082Y-53363482D01*
X69326807Y-53373203D01*
X69336528Y-53383928D01*
X69345151Y-53395554D01*
X69352592Y-53407970D01*
X69358781Y-53421055D01*
X69363658Y-53434684D01*
X69367175Y-53448725D01*
X69369299Y-53463043D01*
X69370009Y-53477501D01*
X69370009Y-53772501D01*
X69369299Y-53786959D01*
X69367175Y-53801277D01*
X69363658Y-53815318D01*
X69358781Y-53828947D01*
X69352592Y-53842032D01*
X69345151Y-53854448D01*
X69336528Y-53866074D01*
X69326807Y-53876799D01*
X69316082Y-53886520D01*
X69304456Y-53895143D01*
X69292040Y-53902584D01*
X69278955Y-53908773D01*
X69265326Y-53913650D01*
X69251285Y-53917167D01*
X69236967Y-53919291D01*
X69222509Y-53920001D01*
X68877509Y-53920001D01*
X68863051Y-53919291D01*
X68848733Y-53917167D01*
X68834692Y-53913650D01*
X68821063Y-53908773D01*
X68807978Y-53902584D01*
X68795562Y-53895143D01*
X68783936Y-53886520D01*
X68773211Y-53876799D01*
X68763490Y-53866074D01*
X68754867Y-53854448D01*
X68747426Y-53842032D01*
X68741237Y-53828947D01*
X68736360Y-53815318D01*
X68732843Y-53801277D01*
X68730719Y-53786959D01*
X68730009Y-53772501D01*
X68730009Y-53477501D01*
X68730719Y-53463043D01*
X68732843Y-53448725D01*
X68736360Y-53434684D01*
X68741237Y-53421055D01*
X68747426Y-53407970D01*
X68754867Y-53395554D01*
X68763490Y-53383928D01*
X68773211Y-53373203D01*
X68783936Y-53363482D01*
X68795562Y-53354859D01*
X68807978Y-53347418D01*
X68821063Y-53341229D01*
X68834692Y-53336352D01*
X68848733Y-53332835D01*
X68863051Y-53330711D01*
X68877509Y-53330001D01*
X69222509Y-53330001D01*
X69236967Y-53330711D01*
X69236967Y-53330711D01*
G37*
D11*
X69050009Y-53625001D03*
G04 #@! TD*
D12*
G04 #@! TO.C,U1*
X66477509Y-53560001D03*
X66477509Y-54060001D03*
X68002509Y-53560001D03*
X68002509Y-54060001D03*
X66477509Y-54560001D03*
X68002509Y-54560001D03*
X66477509Y-53060001D03*
X68002509Y-53060001D03*
D13*
X66990009Y-54572501D03*
X67490009Y-54572501D03*
X67490009Y-53047501D03*
X66990009Y-53047501D03*
G04 #@! TD*
D10*
G04 #@! TO.C,C3*
G36*
X65392967Y-55268711D02*
G01*
X65407285Y-55270835D01*
X65421326Y-55274352D01*
X65434955Y-55279229D01*
X65448040Y-55285418D01*
X65460456Y-55292859D01*
X65472082Y-55301482D01*
X65482807Y-55311203D01*
X65492528Y-55321928D01*
X65501151Y-55333554D01*
X65508592Y-55345970D01*
X65514781Y-55359055D01*
X65519658Y-55372684D01*
X65523175Y-55386725D01*
X65525299Y-55401043D01*
X65526009Y-55415501D01*
X65526009Y-55760501D01*
X65525299Y-55774959D01*
X65523175Y-55789277D01*
X65519658Y-55803318D01*
X65514781Y-55816947D01*
X65508592Y-55830032D01*
X65501151Y-55842448D01*
X65492528Y-55854074D01*
X65482807Y-55864799D01*
X65472082Y-55874520D01*
X65460456Y-55883143D01*
X65448040Y-55890584D01*
X65434955Y-55896773D01*
X65421326Y-55901650D01*
X65407285Y-55905167D01*
X65392967Y-55907291D01*
X65378509Y-55908001D01*
X65083509Y-55908001D01*
X65069051Y-55907291D01*
X65054733Y-55905167D01*
X65040692Y-55901650D01*
X65027063Y-55896773D01*
X65013978Y-55890584D01*
X65001562Y-55883143D01*
X64989936Y-55874520D01*
X64979211Y-55864799D01*
X64969490Y-55854074D01*
X64960867Y-55842448D01*
X64953426Y-55830032D01*
X64947237Y-55816947D01*
X64942360Y-55803318D01*
X64938843Y-55789277D01*
X64936719Y-55774959D01*
X64936009Y-55760501D01*
X64936009Y-55415501D01*
X64936719Y-55401043D01*
X64938843Y-55386725D01*
X64942360Y-55372684D01*
X64947237Y-55359055D01*
X64953426Y-55345970D01*
X64960867Y-55333554D01*
X64969490Y-55321928D01*
X64979211Y-55311203D01*
X64989936Y-55301482D01*
X65001562Y-55292859D01*
X65013978Y-55285418D01*
X65027063Y-55279229D01*
X65040692Y-55274352D01*
X65054733Y-55270835D01*
X65069051Y-55268711D01*
X65083509Y-55268001D01*
X65378509Y-55268001D01*
X65392967Y-55268711D01*
X65392967Y-55268711D01*
G37*
D11*
X65231009Y-55588001D03*
D10*
G36*
X66362967Y-55268711D02*
G01*
X66377285Y-55270835D01*
X66391326Y-55274352D01*
X66404955Y-55279229D01*
X66418040Y-55285418D01*
X66430456Y-55292859D01*
X66442082Y-55301482D01*
X66452807Y-55311203D01*
X66462528Y-55321928D01*
X66471151Y-55333554D01*
X66478592Y-55345970D01*
X66484781Y-55359055D01*
X66489658Y-55372684D01*
X66493175Y-55386725D01*
X66495299Y-55401043D01*
X66496009Y-55415501D01*
X66496009Y-55760501D01*
X66495299Y-55774959D01*
X66493175Y-55789277D01*
X66489658Y-55803318D01*
X66484781Y-55816947D01*
X66478592Y-55830032D01*
X66471151Y-55842448D01*
X66462528Y-55854074D01*
X66452807Y-55864799D01*
X66442082Y-55874520D01*
X66430456Y-55883143D01*
X66418040Y-55890584D01*
X66404955Y-55896773D01*
X66391326Y-55901650D01*
X66377285Y-55905167D01*
X66362967Y-55907291D01*
X66348509Y-55908001D01*
X66053509Y-55908001D01*
X66039051Y-55907291D01*
X66024733Y-55905167D01*
X66010692Y-55901650D01*
X65997063Y-55896773D01*
X65983978Y-55890584D01*
X65971562Y-55883143D01*
X65959936Y-55874520D01*
X65949211Y-55864799D01*
X65939490Y-55854074D01*
X65930867Y-55842448D01*
X65923426Y-55830032D01*
X65917237Y-55816947D01*
X65912360Y-55803318D01*
X65908843Y-55789277D01*
X65906719Y-55774959D01*
X65906009Y-55760501D01*
X65906009Y-55415501D01*
X65906719Y-55401043D01*
X65908843Y-55386725D01*
X65912360Y-55372684D01*
X65917237Y-55359055D01*
X65923426Y-55345970D01*
X65930867Y-55333554D01*
X65939490Y-55321928D01*
X65949211Y-55311203D01*
X65959936Y-55301482D01*
X65971562Y-55292859D01*
X65983978Y-55285418D01*
X65997063Y-55279229D01*
X66010692Y-55274352D01*
X66024733Y-55270835D01*
X66039051Y-55268711D01*
X66053509Y-55268001D01*
X66348509Y-55268001D01*
X66362967Y-55268711D01*
X66362967Y-55268711D01*
G37*
D11*
X66201009Y-55588001D03*
G04 #@! TD*
D10*
G04 #@! TO.C,C2*
G36*
X68326967Y-55290711D02*
G01*
X68341285Y-55292835D01*
X68355326Y-55296352D01*
X68368955Y-55301229D01*
X68382040Y-55307418D01*
X68394456Y-55314859D01*
X68406082Y-55323482D01*
X68416807Y-55333203D01*
X68426528Y-55343928D01*
X68435151Y-55355554D01*
X68442592Y-55367970D01*
X68448781Y-55381055D01*
X68453658Y-55394684D01*
X68457175Y-55408725D01*
X68459299Y-55423043D01*
X68460009Y-55437501D01*
X68460009Y-55782501D01*
X68459299Y-55796959D01*
X68457175Y-55811277D01*
X68453658Y-55825318D01*
X68448781Y-55838947D01*
X68442592Y-55852032D01*
X68435151Y-55864448D01*
X68426528Y-55876074D01*
X68416807Y-55886799D01*
X68406082Y-55896520D01*
X68394456Y-55905143D01*
X68382040Y-55912584D01*
X68368955Y-55918773D01*
X68355326Y-55923650D01*
X68341285Y-55927167D01*
X68326967Y-55929291D01*
X68312509Y-55930001D01*
X68017509Y-55930001D01*
X68003051Y-55929291D01*
X67988733Y-55927167D01*
X67974692Y-55923650D01*
X67961063Y-55918773D01*
X67947978Y-55912584D01*
X67935562Y-55905143D01*
X67923936Y-55896520D01*
X67913211Y-55886799D01*
X67903490Y-55876074D01*
X67894867Y-55864448D01*
X67887426Y-55852032D01*
X67881237Y-55838947D01*
X67876360Y-55825318D01*
X67872843Y-55811277D01*
X67870719Y-55796959D01*
X67870009Y-55782501D01*
X67870009Y-55437501D01*
X67870719Y-55423043D01*
X67872843Y-55408725D01*
X67876360Y-55394684D01*
X67881237Y-55381055D01*
X67887426Y-55367970D01*
X67894867Y-55355554D01*
X67903490Y-55343928D01*
X67913211Y-55333203D01*
X67923936Y-55323482D01*
X67935562Y-55314859D01*
X67947978Y-55307418D01*
X67961063Y-55301229D01*
X67974692Y-55296352D01*
X67988733Y-55292835D01*
X68003051Y-55290711D01*
X68017509Y-55290001D01*
X68312509Y-55290001D01*
X68326967Y-55290711D01*
X68326967Y-55290711D01*
G37*
D11*
X68165009Y-55610001D03*
D10*
G36*
X69296967Y-55290711D02*
G01*
X69311285Y-55292835D01*
X69325326Y-55296352D01*
X69338955Y-55301229D01*
X69352040Y-55307418D01*
X69364456Y-55314859D01*
X69376082Y-55323482D01*
X69386807Y-55333203D01*
X69396528Y-55343928D01*
X69405151Y-55355554D01*
X69412592Y-55367970D01*
X69418781Y-55381055D01*
X69423658Y-55394684D01*
X69427175Y-55408725D01*
X69429299Y-55423043D01*
X69430009Y-55437501D01*
X69430009Y-55782501D01*
X69429299Y-55796959D01*
X69427175Y-55811277D01*
X69423658Y-55825318D01*
X69418781Y-55838947D01*
X69412592Y-55852032D01*
X69405151Y-55864448D01*
X69396528Y-55876074D01*
X69386807Y-55886799D01*
X69376082Y-55896520D01*
X69364456Y-55905143D01*
X69352040Y-55912584D01*
X69338955Y-55918773D01*
X69325326Y-55923650D01*
X69311285Y-55927167D01*
X69296967Y-55929291D01*
X69282509Y-55930001D01*
X68987509Y-55930001D01*
X68973051Y-55929291D01*
X68958733Y-55927167D01*
X68944692Y-55923650D01*
X68931063Y-55918773D01*
X68917978Y-55912584D01*
X68905562Y-55905143D01*
X68893936Y-55896520D01*
X68883211Y-55886799D01*
X68873490Y-55876074D01*
X68864867Y-55864448D01*
X68857426Y-55852032D01*
X68851237Y-55838947D01*
X68846360Y-55825318D01*
X68842843Y-55811277D01*
X68840719Y-55796959D01*
X68840009Y-55782501D01*
X68840009Y-55437501D01*
X68840719Y-55423043D01*
X68842843Y-55408725D01*
X68846360Y-55394684D01*
X68851237Y-55381055D01*
X68857426Y-55367970D01*
X68864867Y-55355554D01*
X68873490Y-55343928D01*
X68883211Y-55333203D01*
X68893936Y-55323482D01*
X68905562Y-55314859D01*
X68917978Y-55307418D01*
X68931063Y-55301229D01*
X68944692Y-55296352D01*
X68958733Y-55292835D01*
X68973051Y-55290711D01*
X68987509Y-55290001D01*
X69282509Y-55290001D01*
X69296967Y-55290711D01*
X69296967Y-55290711D01*
G37*
D11*
X69135009Y-55610001D03*
G04 #@! TD*
D10*
G04 #@! TO.C,R1*
G36*
X65485700Y-53907054D02*
G01*
X65506935Y-53910204D01*
X65527759Y-53915420D01*
X65547971Y-53922652D01*
X65567377Y-53931831D01*
X65585790Y-53942867D01*
X65603033Y-53955655D01*
X65618939Y-53970071D01*
X65633355Y-53985977D01*
X65646143Y-54003220D01*
X65657179Y-54021633D01*
X65666358Y-54041039D01*
X65673590Y-54061251D01*
X65678806Y-54082075D01*
X65681956Y-54103310D01*
X65683009Y-54124751D01*
X65683009Y-54562251D01*
X65681956Y-54583692D01*
X65678806Y-54604927D01*
X65673590Y-54625751D01*
X65666358Y-54645963D01*
X65657179Y-54665369D01*
X65646143Y-54683782D01*
X65633355Y-54701025D01*
X65618939Y-54716931D01*
X65603033Y-54731347D01*
X65585790Y-54744135D01*
X65567377Y-54755171D01*
X65547971Y-54764350D01*
X65527759Y-54771582D01*
X65506935Y-54776798D01*
X65485700Y-54779948D01*
X65464259Y-54781001D01*
X64951759Y-54781001D01*
X64930318Y-54779948D01*
X64909083Y-54776798D01*
X64888259Y-54771582D01*
X64868047Y-54764350D01*
X64848641Y-54755171D01*
X64830228Y-54744135D01*
X64812985Y-54731347D01*
X64797079Y-54716931D01*
X64782663Y-54701025D01*
X64769875Y-54683782D01*
X64758839Y-54665369D01*
X64749660Y-54645963D01*
X64742428Y-54625751D01*
X64737212Y-54604927D01*
X64734062Y-54583692D01*
X64733009Y-54562251D01*
X64733009Y-54124751D01*
X64734062Y-54103310D01*
X64737212Y-54082075D01*
X64742428Y-54061251D01*
X64749660Y-54041039D01*
X64758839Y-54021633D01*
X64769875Y-54003220D01*
X64782663Y-53985977D01*
X64797079Y-53970071D01*
X64812985Y-53955655D01*
X64830228Y-53942867D01*
X64848641Y-53931831D01*
X64868047Y-53922652D01*
X64888259Y-53915420D01*
X64909083Y-53910204D01*
X64930318Y-53907054D01*
X64951759Y-53906001D01*
X65464259Y-53906001D01*
X65485700Y-53907054D01*
X65485700Y-53907054D01*
G37*
D14*
X65208009Y-54343501D03*
D10*
G36*
X65485700Y-52332054D02*
G01*
X65506935Y-52335204D01*
X65527759Y-52340420D01*
X65547971Y-52347652D01*
X65567377Y-52356831D01*
X65585790Y-52367867D01*
X65603033Y-52380655D01*
X65618939Y-52395071D01*
X65633355Y-52410977D01*
X65646143Y-52428220D01*
X65657179Y-52446633D01*
X65666358Y-52466039D01*
X65673590Y-52486251D01*
X65678806Y-52507075D01*
X65681956Y-52528310D01*
X65683009Y-52549751D01*
X65683009Y-52987251D01*
X65681956Y-53008692D01*
X65678806Y-53029927D01*
X65673590Y-53050751D01*
X65666358Y-53070963D01*
X65657179Y-53090369D01*
X65646143Y-53108782D01*
X65633355Y-53126025D01*
X65618939Y-53141931D01*
X65603033Y-53156347D01*
X65585790Y-53169135D01*
X65567377Y-53180171D01*
X65547971Y-53189350D01*
X65527759Y-53196582D01*
X65506935Y-53201798D01*
X65485700Y-53204948D01*
X65464259Y-53206001D01*
X64951759Y-53206001D01*
X64930318Y-53204948D01*
X64909083Y-53201798D01*
X64888259Y-53196582D01*
X64868047Y-53189350D01*
X64848641Y-53180171D01*
X64830228Y-53169135D01*
X64812985Y-53156347D01*
X64797079Y-53141931D01*
X64782663Y-53126025D01*
X64769875Y-53108782D01*
X64758839Y-53090369D01*
X64749660Y-53070963D01*
X64742428Y-53050751D01*
X64737212Y-53029927D01*
X64734062Y-53008692D01*
X64733009Y-52987251D01*
X64733009Y-52549751D01*
X64734062Y-52528310D01*
X64737212Y-52507075D01*
X64742428Y-52486251D01*
X64749660Y-52466039D01*
X64758839Y-52446633D01*
X64769875Y-52428220D01*
X64782663Y-52410977D01*
X64797079Y-52395071D01*
X64812985Y-52380655D01*
X64830228Y-52367867D01*
X64848641Y-52356831D01*
X64868047Y-52347652D01*
X64888259Y-52340420D01*
X64909083Y-52335204D01*
X64930318Y-52332054D01*
X64951759Y-52331001D01*
X65464259Y-52331001D01*
X65485700Y-52332054D01*
X65485700Y-52332054D01*
G37*
D14*
X65208009Y-52768501D03*
G04 #@! TD*
D10*
G04 #@! TO.C,R2*
G36*
X68267700Y-50796054D02*
G01*
X68288935Y-50799204D01*
X68309759Y-50804420D01*
X68329971Y-50811652D01*
X68349377Y-50820831D01*
X68367790Y-50831867D01*
X68385033Y-50844655D01*
X68400939Y-50859071D01*
X68415355Y-50874977D01*
X68428143Y-50892220D01*
X68439179Y-50910633D01*
X68448358Y-50930039D01*
X68455590Y-50950251D01*
X68460806Y-50971075D01*
X68463956Y-50992310D01*
X68465009Y-51013751D01*
X68465009Y-51526251D01*
X68463956Y-51547692D01*
X68460806Y-51568927D01*
X68455590Y-51589751D01*
X68448358Y-51609963D01*
X68439179Y-51629369D01*
X68428143Y-51647782D01*
X68415355Y-51665025D01*
X68400939Y-51680931D01*
X68385033Y-51695347D01*
X68367790Y-51708135D01*
X68349377Y-51719171D01*
X68329971Y-51728350D01*
X68309759Y-51735582D01*
X68288935Y-51740798D01*
X68267700Y-51743948D01*
X68246259Y-51745001D01*
X67808759Y-51745001D01*
X67787318Y-51743948D01*
X67766083Y-51740798D01*
X67745259Y-51735582D01*
X67725047Y-51728350D01*
X67705641Y-51719171D01*
X67687228Y-51708135D01*
X67669985Y-51695347D01*
X67654079Y-51680931D01*
X67639663Y-51665025D01*
X67626875Y-51647782D01*
X67615839Y-51629369D01*
X67606660Y-51609963D01*
X67599428Y-51589751D01*
X67594212Y-51568927D01*
X67591062Y-51547692D01*
X67590009Y-51526251D01*
X67590009Y-51013751D01*
X67591062Y-50992310D01*
X67594212Y-50971075D01*
X67599428Y-50950251D01*
X67606660Y-50930039D01*
X67615839Y-50910633D01*
X67626875Y-50892220D01*
X67639663Y-50874977D01*
X67654079Y-50859071D01*
X67669985Y-50844655D01*
X67687228Y-50831867D01*
X67705641Y-50820831D01*
X67725047Y-50811652D01*
X67745259Y-50804420D01*
X67766083Y-50799204D01*
X67787318Y-50796054D01*
X67808759Y-50795001D01*
X68246259Y-50795001D01*
X68267700Y-50796054D01*
X68267700Y-50796054D01*
G37*
D14*
X68027509Y-51270001D03*
D10*
G36*
X66692700Y-50796054D02*
G01*
X66713935Y-50799204D01*
X66734759Y-50804420D01*
X66754971Y-50811652D01*
X66774377Y-50820831D01*
X66792790Y-50831867D01*
X66810033Y-50844655D01*
X66825939Y-50859071D01*
X66840355Y-50874977D01*
X66853143Y-50892220D01*
X66864179Y-50910633D01*
X66873358Y-50930039D01*
X66880590Y-50950251D01*
X66885806Y-50971075D01*
X66888956Y-50992310D01*
X66890009Y-51013751D01*
X66890009Y-51526251D01*
X66888956Y-51547692D01*
X66885806Y-51568927D01*
X66880590Y-51589751D01*
X66873358Y-51609963D01*
X66864179Y-51629369D01*
X66853143Y-51647782D01*
X66840355Y-51665025D01*
X66825939Y-51680931D01*
X66810033Y-51695347D01*
X66792790Y-51708135D01*
X66774377Y-51719171D01*
X66754971Y-51728350D01*
X66734759Y-51735582D01*
X66713935Y-51740798D01*
X66692700Y-51743948D01*
X66671259Y-51745001D01*
X66233759Y-51745001D01*
X66212318Y-51743948D01*
X66191083Y-51740798D01*
X66170259Y-51735582D01*
X66150047Y-51728350D01*
X66130641Y-51719171D01*
X66112228Y-51708135D01*
X66094985Y-51695347D01*
X66079079Y-51680931D01*
X66064663Y-51665025D01*
X66051875Y-51647782D01*
X66040839Y-51629369D01*
X66031660Y-51609963D01*
X66024428Y-51589751D01*
X66019212Y-51568927D01*
X66016062Y-51547692D01*
X66015009Y-51526251D01*
X66015009Y-51013751D01*
X66016062Y-50992310D01*
X66019212Y-50971075D01*
X66024428Y-50950251D01*
X66031660Y-50930039D01*
X66040839Y-50910633D01*
X66051875Y-50892220D01*
X66064663Y-50874977D01*
X66079079Y-50859071D01*
X66094985Y-50844655D01*
X66112228Y-50831867D01*
X66130641Y-50820831D01*
X66150047Y-50811652D01*
X66170259Y-50804420D01*
X66191083Y-50799204D01*
X66212318Y-50796054D01*
X66233759Y-50795001D01*
X66671259Y-50795001D01*
X66692700Y-50796054D01*
X66692700Y-50796054D01*
G37*
D14*
X66452509Y-51270001D03*
G04 #@! TD*
D10*
G04 #@! TO.C,C1*
G36*
X57076959Y-54300711D02*
G01*
X57091277Y-54302835D01*
X57105318Y-54306352D01*
X57118947Y-54311229D01*
X57132032Y-54317418D01*
X57144448Y-54324859D01*
X57156074Y-54333482D01*
X57166799Y-54343203D01*
X57176520Y-54353928D01*
X57185143Y-54365554D01*
X57192584Y-54377970D01*
X57198773Y-54391055D01*
X57203650Y-54404684D01*
X57207167Y-54418725D01*
X57209291Y-54433043D01*
X57210001Y-54447501D01*
X57210001Y-54742501D01*
X57209291Y-54756959D01*
X57207167Y-54771277D01*
X57203650Y-54785318D01*
X57198773Y-54798947D01*
X57192584Y-54812032D01*
X57185143Y-54824448D01*
X57176520Y-54836074D01*
X57166799Y-54846799D01*
X57156074Y-54856520D01*
X57144448Y-54865143D01*
X57132032Y-54872584D01*
X57118947Y-54878773D01*
X57105318Y-54883650D01*
X57091277Y-54887167D01*
X57076959Y-54889291D01*
X57062501Y-54890001D01*
X56717501Y-54890001D01*
X56703043Y-54889291D01*
X56688725Y-54887167D01*
X56674684Y-54883650D01*
X56661055Y-54878773D01*
X56647970Y-54872584D01*
X56635554Y-54865143D01*
X56623928Y-54856520D01*
X56613203Y-54846799D01*
X56603482Y-54836074D01*
X56594859Y-54824448D01*
X56587418Y-54812032D01*
X56581229Y-54798947D01*
X56576352Y-54785318D01*
X56572835Y-54771277D01*
X56570711Y-54756959D01*
X56570001Y-54742501D01*
X56570001Y-54447501D01*
X56570711Y-54433043D01*
X56572835Y-54418725D01*
X56576352Y-54404684D01*
X56581229Y-54391055D01*
X56587418Y-54377970D01*
X56594859Y-54365554D01*
X56603482Y-54353928D01*
X56613203Y-54343203D01*
X56623928Y-54333482D01*
X56635554Y-54324859D01*
X56647970Y-54317418D01*
X56661055Y-54311229D01*
X56674684Y-54306352D01*
X56688725Y-54302835D01*
X56703043Y-54300711D01*
X56717501Y-54300001D01*
X57062501Y-54300001D01*
X57076959Y-54300711D01*
X57076959Y-54300711D01*
G37*
D11*
X56890001Y-54595001D03*
D10*
G36*
X57076959Y-53330711D02*
G01*
X57091277Y-53332835D01*
X57105318Y-53336352D01*
X57118947Y-53341229D01*
X57132032Y-53347418D01*
X57144448Y-53354859D01*
X57156074Y-53363482D01*
X57166799Y-53373203D01*
X57176520Y-53383928D01*
X57185143Y-53395554D01*
X57192584Y-53407970D01*
X57198773Y-53421055D01*
X57203650Y-53434684D01*
X57207167Y-53448725D01*
X57209291Y-53463043D01*
X57210001Y-53477501D01*
X57210001Y-53772501D01*
X57209291Y-53786959D01*
X57207167Y-53801277D01*
X57203650Y-53815318D01*
X57198773Y-53828947D01*
X57192584Y-53842032D01*
X57185143Y-53854448D01*
X57176520Y-53866074D01*
X57166799Y-53876799D01*
X57156074Y-53886520D01*
X57144448Y-53895143D01*
X57132032Y-53902584D01*
X57118947Y-53908773D01*
X57105318Y-53913650D01*
X57091277Y-53917167D01*
X57076959Y-53919291D01*
X57062501Y-53920001D01*
X56717501Y-53920001D01*
X56703043Y-53919291D01*
X56688725Y-53917167D01*
X56674684Y-53913650D01*
X56661055Y-53908773D01*
X56647970Y-53902584D01*
X56635554Y-53895143D01*
X56623928Y-53886520D01*
X56613203Y-53876799D01*
X56603482Y-53866074D01*
X56594859Y-53854448D01*
X56587418Y-53842032D01*
X56581229Y-53828947D01*
X56576352Y-53815318D01*
X56572835Y-53801277D01*
X56570711Y-53786959D01*
X56570001Y-53772501D01*
X56570001Y-53477501D01*
X56570711Y-53463043D01*
X56572835Y-53448725D01*
X56576352Y-53434684D01*
X56581229Y-53421055D01*
X56587418Y-53407970D01*
X56594859Y-53395554D01*
X56603482Y-53383928D01*
X56613203Y-53373203D01*
X56623928Y-53363482D01*
X56635554Y-53354859D01*
X56647970Y-53347418D01*
X56661055Y-53341229D01*
X56674684Y-53336352D01*
X56688725Y-53332835D01*
X56703043Y-53330711D01*
X56717501Y-53330001D01*
X57062501Y-53330001D01*
X57076959Y-53330711D01*
X57076959Y-53330711D01*
G37*
D11*
X56890001Y-53625001D03*
G04 #@! TD*
D12*
G04 #@! TO.C,U1*
X54317501Y-53560001D03*
X54317501Y-54060001D03*
X55842501Y-53560001D03*
X55842501Y-54060001D03*
X54317501Y-54560001D03*
X55842501Y-54560001D03*
X54317501Y-53060001D03*
X55842501Y-53060001D03*
D13*
X54830001Y-54572501D03*
X55330001Y-54572501D03*
X55330001Y-53047501D03*
X54830001Y-53047501D03*
G04 #@! TD*
D10*
G04 #@! TO.C,C3*
G36*
X53232959Y-55268711D02*
G01*
X53247277Y-55270835D01*
X53261318Y-55274352D01*
X53274947Y-55279229D01*
X53288032Y-55285418D01*
X53300448Y-55292859D01*
X53312074Y-55301482D01*
X53322799Y-55311203D01*
X53332520Y-55321928D01*
X53341143Y-55333554D01*
X53348584Y-55345970D01*
X53354773Y-55359055D01*
X53359650Y-55372684D01*
X53363167Y-55386725D01*
X53365291Y-55401043D01*
X53366001Y-55415501D01*
X53366001Y-55760501D01*
X53365291Y-55774959D01*
X53363167Y-55789277D01*
X53359650Y-55803318D01*
X53354773Y-55816947D01*
X53348584Y-55830032D01*
X53341143Y-55842448D01*
X53332520Y-55854074D01*
X53322799Y-55864799D01*
X53312074Y-55874520D01*
X53300448Y-55883143D01*
X53288032Y-55890584D01*
X53274947Y-55896773D01*
X53261318Y-55901650D01*
X53247277Y-55905167D01*
X53232959Y-55907291D01*
X53218501Y-55908001D01*
X52923501Y-55908001D01*
X52909043Y-55907291D01*
X52894725Y-55905167D01*
X52880684Y-55901650D01*
X52867055Y-55896773D01*
X52853970Y-55890584D01*
X52841554Y-55883143D01*
X52829928Y-55874520D01*
X52819203Y-55864799D01*
X52809482Y-55854074D01*
X52800859Y-55842448D01*
X52793418Y-55830032D01*
X52787229Y-55816947D01*
X52782352Y-55803318D01*
X52778835Y-55789277D01*
X52776711Y-55774959D01*
X52776001Y-55760501D01*
X52776001Y-55415501D01*
X52776711Y-55401043D01*
X52778835Y-55386725D01*
X52782352Y-55372684D01*
X52787229Y-55359055D01*
X52793418Y-55345970D01*
X52800859Y-55333554D01*
X52809482Y-55321928D01*
X52819203Y-55311203D01*
X52829928Y-55301482D01*
X52841554Y-55292859D01*
X52853970Y-55285418D01*
X52867055Y-55279229D01*
X52880684Y-55274352D01*
X52894725Y-55270835D01*
X52909043Y-55268711D01*
X52923501Y-55268001D01*
X53218501Y-55268001D01*
X53232959Y-55268711D01*
X53232959Y-55268711D01*
G37*
D11*
X53071001Y-55588001D03*
D10*
G36*
X54202959Y-55268711D02*
G01*
X54217277Y-55270835D01*
X54231318Y-55274352D01*
X54244947Y-55279229D01*
X54258032Y-55285418D01*
X54270448Y-55292859D01*
X54282074Y-55301482D01*
X54292799Y-55311203D01*
X54302520Y-55321928D01*
X54311143Y-55333554D01*
X54318584Y-55345970D01*
X54324773Y-55359055D01*
X54329650Y-55372684D01*
X54333167Y-55386725D01*
X54335291Y-55401043D01*
X54336001Y-55415501D01*
X54336001Y-55760501D01*
X54335291Y-55774959D01*
X54333167Y-55789277D01*
X54329650Y-55803318D01*
X54324773Y-55816947D01*
X54318584Y-55830032D01*
X54311143Y-55842448D01*
X54302520Y-55854074D01*
X54292799Y-55864799D01*
X54282074Y-55874520D01*
X54270448Y-55883143D01*
X54258032Y-55890584D01*
X54244947Y-55896773D01*
X54231318Y-55901650D01*
X54217277Y-55905167D01*
X54202959Y-55907291D01*
X54188501Y-55908001D01*
X53893501Y-55908001D01*
X53879043Y-55907291D01*
X53864725Y-55905167D01*
X53850684Y-55901650D01*
X53837055Y-55896773D01*
X53823970Y-55890584D01*
X53811554Y-55883143D01*
X53799928Y-55874520D01*
X53789203Y-55864799D01*
X53779482Y-55854074D01*
X53770859Y-55842448D01*
X53763418Y-55830032D01*
X53757229Y-55816947D01*
X53752352Y-55803318D01*
X53748835Y-55789277D01*
X53746711Y-55774959D01*
X53746001Y-55760501D01*
X53746001Y-55415501D01*
X53746711Y-55401043D01*
X53748835Y-55386725D01*
X53752352Y-55372684D01*
X53757229Y-55359055D01*
X53763418Y-55345970D01*
X53770859Y-55333554D01*
X53779482Y-55321928D01*
X53789203Y-55311203D01*
X53799928Y-55301482D01*
X53811554Y-55292859D01*
X53823970Y-55285418D01*
X53837055Y-55279229D01*
X53850684Y-55274352D01*
X53864725Y-55270835D01*
X53879043Y-55268711D01*
X53893501Y-55268001D01*
X54188501Y-55268001D01*
X54202959Y-55268711D01*
X54202959Y-55268711D01*
G37*
D11*
X54041001Y-55588001D03*
G04 #@! TD*
D10*
G04 #@! TO.C,C2*
G36*
X56166959Y-55290711D02*
G01*
X56181277Y-55292835D01*
X56195318Y-55296352D01*
X56208947Y-55301229D01*
X56222032Y-55307418D01*
X56234448Y-55314859D01*
X56246074Y-55323482D01*
X56256799Y-55333203D01*
X56266520Y-55343928D01*
X56275143Y-55355554D01*
X56282584Y-55367970D01*
X56288773Y-55381055D01*
X56293650Y-55394684D01*
X56297167Y-55408725D01*
X56299291Y-55423043D01*
X56300001Y-55437501D01*
X56300001Y-55782501D01*
X56299291Y-55796959D01*
X56297167Y-55811277D01*
X56293650Y-55825318D01*
X56288773Y-55838947D01*
X56282584Y-55852032D01*
X56275143Y-55864448D01*
X56266520Y-55876074D01*
X56256799Y-55886799D01*
X56246074Y-55896520D01*
X56234448Y-55905143D01*
X56222032Y-55912584D01*
X56208947Y-55918773D01*
X56195318Y-55923650D01*
X56181277Y-55927167D01*
X56166959Y-55929291D01*
X56152501Y-55930001D01*
X55857501Y-55930001D01*
X55843043Y-55929291D01*
X55828725Y-55927167D01*
X55814684Y-55923650D01*
X55801055Y-55918773D01*
X55787970Y-55912584D01*
X55775554Y-55905143D01*
X55763928Y-55896520D01*
X55753203Y-55886799D01*
X55743482Y-55876074D01*
X55734859Y-55864448D01*
X55727418Y-55852032D01*
X55721229Y-55838947D01*
X55716352Y-55825318D01*
X55712835Y-55811277D01*
X55710711Y-55796959D01*
X55710001Y-55782501D01*
X55710001Y-55437501D01*
X55710711Y-55423043D01*
X55712835Y-55408725D01*
X55716352Y-55394684D01*
X55721229Y-55381055D01*
X55727418Y-55367970D01*
X55734859Y-55355554D01*
X55743482Y-55343928D01*
X55753203Y-55333203D01*
X55763928Y-55323482D01*
X55775554Y-55314859D01*
X55787970Y-55307418D01*
X55801055Y-55301229D01*
X55814684Y-55296352D01*
X55828725Y-55292835D01*
X55843043Y-55290711D01*
X55857501Y-55290001D01*
X56152501Y-55290001D01*
X56166959Y-55290711D01*
X56166959Y-55290711D01*
G37*
D11*
X56005001Y-55610001D03*
D10*
G36*
X57136959Y-55290711D02*
G01*
X57151277Y-55292835D01*
X57165318Y-55296352D01*
X57178947Y-55301229D01*
X57192032Y-55307418D01*
X57204448Y-55314859D01*
X57216074Y-55323482D01*
X57226799Y-55333203D01*
X57236520Y-55343928D01*
X57245143Y-55355554D01*
X57252584Y-55367970D01*
X57258773Y-55381055D01*
X57263650Y-55394684D01*
X57267167Y-55408725D01*
X57269291Y-55423043D01*
X57270001Y-55437501D01*
X57270001Y-55782501D01*
X57269291Y-55796959D01*
X57267167Y-55811277D01*
X57263650Y-55825318D01*
X57258773Y-55838947D01*
X57252584Y-55852032D01*
X57245143Y-55864448D01*
X57236520Y-55876074D01*
X57226799Y-55886799D01*
X57216074Y-55896520D01*
X57204448Y-55905143D01*
X57192032Y-55912584D01*
X57178947Y-55918773D01*
X57165318Y-55923650D01*
X57151277Y-55927167D01*
X57136959Y-55929291D01*
X57122501Y-55930001D01*
X56827501Y-55930001D01*
X56813043Y-55929291D01*
X56798725Y-55927167D01*
X56784684Y-55923650D01*
X56771055Y-55918773D01*
X56757970Y-55912584D01*
X56745554Y-55905143D01*
X56733928Y-55896520D01*
X56723203Y-55886799D01*
X56713482Y-55876074D01*
X56704859Y-55864448D01*
X56697418Y-55852032D01*
X56691229Y-55838947D01*
X56686352Y-55825318D01*
X56682835Y-55811277D01*
X56680711Y-55796959D01*
X56680001Y-55782501D01*
X56680001Y-55437501D01*
X56680711Y-55423043D01*
X56682835Y-55408725D01*
X56686352Y-55394684D01*
X56691229Y-55381055D01*
X56697418Y-55367970D01*
X56704859Y-55355554D01*
X56713482Y-55343928D01*
X56723203Y-55333203D01*
X56733928Y-55323482D01*
X56745554Y-55314859D01*
X56757970Y-55307418D01*
X56771055Y-55301229D01*
X56784684Y-55296352D01*
X56798725Y-55292835D01*
X56813043Y-55290711D01*
X56827501Y-55290001D01*
X57122501Y-55290001D01*
X57136959Y-55290711D01*
X57136959Y-55290711D01*
G37*
D11*
X56975001Y-55610001D03*
G04 #@! TD*
D10*
G04 #@! TO.C,R1*
G36*
X53325692Y-53907054D02*
G01*
X53346927Y-53910204D01*
X53367751Y-53915420D01*
X53387963Y-53922652D01*
X53407369Y-53931831D01*
X53425782Y-53942867D01*
X53443025Y-53955655D01*
X53458931Y-53970071D01*
X53473347Y-53985977D01*
X53486135Y-54003220D01*
X53497171Y-54021633D01*
X53506350Y-54041039D01*
X53513582Y-54061251D01*
X53518798Y-54082075D01*
X53521948Y-54103310D01*
X53523001Y-54124751D01*
X53523001Y-54562251D01*
X53521948Y-54583692D01*
X53518798Y-54604927D01*
X53513582Y-54625751D01*
X53506350Y-54645963D01*
X53497171Y-54665369D01*
X53486135Y-54683782D01*
X53473347Y-54701025D01*
X53458931Y-54716931D01*
X53443025Y-54731347D01*
X53425782Y-54744135D01*
X53407369Y-54755171D01*
X53387963Y-54764350D01*
X53367751Y-54771582D01*
X53346927Y-54776798D01*
X53325692Y-54779948D01*
X53304251Y-54781001D01*
X52791751Y-54781001D01*
X52770310Y-54779948D01*
X52749075Y-54776798D01*
X52728251Y-54771582D01*
X52708039Y-54764350D01*
X52688633Y-54755171D01*
X52670220Y-54744135D01*
X52652977Y-54731347D01*
X52637071Y-54716931D01*
X52622655Y-54701025D01*
X52609867Y-54683782D01*
X52598831Y-54665369D01*
X52589652Y-54645963D01*
X52582420Y-54625751D01*
X52577204Y-54604927D01*
X52574054Y-54583692D01*
X52573001Y-54562251D01*
X52573001Y-54124751D01*
X52574054Y-54103310D01*
X52577204Y-54082075D01*
X52582420Y-54061251D01*
X52589652Y-54041039D01*
X52598831Y-54021633D01*
X52609867Y-54003220D01*
X52622655Y-53985977D01*
X52637071Y-53970071D01*
X52652977Y-53955655D01*
X52670220Y-53942867D01*
X52688633Y-53931831D01*
X52708039Y-53922652D01*
X52728251Y-53915420D01*
X52749075Y-53910204D01*
X52770310Y-53907054D01*
X52791751Y-53906001D01*
X53304251Y-53906001D01*
X53325692Y-53907054D01*
X53325692Y-53907054D01*
G37*
D14*
X53048001Y-54343501D03*
D10*
G36*
X53325692Y-52332054D02*
G01*
X53346927Y-52335204D01*
X53367751Y-52340420D01*
X53387963Y-52347652D01*
X53407369Y-52356831D01*
X53425782Y-52367867D01*
X53443025Y-52380655D01*
X53458931Y-52395071D01*
X53473347Y-52410977D01*
X53486135Y-52428220D01*
X53497171Y-52446633D01*
X53506350Y-52466039D01*
X53513582Y-52486251D01*
X53518798Y-52507075D01*
X53521948Y-52528310D01*
X53523001Y-52549751D01*
X53523001Y-52987251D01*
X53521948Y-53008692D01*
X53518798Y-53029927D01*
X53513582Y-53050751D01*
X53506350Y-53070963D01*
X53497171Y-53090369D01*
X53486135Y-53108782D01*
X53473347Y-53126025D01*
X53458931Y-53141931D01*
X53443025Y-53156347D01*
X53425782Y-53169135D01*
X53407369Y-53180171D01*
X53387963Y-53189350D01*
X53367751Y-53196582D01*
X53346927Y-53201798D01*
X53325692Y-53204948D01*
X53304251Y-53206001D01*
X52791751Y-53206001D01*
X52770310Y-53204948D01*
X52749075Y-53201798D01*
X52728251Y-53196582D01*
X52708039Y-53189350D01*
X52688633Y-53180171D01*
X52670220Y-53169135D01*
X52652977Y-53156347D01*
X52637071Y-53141931D01*
X52622655Y-53126025D01*
X52609867Y-53108782D01*
X52598831Y-53090369D01*
X52589652Y-53070963D01*
X52582420Y-53050751D01*
X52577204Y-53029927D01*
X52574054Y-53008692D01*
X52573001Y-52987251D01*
X52573001Y-52549751D01*
X52574054Y-52528310D01*
X52577204Y-52507075D01*
X52582420Y-52486251D01*
X52589652Y-52466039D01*
X52598831Y-52446633D01*
X52609867Y-52428220D01*
X52622655Y-52410977D01*
X52637071Y-52395071D01*
X52652977Y-52380655D01*
X52670220Y-52367867D01*
X52688633Y-52356831D01*
X52708039Y-52347652D01*
X52728251Y-52340420D01*
X52749075Y-52335204D01*
X52770310Y-52332054D01*
X52791751Y-52331001D01*
X53304251Y-52331001D01*
X53325692Y-52332054D01*
X53325692Y-52332054D01*
G37*
D14*
X53048001Y-52768501D03*
G04 #@! TD*
D10*
G04 #@! TO.C,R2*
G36*
X56107692Y-50796054D02*
G01*
X56128927Y-50799204D01*
X56149751Y-50804420D01*
X56169963Y-50811652D01*
X56189369Y-50820831D01*
X56207782Y-50831867D01*
X56225025Y-50844655D01*
X56240931Y-50859071D01*
X56255347Y-50874977D01*
X56268135Y-50892220D01*
X56279171Y-50910633D01*
X56288350Y-50930039D01*
X56295582Y-50950251D01*
X56300798Y-50971075D01*
X56303948Y-50992310D01*
X56305001Y-51013751D01*
X56305001Y-51526251D01*
X56303948Y-51547692D01*
X56300798Y-51568927D01*
X56295582Y-51589751D01*
X56288350Y-51609963D01*
X56279171Y-51629369D01*
X56268135Y-51647782D01*
X56255347Y-51665025D01*
X56240931Y-51680931D01*
X56225025Y-51695347D01*
X56207782Y-51708135D01*
X56189369Y-51719171D01*
X56169963Y-51728350D01*
X56149751Y-51735582D01*
X56128927Y-51740798D01*
X56107692Y-51743948D01*
X56086251Y-51745001D01*
X55648751Y-51745001D01*
X55627310Y-51743948D01*
X55606075Y-51740798D01*
X55585251Y-51735582D01*
X55565039Y-51728350D01*
X55545633Y-51719171D01*
X55527220Y-51708135D01*
X55509977Y-51695347D01*
X55494071Y-51680931D01*
X55479655Y-51665025D01*
X55466867Y-51647782D01*
X55455831Y-51629369D01*
X55446652Y-51609963D01*
X55439420Y-51589751D01*
X55434204Y-51568927D01*
X55431054Y-51547692D01*
X55430001Y-51526251D01*
X55430001Y-51013751D01*
X55431054Y-50992310D01*
X55434204Y-50971075D01*
X55439420Y-50950251D01*
X55446652Y-50930039D01*
X55455831Y-50910633D01*
X55466867Y-50892220D01*
X55479655Y-50874977D01*
X55494071Y-50859071D01*
X55509977Y-50844655D01*
X55527220Y-50831867D01*
X55545633Y-50820831D01*
X55565039Y-50811652D01*
X55585251Y-50804420D01*
X55606075Y-50799204D01*
X55627310Y-50796054D01*
X55648751Y-50795001D01*
X56086251Y-50795001D01*
X56107692Y-50796054D01*
X56107692Y-50796054D01*
G37*
D14*
X55867501Y-51270001D03*
D10*
G36*
X54532692Y-50796054D02*
G01*
X54553927Y-50799204D01*
X54574751Y-50804420D01*
X54594963Y-50811652D01*
X54614369Y-50820831D01*
X54632782Y-50831867D01*
X54650025Y-50844655D01*
X54665931Y-50859071D01*
X54680347Y-50874977D01*
X54693135Y-50892220D01*
X54704171Y-50910633D01*
X54713350Y-50930039D01*
X54720582Y-50950251D01*
X54725798Y-50971075D01*
X54728948Y-50992310D01*
X54730001Y-51013751D01*
X54730001Y-51526251D01*
X54728948Y-51547692D01*
X54725798Y-51568927D01*
X54720582Y-51589751D01*
X54713350Y-51609963D01*
X54704171Y-51629369D01*
X54693135Y-51647782D01*
X54680347Y-51665025D01*
X54665931Y-51680931D01*
X54650025Y-51695347D01*
X54632782Y-51708135D01*
X54614369Y-51719171D01*
X54594963Y-51728350D01*
X54574751Y-51735582D01*
X54553927Y-51740798D01*
X54532692Y-51743948D01*
X54511251Y-51745001D01*
X54073751Y-51745001D01*
X54052310Y-51743948D01*
X54031075Y-51740798D01*
X54010251Y-51735582D01*
X53990039Y-51728350D01*
X53970633Y-51719171D01*
X53952220Y-51708135D01*
X53934977Y-51695347D01*
X53919071Y-51680931D01*
X53904655Y-51665025D01*
X53891867Y-51647782D01*
X53880831Y-51629369D01*
X53871652Y-51609963D01*
X53864420Y-51589751D01*
X53859204Y-51568927D01*
X53856054Y-51547692D01*
X53855001Y-51526251D01*
X53855001Y-51013751D01*
X53856054Y-50992310D01*
X53859204Y-50971075D01*
X53864420Y-50950251D01*
X53871652Y-50930039D01*
X53880831Y-50910633D01*
X53891867Y-50892220D01*
X53904655Y-50874977D01*
X53919071Y-50859071D01*
X53934977Y-50844655D01*
X53952220Y-50831867D01*
X53970633Y-50820831D01*
X53990039Y-50811652D01*
X54010251Y-50804420D01*
X54031075Y-50799204D01*
X54052310Y-50796054D01*
X54073751Y-50795001D01*
X54511251Y-50795001D01*
X54532692Y-50796054D01*
X54532692Y-50796054D01*
G37*
D14*
X54292501Y-51270001D03*
G04 #@! TD*
M02*
