G04 #@! TF.GenerationSoftware,KiCad,Pcbnew,5.1.4+dfsg1-1*
G04 #@! TF.CreationDate,2020-12-01T08:27:43+00:00*
G04 #@! TF.ProjectId,panel,70616e65-6c2e-46b6-9963-61645f706362,rev?*
G04 #@! TF.SameCoordinates,Original*
G04 #@! TF.FileFunction,Other,Comment*
%FSLAX46Y46*%
G04 Gerber Fmt 4.6, Leading zero omitted, Abs format (unit mm)*
G04 Created by KiCad (PCBNEW 5.1.4+dfsg1-1) date 2020-12-01 08:27:43*
%MOMM*%
%LPD*%
G04 APERTURE LIST*
%ADD10C,0.150000*%
G04 APERTURE END LIST*
D10*
X63668580Y-57502390D02*
X63097151Y-57502390D01*
X63382866Y-57502390D02*
X63382866Y-56502390D01*
X63287628Y-56645248D01*
X63192389Y-56740486D01*
X63097151Y-56788105D01*
X64287628Y-56502390D02*
X64382866Y-56502390D01*
X64478104Y-56550010D01*
X64525723Y-56597629D01*
X64573342Y-56692867D01*
X64620961Y-56883343D01*
X64620961Y-57121438D01*
X64573342Y-57311914D01*
X64525723Y-57407152D01*
X64478104Y-57454771D01*
X64382866Y-57502390D01*
X64287628Y-57502390D01*
X64192389Y-57454771D01*
X64144770Y-57407152D01*
X64097151Y-57311914D01*
X64049532Y-57121438D01*
X64049532Y-56883343D01*
X64097151Y-56692867D01*
X64144770Y-56597629D01*
X64192389Y-56550010D01*
X64287628Y-56502390D01*
X65049532Y-57407152D02*
X65097151Y-57454771D01*
X65049532Y-57502390D01*
X65001913Y-57454771D01*
X65049532Y-57407152D01*
X65049532Y-57502390D01*
X66049532Y-57502390D02*
X65478104Y-57502390D01*
X65763818Y-57502390D02*
X65763818Y-56502390D01*
X65668580Y-56645248D01*
X65573342Y-56740486D01*
X65478104Y-56788105D01*
X66906675Y-56502390D02*
X66716199Y-56502390D01*
X66620961Y-56550010D01*
X66573342Y-56597629D01*
X66478104Y-56740486D01*
X66430485Y-56930962D01*
X66430485Y-57311914D01*
X66478104Y-57407152D01*
X66525723Y-57454771D01*
X66620961Y-57502390D01*
X66811437Y-57502390D01*
X66906675Y-57454771D01*
X66954294Y-57407152D01*
X67001913Y-57311914D01*
X67001913Y-57073819D01*
X66954294Y-56978581D01*
X66906675Y-56930962D01*
X66811437Y-56883343D01*
X66620961Y-56883343D01*
X66525723Y-56930962D01*
X66478104Y-56978581D01*
X66430485Y-57073819D01*
X67620961Y-56502390D02*
X67716199Y-56502390D01*
X67811437Y-56550010D01*
X67859056Y-56597629D01*
X67906675Y-56692867D01*
X67954294Y-56883343D01*
X67954294Y-57121438D01*
X67906675Y-57311914D01*
X67859056Y-57407152D01*
X67811437Y-57454771D01*
X67716199Y-57502390D01*
X67620961Y-57502390D01*
X67525723Y-57454771D01*
X67478104Y-57407152D01*
X67430485Y-57311914D01*
X67382866Y-57121438D01*
X67382866Y-56883343D01*
X67430485Y-56692867D01*
X67478104Y-56597629D01*
X67525723Y-56550010D01*
X67620961Y-56502390D01*
X69144770Y-57502390D02*
X69144770Y-56835724D01*
X69144770Y-56930962D02*
X69192389Y-56883343D01*
X69287628Y-56835724D01*
X69430485Y-56835724D01*
X69525723Y-56883343D01*
X69573342Y-56978581D01*
X69573342Y-57502390D01*
X69573342Y-56978581D02*
X69620961Y-56883343D01*
X69716199Y-56835724D01*
X69859056Y-56835724D01*
X69954294Y-56883343D01*
X70001913Y-56978581D01*
X70001913Y-57502390D01*
X70478104Y-57502390D02*
X70478104Y-56835724D01*
X70478104Y-56930962D02*
X70525723Y-56883343D01*
X70620961Y-56835724D01*
X70763818Y-56835724D01*
X70859056Y-56883343D01*
X70906675Y-56978581D01*
X70906675Y-57502390D01*
X70906675Y-56978581D02*
X70954294Y-56883343D01*
X71049532Y-56835724D01*
X71192389Y-56835724D01*
X71287628Y-56883343D01*
X71335247Y-56978581D01*
X71335247Y-57502390D01*
X62160009Y-58350010D02*
X72320009Y-58350010D01*
X62160009Y-59620010D02*
X62160009Y-57763589D01*
X72320009Y-59620010D02*
X72320009Y-57763589D01*
X72320009Y-58350010D02*
X71193505Y-58936431D01*
X72320009Y-58350010D02*
X71193505Y-57763589D01*
X62160009Y-58350010D02*
X63286513Y-58936431D01*
X62160009Y-58350010D02*
X63286513Y-57763589D01*
X76199628Y-59715724D02*
X76199628Y-60382390D01*
X75199628Y-59953819D01*
X75294866Y-60763343D02*
X75247247Y-60810962D01*
X75199628Y-60763343D01*
X75247247Y-60715724D01*
X75294866Y-60763343D01*
X75199628Y-60763343D01*
X76199628Y-61668105D02*
X76199628Y-61477629D01*
X76152009Y-61382390D01*
X76104389Y-61334771D01*
X75961532Y-61239533D01*
X75771056Y-61191914D01*
X75390104Y-61191914D01*
X75294866Y-61239533D01*
X75247247Y-61287152D01*
X75199628Y-61382390D01*
X75199628Y-61572867D01*
X75247247Y-61668105D01*
X75294866Y-61715724D01*
X75390104Y-61763343D01*
X75628199Y-61763343D01*
X75723437Y-61715724D01*
X75771056Y-61668105D01*
X75818675Y-61572867D01*
X75818675Y-61382390D01*
X75771056Y-61287152D01*
X75723437Y-61239533D01*
X75628199Y-61191914D01*
X76104389Y-62144295D02*
X76152009Y-62191914D01*
X76199628Y-62287152D01*
X76199628Y-62525248D01*
X76152009Y-62620486D01*
X76104389Y-62668105D01*
X76009151Y-62715724D01*
X75913913Y-62715724D01*
X75771056Y-62668105D01*
X75199628Y-62096676D01*
X75199628Y-62715724D01*
X76199628Y-63334771D02*
X76199628Y-63430010D01*
X76152009Y-63525248D01*
X76104389Y-63572867D01*
X76009151Y-63620486D01*
X75818675Y-63668105D01*
X75580580Y-63668105D01*
X75390104Y-63620486D01*
X75294866Y-63572867D01*
X75247247Y-63525248D01*
X75199628Y-63430010D01*
X75199628Y-63334771D01*
X75247247Y-63239533D01*
X75294866Y-63191914D01*
X75390104Y-63144295D01*
X75580580Y-63096676D01*
X75818675Y-63096676D01*
X76009151Y-63144295D01*
X76104389Y-63191914D01*
X76152009Y-63239533D01*
X76199628Y-63334771D01*
X75199628Y-64858581D02*
X75866294Y-64858581D01*
X75771056Y-64858581D02*
X75818675Y-64906200D01*
X75866294Y-65001438D01*
X75866294Y-65144295D01*
X75818675Y-65239533D01*
X75723437Y-65287152D01*
X75199628Y-65287152D01*
X75723437Y-65287152D02*
X75818675Y-65334771D01*
X75866294Y-65430010D01*
X75866294Y-65572867D01*
X75818675Y-65668105D01*
X75723437Y-65715724D01*
X75199628Y-65715724D01*
X75199628Y-66191914D02*
X75866294Y-66191914D01*
X75771056Y-66191914D02*
X75818675Y-66239533D01*
X75866294Y-66334771D01*
X75866294Y-66477629D01*
X75818675Y-66572867D01*
X75723437Y-66620486D01*
X75199628Y-66620486D01*
X75723437Y-66620486D02*
X75818675Y-66668105D01*
X75866294Y-66763343D01*
X75866294Y-66906200D01*
X75818675Y-67001438D01*
X75723437Y-67049057D01*
X75199628Y-67049057D01*
X74352009Y-59620010D02*
X74352009Y-67240010D01*
X72320009Y-59620010D02*
X74938430Y-59620010D01*
X72320009Y-67240010D02*
X74938430Y-67240010D01*
X74352009Y-67240010D02*
X73765588Y-66113506D01*
X74352009Y-67240010D02*
X74938430Y-66113506D01*
X74352009Y-59620010D02*
X73765588Y-60746514D01*
X74352009Y-59620010D02*
X74938430Y-60746514D01*
X51508572Y-57502390D02*
X50937143Y-57502390D01*
X51222858Y-57502390D02*
X51222858Y-56502390D01*
X51127620Y-56645248D01*
X51032381Y-56740486D01*
X50937143Y-56788105D01*
X52127620Y-56502390D02*
X52222858Y-56502390D01*
X52318096Y-56550010D01*
X52365715Y-56597629D01*
X52413334Y-56692867D01*
X52460953Y-56883343D01*
X52460953Y-57121438D01*
X52413334Y-57311914D01*
X52365715Y-57407152D01*
X52318096Y-57454771D01*
X52222858Y-57502390D01*
X52127620Y-57502390D01*
X52032381Y-57454771D01*
X51984762Y-57407152D01*
X51937143Y-57311914D01*
X51889524Y-57121438D01*
X51889524Y-56883343D01*
X51937143Y-56692867D01*
X51984762Y-56597629D01*
X52032381Y-56550010D01*
X52127620Y-56502390D01*
X52889524Y-57407152D02*
X52937143Y-57454771D01*
X52889524Y-57502390D01*
X52841905Y-57454771D01*
X52889524Y-57407152D01*
X52889524Y-57502390D01*
X53889524Y-57502390D02*
X53318096Y-57502390D01*
X53603810Y-57502390D02*
X53603810Y-56502390D01*
X53508572Y-56645248D01*
X53413334Y-56740486D01*
X53318096Y-56788105D01*
X54746667Y-56502390D02*
X54556191Y-56502390D01*
X54460953Y-56550010D01*
X54413334Y-56597629D01*
X54318096Y-56740486D01*
X54270477Y-56930962D01*
X54270477Y-57311914D01*
X54318096Y-57407152D01*
X54365715Y-57454771D01*
X54460953Y-57502390D01*
X54651429Y-57502390D01*
X54746667Y-57454771D01*
X54794286Y-57407152D01*
X54841905Y-57311914D01*
X54841905Y-57073819D01*
X54794286Y-56978581D01*
X54746667Y-56930962D01*
X54651429Y-56883343D01*
X54460953Y-56883343D01*
X54365715Y-56930962D01*
X54318096Y-56978581D01*
X54270477Y-57073819D01*
X55460953Y-56502390D02*
X55556191Y-56502390D01*
X55651429Y-56550010D01*
X55699048Y-56597629D01*
X55746667Y-56692867D01*
X55794286Y-56883343D01*
X55794286Y-57121438D01*
X55746667Y-57311914D01*
X55699048Y-57407152D01*
X55651429Y-57454771D01*
X55556191Y-57502390D01*
X55460953Y-57502390D01*
X55365715Y-57454771D01*
X55318096Y-57407152D01*
X55270477Y-57311914D01*
X55222858Y-57121438D01*
X55222858Y-56883343D01*
X55270477Y-56692867D01*
X55318096Y-56597629D01*
X55365715Y-56550010D01*
X55460953Y-56502390D01*
X56984762Y-57502390D02*
X56984762Y-56835724D01*
X56984762Y-56930962D02*
X57032381Y-56883343D01*
X57127620Y-56835724D01*
X57270477Y-56835724D01*
X57365715Y-56883343D01*
X57413334Y-56978581D01*
X57413334Y-57502390D01*
X57413334Y-56978581D02*
X57460953Y-56883343D01*
X57556191Y-56835724D01*
X57699048Y-56835724D01*
X57794286Y-56883343D01*
X57841905Y-56978581D01*
X57841905Y-57502390D01*
X58318096Y-57502390D02*
X58318096Y-56835724D01*
X58318096Y-56930962D02*
X58365715Y-56883343D01*
X58460953Y-56835724D01*
X58603810Y-56835724D01*
X58699048Y-56883343D01*
X58746667Y-56978581D01*
X58746667Y-57502390D01*
X58746667Y-56978581D02*
X58794286Y-56883343D01*
X58889524Y-56835724D01*
X59032381Y-56835724D01*
X59127620Y-56883343D01*
X59175239Y-56978581D01*
X59175239Y-57502390D01*
X50000001Y-58350010D02*
X60160001Y-58350010D01*
X50000001Y-59620010D02*
X50000001Y-57763589D01*
X60160001Y-59620010D02*
X60160001Y-57763589D01*
X60160001Y-58350010D02*
X59033497Y-58936431D01*
X60160001Y-58350010D02*
X59033497Y-57763589D01*
X50000001Y-58350010D02*
X51126505Y-58936431D01*
X50000001Y-58350010D02*
X51126505Y-57763589D01*
X64039620Y-59715724D02*
X64039620Y-60382390D01*
X63039620Y-59953819D01*
X63134858Y-60763343D02*
X63087239Y-60810962D01*
X63039620Y-60763343D01*
X63087239Y-60715724D01*
X63134858Y-60763343D01*
X63039620Y-60763343D01*
X64039620Y-61668105D02*
X64039620Y-61477629D01*
X63992001Y-61382390D01*
X63944381Y-61334771D01*
X63801524Y-61239533D01*
X63611048Y-61191914D01*
X63230096Y-61191914D01*
X63134858Y-61239533D01*
X63087239Y-61287152D01*
X63039620Y-61382390D01*
X63039620Y-61572867D01*
X63087239Y-61668105D01*
X63134858Y-61715724D01*
X63230096Y-61763343D01*
X63468191Y-61763343D01*
X63563429Y-61715724D01*
X63611048Y-61668105D01*
X63658667Y-61572867D01*
X63658667Y-61382390D01*
X63611048Y-61287152D01*
X63563429Y-61239533D01*
X63468191Y-61191914D01*
X63944381Y-62144295D02*
X63992001Y-62191914D01*
X64039620Y-62287152D01*
X64039620Y-62525248D01*
X63992001Y-62620486D01*
X63944381Y-62668105D01*
X63849143Y-62715724D01*
X63753905Y-62715724D01*
X63611048Y-62668105D01*
X63039620Y-62096676D01*
X63039620Y-62715724D01*
X64039620Y-63334771D02*
X64039620Y-63430010D01*
X63992001Y-63525248D01*
X63944381Y-63572867D01*
X63849143Y-63620486D01*
X63658667Y-63668105D01*
X63420572Y-63668105D01*
X63230096Y-63620486D01*
X63134858Y-63572867D01*
X63087239Y-63525248D01*
X63039620Y-63430010D01*
X63039620Y-63334771D01*
X63087239Y-63239533D01*
X63134858Y-63191914D01*
X63230096Y-63144295D01*
X63420572Y-63096676D01*
X63658667Y-63096676D01*
X63849143Y-63144295D01*
X63944381Y-63191914D01*
X63992001Y-63239533D01*
X64039620Y-63334771D01*
X63039620Y-64858581D02*
X63706286Y-64858581D01*
X63611048Y-64858581D02*
X63658667Y-64906200D01*
X63706286Y-65001438D01*
X63706286Y-65144295D01*
X63658667Y-65239533D01*
X63563429Y-65287152D01*
X63039620Y-65287152D01*
X63563429Y-65287152D02*
X63658667Y-65334771D01*
X63706286Y-65430010D01*
X63706286Y-65572867D01*
X63658667Y-65668105D01*
X63563429Y-65715724D01*
X63039620Y-65715724D01*
X63039620Y-66191914D02*
X63706286Y-66191914D01*
X63611048Y-66191914D02*
X63658667Y-66239533D01*
X63706286Y-66334771D01*
X63706286Y-66477629D01*
X63658667Y-66572867D01*
X63563429Y-66620486D01*
X63039620Y-66620486D01*
X63563429Y-66620486D02*
X63658667Y-66668105D01*
X63706286Y-66763343D01*
X63706286Y-66906200D01*
X63658667Y-67001438D01*
X63563429Y-67049057D01*
X63039620Y-67049057D01*
X62192001Y-59620010D02*
X62192001Y-67240010D01*
X60160001Y-59620010D02*
X62778422Y-59620010D01*
X60160001Y-67240010D02*
X62778422Y-67240010D01*
X62192001Y-67240010D02*
X61605580Y-66113506D01*
X62192001Y-67240010D02*
X62778422Y-66113506D01*
X62192001Y-59620010D02*
X61605580Y-60746514D01*
X62192001Y-59620010D02*
X62778422Y-60746514D01*
X63668580Y-47882381D02*
X63097151Y-47882381D01*
X63382866Y-47882381D02*
X63382866Y-46882381D01*
X63287628Y-47025239D01*
X63192389Y-47120477D01*
X63097151Y-47168096D01*
X64287628Y-46882381D02*
X64382866Y-46882381D01*
X64478104Y-46930001D01*
X64525723Y-46977620D01*
X64573342Y-47072858D01*
X64620961Y-47263334D01*
X64620961Y-47501429D01*
X64573342Y-47691905D01*
X64525723Y-47787143D01*
X64478104Y-47834762D01*
X64382866Y-47882381D01*
X64287628Y-47882381D01*
X64192389Y-47834762D01*
X64144770Y-47787143D01*
X64097151Y-47691905D01*
X64049532Y-47501429D01*
X64049532Y-47263334D01*
X64097151Y-47072858D01*
X64144770Y-46977620D01*
X64192389Y-46930001D01*
X64287628Y-46882381D01*
X65049532Y-47787143D02*
X65097151Y-47834762D01*
X65049532Y-47882381D01*
X65001913Y-47834762D01*
X65049532Y-47787143D01*
X65049532Y-47882381D01*
X66049532Y-47882381D02*
X65478104Y-47882381D01*
X65763818Y-47882381D02*
X65763818Y-46882381D01*
X65668580Y-47025239D01*
X65573342Y-47120477D01*
X65478104Y-47168096D01*
X66906675Y-46882381D02*
X66716199Y-46882381D01*
X66620961Y-46930001D01*
X66573342Y-46977620D01*
X66478104Y-47120477D01*
X66430485Y-47310953D01*
X66430485Y-47691905D01*
X66478104Y-47787143D01*
X66525723Y-47834762D01*
X66620961Y-47882381D01*
X66811437Y-47882381D01*
X66906675Y-47834762D01*
X66954294Y-47787143D01*
X67001913Y-47691905D01*
X67001913Y-47453810D01*
X66954294Y-47358572D01*
X66906675Y-47310953D01*
X66811437Y-47263334D01*
X66620961Y-47263334D01*
X66525723Y-47310953D01*
X66478104Y-47358572D01*
X66430485Y-47453810D01*
X67620961Y-46882381D02*
X67716199Y-46882381D01*
X67811437Y-46930001D01*
X67859056Y-46977620D01*
X67906675Y-47072858D01*
X67954294Y-47263334D01*
X67954294Y-47501429D01*
X67906675Y-47691905D01*
X67859056Y-47787143D01*
X67811437Y-47834762D01*
X67716199Y-47882381D01*
X67620961Y-47882381D01*
X67525723Y-47834762D01*
X67478104Y-47787143D01*
X67430485Y-47691905D01*
X67382866Y-47501429D01*
X67382866Y-47263334D01*
X67430485Y-47072858D01*
X67478104Y-46977620D01*
X67525723Y-46930001D01*
X67620961Y-46882381D01*
X69144770Y-47882381D02*
X69144770Y-47215715D01*
X69144770Y-47310953D02*
X69192389Y-47263334D01*
X69287628Y-47215715D01*
X69430485Y-47215715D01*
X69525723Y-47263334D01*
X69573342Y-47358572D01*
X69573342Y-47882381D01*
X69573342Y-47358572D02*
X69620961Y-47263334D01*
X69716199Y-47215715D01*
X69859056Y-47215715D01*
X69954294Y-47263334D01*
X70001913Y-47358572D01*
X70001913Y-47882381D01*
X70478104Y-47882381D02*
X70478104Y-47215715D01*
X70478104Y-47310953D02*
X70525723Y-47263334D01*
X70620961Y-47215715D01*
X70763818Y-47215715D01*
X70859056Y-47263334D01*
X70906675Y-47358572D01*
X70906675Y-47882381D01*
X70906675Y-47358572D02*
X70954294Y-47263334D01*
X71049532Y-47215715D01*
X71192389Y-47215715D01*
X71287628Y-47263334D01*
X71335247Y-47358572D01*
X71335247Y-47882381D01*
X62160009Y-48730001D02*
X72320009Y-48730001D01*
X62160009Y-50000001D02*
X62160009Y-48143580D01*
X72320009Y-50000001D02*
X72320009Y-48143580D01*
X72320009Y-48730001D02*
X71193505Y-49316422D01*
X72320009Y-48730001D02*
X71193505Y-48143580D01*
X62160009Y-48730001D02*
X63286513Y-49316422D01*
X62160009Y-48730001D02*
X63286513Y-48143580D01*
X76199628Y-50095715D02*
X76199628Y-50762381D01*
X75199628Y-50333810D01*
X75294866Y-51143334D02*
X75247247Y-51190953D01*
X75199628Y-51143334D01*
X75247247Y-51095715D01*
X75294866Y-51143334D01*
X75199628Y-51143334D01*
X76199628Y-52048096D02*
X76199628Y-51857620D01*
X76152009Y-51762381D01*
X76104389Y-51714762D01*
X75961532Y-51619524D01*
X75771056Y-51571905D01*
X75390104Y-51571905D01*
X75294866Y-51619524D01*
X75247247Y-51667143D01*
X75199628Y-51762381D01*
X75199628Y-51952858D01*
X75247247Y-52048096D01*
X75294866Y-52095715D01*
X75390104Y-52143334D01*
X75628199Y-52143334D01*
X75723437Y-52095715D01*
X75771056Y-52048096D01*
X75818675Y-51952858D01*
X75818675Y-51762381D01*
X75771056Y-51667143D01*
X75723437Y-51619524D01*
X75628199Y-51571905D01*
X76104389Y-52524286D02*
X76152009Y-52571905D01*
X76199628Y-52667143D01*
X76199628Y-52905239D01*
X76152009Y-53000477D01*
X76104389Y-53048096D01*
X76009151Y-53095715D01*
X75913913Y-53095715D01*
X75771056Y-53048096D01*
X75199628Y-52476667D01*
X75199628Y-53095715D01*
X76199628Y-53714762D02*
X76199628Y-53810001D01*
X76152009Y-53905239D01*
X76104389Y-53952858D01*
X76009151Y-54000477D01*
X75818675Y-54048096D01*
X75580580Y-54048096D01*
X75390104Y-54000477D01*
X75294866Y-53952858D01*
X75247247Y-53905239D01*
X75199628Y-53810001D01*
X75199628Y-53714762D01*
X75247247Y-53619524D01*
X75294866Y-53571905D01*
X75390104Y-53524286D01*
X75580580Y-53476667D01*
X75818675Y-53476667D01*
X76009151Y-53524286D01*
X76104389Y-53571905D01*
X76152009Y-53619524D01*
X76199628Y-53714762D01*
X75199628Y-55238572D02*
X75866294Y-55238572D01*
X75771056Y-55238572D02*
X75818675Y-55286191D01*
X75866294Y-55381429D01*
X75866294Y-55524286D01*
X75818675Y-55619524D01*
X75723437Y-55667143D01*
X75199628Y-55667143D01*
X75723437Y-55667143D02*
X75818675Y-55714762D01*
X75866294Y-55810001D01*
X75866294Y-55952858D01*
X75818675Y-56048096D01*
X75723437Y-56095715D01*
X75199628Y-56095715D01*
X75199628Y-56571905D02*
X75866294Y-56571905D01*
X75771056Y-56571905D02*
X75818675Y-56619524D01*
X75866294Y-56714762D01*
X75866294Y-56857620D01*
X75818675Y-56952858D01*
X75723437Y-57000477D01*
X75199628Y-57000477D01*
X75723437Y-57000477D02*
X75818675Y-57048096D01*
X75866294Y-57143334D01*
X75866294Y-57286191D01*
X75818675Y-57381429D01*
X75723437Y-57429048D01*
X75199628Y-57429048D01*
X74352009Y-50000001D02*
X74352009Y-57620001D01*
X72320009Y-50000001D02*
X74938430Y-50000001D01*
X72320009Y-57620001D02*
X74938430Y-57620001D01*
X74352009Y-57620001D02*
X73765588Y-56493497D01*
X74352009Y-57620001D02*
X74938430Y-56493497D01*
X74352009Y-50000001D02*
X73765588Y-51126505D01*
X74352009Y-50000001D02*
X74938430Y-51126505D01*
X51508572Y-47882381D02*
X50937143Y-47882381D01*
X51222858Y-47882381D02*
X51222858Y-46882381D01*
X51127620Y-47025239D01*
X51032381Y-47120477D01*
X50937143Y-47168096D01*
X52127620Y-46882381D02*
X52222858Y-46882381D01*
X52318096Y-46930001D01*
X52365715Y-46977620D01*
X52413334Y-47072858D01*
X52460953Y-47263334D01*
X52460953Y-47501429D01*
X52413334Y-47691905D01*
X52365715Y-47787143D01*
X52318096Y-47834762D01*
X52222858Y-47882381D01*
X52127620Y-47882381D01*
X52032381Y-47834762D01*
X51984762Y-47787143D01*
X51937143Y-47691905D01*
X51889524Y-47501429D01*
X51889524Y-47263334D01*
X51937143Y-47072858D01*
X51984762Y-46977620D01*
X52032381Y-46930001D01*
X52127620Y-46882381D01*
X52889524Y-47787143D02*
X52937143Y-47834762D01*
X52889524Y-47882381D01*
X52841905Y-47834762D01*
X52889524Y-47787143D01*
X52889524Y-47882381D01*
X53889524Y-47882381D02*
X53318096Y-47882381D01*
X53603810Y-47882381D02*
X53603810Y-46882381D01*
X53508572Y-47025239D01*
X53413334Y-47120477D01*
X53318096Y-47168096D01*
X54746667Y-46882381D02*
X54556191Y-46882381D01*
X54460953Y-46930001D01*
X54413334Y-46977620D01*
X54318096Y-47120477D01*
X54270477Y-47310953D01*
X54270477Y-47691905D01*
X54318096Y-47787143D01*
X54365715Y-47834762D01*
X54460953Y-47882381D01*
X54651429Y-47882381D01*
X54746667Y-47834762D01*
X54794286Y-47787143D01*
X54841905Y-47691905D01*
X54841905Y-47453810D01*
X54794286Y-47358572D01*
X54746667Y-47310953D01*
X54651429Y-47263334D01*
X54460953Y-47263334D01*
X54365715Y-47310953D01*
X54318096Y-47358572D01*
X54270477Y-47453810D01*
X55460953Y-46882381D02*
X55556191Y-46882381D01*
X55651429Y-46930001D01*
X55699048Y-46977620D01*
X55746667Y-47072858D01*
X55794286Y-47263334D01*
X55794286Y-47501429D01*
X55746667Y-47691905D01*
X55699048Y-47787143D01*
X55651429Y-47834762D01*
X55556191Y-47882381D01*
X55460953Y-47882381D01*
X55365715Y-47834762D01*
X55318096Y-47787143D01*
X55270477Y-47691905D01*
X55222858Y-47501429D01*
X55222858Y-47263334D01*
X55270477Y-47072858D01*
X55318096Y-46977620D01*
X55365715Y-46930001D01*
X55460953Y-46882381D01*
X56984762Y-47882381D02*
X56984762Y-47215715D01*
X56984762Y-47310953D02*
X57032381Y-47263334D01*
X57127620Y-47215715D01*
X57270477Y-47215715D01*
X57365715Y-47263334D01*
X57413334Y-47358572D01*
X57413334Y-47882381D01*
X57413334Y-47358572D02*
X57460953Y-47263334D01*
X57556191Y-47215715D01*
X57699048Y-47215715D01*
X57794286Y-47263334D01*
X57841905Y-47358572D01*
X57841905Y-47882381D01*
X58318096Y-47882381D02*
X58318096Y-47215715D01*
X58318096Y-47310953D02*
X58365715Y-47263334D01*
X58460953Y-47215715D01*
X58603810Y-47215715D01*
X58699048Y-47263334D01*
X58746667Y-47358572D01*
X58746667Y-47882381D01*
X58746667Y-47358572D02*
X58794286Y-47263334D01*
X58889524Y-47215715D01*
X59032381Y-47215715D01*
X59127620Y-47263334D01*
X59175239Y-47358572D01*
X59175239Y-47882381D01*
X50000001Y-48730001D02*
X60160001Y-48730001D01*
X50000001Y-50000001D02*
X50000001Y-48143580D01*
X60160001Y-50000001D02*
X60160001Y-48143580D01*
X60160001Y-48730001D02*
X59033497Y-49316422D01*
X60160001Y-48730001D02*
X59033497Y-48143580D01*
X50000001Y-48730001D02*
X51126505Y-49316422D01*
X50000001Y-48730001D02*
X51126505Y-48143580D01*
X64039620Y-50095715D02*
X64039620Y-50762381D01*
X63039620Y-50333810D01*
X63134858Y-51143334D02*
X63087239Y-51190953D01*
X63039620Y-51143334D01*
X63087239Y-51095715D01*
X63134858Y-51143334D01*
X63039620Y-51143334D01*
X64039620Y-52048096D02*
X64039620Y-51857620D01*
X63992001Y-51762381D01*
X63944381Y-51714762D01*
X63801524Y-51619524D01*
X63611048Y-51571905D01*
X63230096Y-51571905D01*
X63134858Y-51619524D01*
X63087239Y-51667143D01*
X63039620Y-51762381D01*
X63039620Y-51952858D01*
X63087239Y-52048096D01*
X63134858Y-52095715D01*
X63230096Y-52143334D01*
X63468191Y-52143334D01*
X63563429Y-52095715D01*
X63611048Y-52048096D01*
X63658667Y-51952858D01*
X63658667Y-51762381D01*
X63611048Y-51667143D01*
X63563429Y-51619524D01*
X63468191Y-51571905D01*
X63944381Y-52524286D02*
X63992001Y-52571905D01*
X64039620Y-52667143D01*
X64039620Y-52905239D01*
X63992001Y-53000477D01*
X63944381Y-53048096D01*
X63849143Y-53095715D01*
X63753905Y-53095715D01*
X63611048Y-53048096D01*
X63039620Y-52476667D01*
X63039620Y-53095715D01*
X64039620Y-53714762D02*
X64039620Y-53810001D01*
X63992001Y-53905239D01*
X63944381Y-53952858D01*
X63849143Y-54000477D01*
X63658667Y-54048096D01*
X63420572Y-54048096D01*
X63230096Y-54000477D01*
X63134858Y-53952858D01*
X63087239Y-53905239D01*
X63039620Y-53810001D01*
X63039620Y-53714762D01*
X63087239Y-53619524D01*
X63134858Y-53571905D01*
X63230096Y-53524286D01*
X63420572Y-53476667D01*
X63658667Y-53476667D01*
X63849143Y-53524286D01*
X63944381Y-53571905D01*
X63992001Y-53619524D01*
X64039620Y-53714762D01*
X63039620Y-55238572D02*
X63706286Y-55238572D01*
X63611048Y-55238572D02*
X63658667Y-55286191D01*
X63706286Y-55381429D01*
X63706286Y-55524286D01*
X63658667Y-55619524D01*
X63563429Y-55667143D01*
X63039620Y-55667143D01*
X63563429Y-55667143D02*
X63658667Y-55714762D01*
X63706286Y-55810001D01*
X63706286Y-55952858D01*
X63658667Y-56048096D01*
X63563429Y-56095715D01*
X63039620Y-56095715D01*
X63039620Y-56571905D02*
X63706286Y-56571905D01*
X63611048Y-56571905D02*
X63658667Y-56619524D01*
X63706286Y-56714762D01*
X63706286Y-56857620D01*
X63658667Y-56952858D01*
X63563429Y-57000477D01*
X63039620Y-57000477D01*
X63563429Y-57000477D02*
X63658667Y-57048096D01*
X63706286Y-57143334D01*
X63706286Y-57286191D01*
X63658667Y-57381429D01*
X63563429Y-57429048D01*
X63039620Y-57429048D01*
X62192001Y-50000001D02*
X62192001Y-57620001D01*
X60160001Y-50000001D02*
X62778422Y-50000001D01*
X60160001Y-57620001D02*
X62778422Y-57620001D01*
X62192001Y-57620001D02*
X61605580Y-56493497D01*
X62192001Y-57620001D02*
X62778422Y-56493497D01*
X62192001Y-50000001D02*
X61605580Y-51126505D01*
X62192001Y-50000001D02*
X62778422Y-51126505D01*
M02*
