M48
; DRILL file {KiCad 5.1.4+dfsg1-1} date Tue Dec  1 08:27:43 2020
; FORMAT={-:-/ absolute / metric / decimal}
; #@! TF.CreationDate,2020-12-01T08:27:43+00:00
; #@! TF.GenerationSoftware,Kicad,Pcbnew,5.1.4+dfsg1-1
FMAT,2
METRIC
T1C0.300
T2C1.000
T3C0.500
%
G90
G05
T1
X53.09Y-56.31
X53.09Y-65.93
X54.09Y-52.31
X54.09Y-56.31
X54.09Y-61.93
X54.09Y-65.93
X55.99Y-56.385
X55.99Y-66.005
X56.89Y-52.91
X56.89Y-62.53
X57.59Y-55.61
X57.59Y-65.23
X65.25Y-56.31
X65.25Y-65.93
X66.25Y-52.31
X66.25Y-56.31
X66.25Y-61.93
X66.25Y-65.93
X68.15Y-56.385
X68.15Y-66.005
X69.05Y-52.91
X69.05Y-62.53
X69.75Y-55.61
X69.75Y-65.23
T2
X58.89Y-60.89
X58.89Y-63.43
X58.89Y-65.97
X63.43Y-51.27
X63.43Y-53.81
X63.43Y-56.35
X63.43Y-60.89
X63.43Y-63.43
X63.43Y-65.97
X58.89Y-51.27
X58.89Y-53.81
X58.89Y-56.35
X51.27Y-60.89
X51.27Y-63.43
X51.27Y-65.97
X51.27Y-51.27
X51.27Y-53.81
X51.27Y-56.35
X71.05Y-60.89
X71.05Y-63.43
X71.05Y-65.97
X71.05Y-51.27
X71.05Y-53.81
X71.05Y-56.35
T3
X55.08Y-59.619
X69.74Y-57.621
X55.08Y-57.621
X55.913Y-57.621
X67.24Y-67.241
X52.58Y-49.999
X66.407Y-67.241
X64.74Y-59.619
X52.58Y-67.241
X54.247Y-59.619
X69.74Y-49.999
X56.747Y-57.621
X68.907Y-67.241
X53.413Y-67.241
X53.413Y-59.619
X68.907Y-49.999
X57.58Y-57.621
X54.247Y-67.241
X55.08Y-67.241
X55.913Y-67.241
X52.58Y-59.619
X64.74Y-57.621
X68.073Y-49.999
X57.58Y-49.999
X56.747Y-67.241
X65.573Y-57.621
X67.24Y-49.999
X56.747Y-49.999
X64.74Y-67.241
X69.74Y-59.619
X68.073Y-59.619
X68.073Y-67.241
X57.58Y-67.241
X66.407Y-57.621
X66.407Y-49.999
X52.58Y-57.621
X55.913Y-49.999
X68.907Y-59.619
X67.24Y-59.619
X57.58Y-59.619
X67.24Y-57.621
X68.073Y-57.621
X65.573Y-49.999
X53.413Y-57.621
X55.08Y-49.999
X54.247Y-49.999
X69.74Y-67.241
X66.407Y-59.619
X56.747Y-59.619
X55.913Y-59.619
X68.907Y-57.621
X65.573Y-67.241
X64.74Y-49.999
X54.247Y-57.621
X53.413Y-49.999
X65.573Y-59.619
T0
M30
